<?xml version="1.0" encoding="UTF-8" standalone="no"?>
<!DOCTYPE svg PUBLIC "-//W3C//DTD SVG 1.1//EN"
 "http://www.w3.org/Graphics/SVG/1.1/DTD/svg11.dtd">
<!-- Generated by graphviz version 2.30.1 (20201013.1554)
 -->
<!-- Title: G Pages: 1 -->
<svg width="535pt" height="188pt"
 viewBox="0.00 0.00 535.00 188.00" xmlns="http://www.w3.org/2000/svg" xmlns:xlink="http://www.w3.org/1999/xlink">
<g id="graph0" class="graph" transform="scale(1 1) rotate(0) translate(4 184)">
<title>G</title>
<polygon fill="white" stroke="white" points="-4,5 -4,-184 532,-184 532,5 -4,5"/>
<!-- king -->
<g id="node1" class="node"><title>king</title>
<ellipse fill="none" stroke="black" cx="263" cy="-162" rx="27" ry="18"/>
<text text-anchor="middle" x="263" y="-158.3" font-family="Times,serif" font-size="14.00">king</text>
</g>
<!-- lord0 -->
<g id="node2" class="node"><title>lord0</title>
<ellipse fill="none" stroke="black" cx="127" cy="-90" rx="29.3722" ry="18"/>
<text text-anchor="middle" x="127" y="-86.3" font-family="Times,serif" font-size="14.00">lord0</text>
</g>
<!-- king&#45;&#45;lord0 -->
<g id="edge1" class="edge"><title>king&#45;&#45;lord0</title>
<path fill="none" stroke="black" d="M242.345,-150.369C217.08,-137.365 174.505,-115.451 148.752,-102.196"/>
</g>
<!-- lord1 -->
<g id="node3" class="node"><title>lord1</title>
<ellipse fill="none" stroke="black" cx="263" cy="-90" rx="29.3722" ry="18"/>
<text text-anchor="middle" x="263" y="-86.3" font-family="Times,serif" font-size="14.00">lord1</text>
</g>
<!-- king&#45;&#45;lord1 -->
<g id="edge2" class="edge"><title>king&#45;&#45;lord1</title>
<path fill="none" stroke="black" d="M263,-143.697C263,-132.846 263,-118.917 263,-108.104"/>
</g>
<!-- lord2 -->
<g id="node4" class="node"><title>lord2</title>
<ellipse fill="none" stroke="black" cx="400" cy="-90" rx="29.3722" ry="18"/>
<text text-anchor="middle" x="400" y="-86.3" font-family="Times,serif" font-size="14.00">lord2</text>
</g>
<!-- king&#45;&#45;lord2 -->
<g id="edge3" class="edge"><title>king&#45;&#45;lord2</title>
<path fill="none" stroke="black" d="M283.807,-150.369C309.258,-137.365 352.145,-115.451 378.088,-102.196"/>
</g>
<!-- vassal0 -->
<g id="node5" class="node"><title>vassal0</title>
<ellipse fill="none" stroke="black" cx="36" cy="-18" rx="36.096" ry="18"/>
<text text-anchor="middle" x="36" y="-14.3" font-family="Times,serif" font-size="14.00">vassal0</text>
</g>
<!-- lord0&#45;&#45;vassal0 -->
<g id="edge4" class="edge"><title>lord0&#45;&#45;vassal0</title>
<path fill="none" stroke="black" d="M109.454,-75.5033C93.7534,-63.4257 70.8018,-45.7706 54.7449,-33.4192"/>
</g>
<!-- vassal1 -->
<g id="node6" class="node"><title>vassal1</title>
<ellipse fill="none" stroke="black" cx="127" cy="-18" rx="36.096" ry="18"/>
<text text-anchor="middle" x="127" y="-14.3" font-family="Times,serif" font-size="14.00">vassal1</text>
</g>
<!-- lord0&#45;&#45;vassal1 -->
<g id="edge5" class="edge"><title>lord0&#45;&#45;vassal1</title>
<path fill="none" stroke="black" d="M127,-71.6966C127,-60.8463 127,-46.9167 127,-36.1043"/>
</g>
<!-- vassal2 -->
<g id="node7" class="node"><title>vassal2</title>
<ellipse fill="none" stroke="black" cx="218" cy="-18" rx="36.096" ry="18"/>
<text text-anchor="middle" x="218" y="-14.3" font-family="Times,serif" font-size="14.00">vassal2</text>
</g>
<!-- lord1&#45;&#45;vassal2 -->
<g id="edge6" class="edge"><title>lord1&#45;&#45;vassal2</title>
<path fill="none" stroke="black" d="M252.789,-73.1159C245.528,-61.8213 235.804,-46.6956 228.483,-35.307"/>
</g>
<!-- vassal3 -->
<g id="node8" class="node"><title>vassal3</title>
<ellipse fill="none" stroke="black" cx="309" cy="-18" rx="36.096" ry="18"/>
<text text-anchor="middle" x="309" y="-14.3" font-family="Times,serif" font-size="14.00">vassal3</text>
</g>
<!-- lord1&#45;&#45;vassal3 -->
<g id="edge7" class="edge"><title>lord1&#45;&#45;vassal3</title>
<path fill="none" stroke="black" d="M273.438,-73.1159C280.86,-61.8213 290.8,-46.6956 298.284,-35.307"/>
</g>
<!-- vassal4 -->
<g id="node9" class="node"><title>vassal4</title>
<ellipse fill="none" stroke="black" cx="400" cy="-18" rx="36.096" ry="18"/>
<text text-anchor="middle" x="400" y="-14.3" font-family="Times,serif" font-size="14.00">vassal4</text>
</g>
<!-- lord2&#45;&#45;vassal4 -->
<g id="edge8" class="edge"><title>lord2&#45;&#45;vassal4</title>
<path fill="none" stroke="black" d="M400,-71.6966C400,-60.8463 400,-46.9167 400,-36.1043"/>
</g>
<!-- vassal5 -->
<g id="node10" class="node"><title>vassal5</title>
<ellipse fill="none" stroke="black" cx="491" cy="-18" rx="36.096" ry="18"/>
<text text-anchor="middle" x="491" y="-14.3" font-family="Times,serif" font-size="14.00">vassal5</text>
</g>
<!-- lord2&#45;&#45;vassal5 -->
<g id="edge9" class="edge"><title>lord2&#45;&#45;vassal5</title>
<path fill="none" stroke="black" d="M417.546,-75.5033C433.247,-63.4257 456.198,-45.7706 472.255,-33.4192"/>
</g>
</g>
</svg>
