<?xml version="1.0" encoding="UTF-8" standalone="no"?>
<!DOCTYPE svg PUBLIC "-//W3C//DTD SVG 1.1//EN"
 "http://www.w3.org/Graphics/SVG/1.1/DTD/svg11.dtd">
<!-- Generated by graphviz version 2.30.1 (20201013.1554)
 -->
<!-- Title: G Pages: 1 -->
<svg width="864pt" height="697pt"
 viewBox="0.00 0.00 864.00 697.04" xmlns="http://www.w3.org/2000/svg" xmlns:xlink="http://www.w3.org/1999/xlink">
<g id="graph0" class="graph" transform="scale(0.912355 0.912355) rotate(0) translate(4 760)">
<title>G</title>
<polygon fill="white" stroke="white" points="-4,5 -4,-760 944,-760 944,5 -4,5"/>
<!-- 5th Edition -->
<g id="node1" class="node"><title>5th Edition</title>
<ellipse fill="#b2dfee" stroke="#b2dfee" cx="580" cy="-738" rx="50.0684" ry="18"/>
<text text-anchor="middle" x="580" y="-734.3" font-family="Times,serif" font-size="14.00">5th Edition</text>
</g>
<!-- 6th Edition -->
<g id="node2" class="node"><title>6th Edition</title>
<ellipse fill="#b2dfee" stroke="#b2dfee" cx="426" cy="-666" rx="50.0684" ry="18"/>
<text text-anchor="middle" x="426" y="-662.3" font-family="Times,serif" font-size="14.00">6th Edition</text>
</g>
<!-- 5th Edition&#45;&gt;6th Edition -->
<g id="edge1" class="edge"><title>5th Edition&#45;&gt;6th Edition</title>
<path fill="none" stroke="black" d="M550.307,-723.503C526.098,-712.499 491.702,-696.865 465.226,-684.83"/>
<polygon fill="black" stroke="black" points="466.416,-681.526 455.864,-680.575 463.519,-687.899 466.416,-681.526"/>
</g>
<!-- PWB 1.0 -->
<g id="node3" class="node"><title>PWB 1.0</title>
<ellipse fill="#b2dfee" stroke="#b2dfee" cx="674" cy="-666" rx="44.2946" ry="18"/>
<text text-anchor="middle" x="674" y="-662.3" font-family="Times,serif" font-size="14.00">PWB 1.0</text>
</g>
<!-- 5th Edition&#45;&gt;PWB 1.0 -->
<g id="edge2" class="edge"><title>5th Edition&#45;&gt;PWB 1.0</title>
<path fill="none" stroke="black" d="M600.862,-721.465C614.064,-711.633 631.302,-698.797 645.726,-688.055"/>
<polygon fill="black" stroke="black" points="647.912,-690.791 653.842,-682.011 643.731,-685.177 647.912,-690.791"/>
</g>
<!-- LSX -->
<g id="node4" class="node"><title>LSX</title>
<ellipse fill="#b2dfee" stroke="#b2dfee" cx="585" cy="-594" rx="26.949" ry="18"/>
<text text-anchor="middle" x="585" y="-590.3" font-family="Times,serif" font-size="14.00">LSX</text>
</g>
<!-- 6th Edition&#45;&gt;LSX -->
<g id="edge3" class="edge"><title>6th Edition&#45;&gt;LSX</title>
<path fill="none" stroke="black" d="M456.914,-651.781C481.623,-641.165 517.113,-625.803 548,-612 549.839,-611.178 551.728,-610.328 553.632,-609.467"/>
<polygon fill="black" stroke="black" points="555.473,-612.475 563.122,-605.144 552.571,-606.105 555.473,-612.475"/>
</g>
<!-- 1 BSD -->
<g id="node5" class="node"><title>1 BSD</title>
<ellipse fill="#b2dfee" stroke="#b2dfee" cx="126" cy="-594" rx="34.1708" ry="18"/>
<text text-anchor="middle" x="126" y="-590.3" font-family="Times,serif" font-size="14.00">1 BSD</text>
</g>
<!-- 6th Edition&#45;&gt;1 BSD -->
<g id="edge4" class="edge"><title>6th Edition&#45;&gt;1 BSD</title>
<path fill="none" stroke="black" d="M385.228,-655.487C327.798,-642.086 223.711,-617.799 166.454,-604.439"/>
<polygon fill="black" stroke="black" points="167.201,-601.02 156.667,-602.156 165.61,-607.836 167.201,-601.02"/>
</g>
<!-- Mini Unix -->
<g id="node6" class="node"><title>Mini Unix</title>
<ellipse fill="#b2dfee" stroke="#b2dfee" cx="366" cy="-594" rx="48.1437" ry="18"/>
<text text-anchor="middle" x="366" y="-590.3" font-family="Times,serif" font-size="14.00">Mini Unix</text>
</g>
<!-- 6th Edition&#45;&gt;Mini Unix -->
<g id="edge5" class="edge"><title>6th Edition&#45;&gt;Mini Unix</title>
<path fill="none" stroke="black" d="M411.781,-648.411C404.309,-639.693 395.01,-628.845 386.749,-619.208"/>
<polygon fill="black" stroke="black" points="389.282,-616.785 380.117,-611.47 383.968,-621.34 389.282,-616.785"/>
</g>
<!-- Wollongong -->
<g id="node7" class="node"><title>Wollongong</title>
<ellipse fill="#b2dfee" stroke="#b2dfee" cx="486" cy="-594" rx="53.4184" ry="18"/>
<text text-anchor="middle" x="486" y="-590.3" font-family="Times,serif" font-size="14.00">Wollongong</text>
</g>
<!-- 6th Edition&#45;&gt;Wollongong -->
<g id="edge6" class="edge"><title>6th Edition&#45;&gt;Wollongong</title>
<path fill="none" stroke="black" d="M440.219,-648.411C447.691,-639.693 456.99,-628.845 465.251,-619.208"/>
<polygon fill="black" stroke="black" points="468.032,-621.34 471.883,-611.47 462.718,-616.785 468.032,-621.34"/>
</g>
<!-- Interdata -->
<g id="node8" class="node"><title>Interdata</title>
<ellipse fill="#b2dfee" stroke="#b2dfee" cx="258" cy="-594" rx="42.3701" ry="18"/>
<text text-anchor="middle" x="258" y="-590.3" font-family="Times,serif" font-size="14.00">Interdata</text>
</g>
<!-- 6th Edition&#45;&gt;Interdata -->
<g id="edge7" class="edge"><title>6th Edition&#45;&gt;Interdata</title>
<path fill="none" stroke="black" d="M394.4,-651.834C366.732,-640.305 326.435,-623.515 296.812,-611.172"/>
<polygon fill="black" stroke="black" points="297.786,-607.786 287.209,-607.171 295.094,-614.248 297.786,-607.786"/>
</g>
<!-- PWB 1.2 -->
<g id="node28" class="node"><title>PWB 1.2</title>
<ellipse fill="#b2dfee" stroke="#b2dfee" cx="674" cy="-594" rx="44.2946" ry="18"/>
<text text-anchor="middle" x="674" y="-590.3" font-family="Times,serif" font-size="14.00">PWB 1.2</text>
</g>
<!-- PWB 1.0&#45;&gt;PWB 1.2 -->
<g id="edge31" class="edge"><title>PWB 1.0&#45;&gt;PWB 1.2</title>
<path fill="none" stroke="black" d="M674,-647.697C674,-639.983 674,-630.712 674,-622.112"/>
<polygon fill="black" stroke="black" points="677.5,-622.104 674,-612.104 670.5,-622.104 677.5,-622.104"/>
</g>
<!-- USG 1.0 -->
<g id="node29" class="node"><title>USG 1.0</title>
<ellipse fill="#b2dfee" stroke="#b2dfee" cx="778" cy="-594" rx="41.394" ry="18"/>
<text text-anchor="middle" x="778" y="-590.3" font-family="Times,serif" font-size="14.00">USG 1.0</text>
</g>
<!-- PWB 1.0&#45;&gt;USG 1.0 -->
<g id="edge32" class="edge"><title>PWB 1.0&#45;&gt;USG 1.0</title>
<path fill="none" stroke="black" d="M695.802,-650.326C711.018,-640.084 731.514,-626.289 748.233,-615.036"/>
<polygon fill="black" stroke="black" points="750.242,-617.903 756.583,-609.415 746.333,-612.095 750.242,-617.903"/>
</g>
<!-- 2 BSD -->
<g id="node19" class="node"><title>2 BSD</title>
<ellipse fill="#b2dfee" stroke="#b2dfee" cx="89" cy="-234" rx="34.1708" ry="18"/>
<text text-anchor="middle" x="89" y="-230.3" font-family="Times,serif" font-size="14.00">2 BSD</text>
</g>
<!-- 1 BSD&#45;&gt;2 BSD -->
<g id="edge19" class="edge"><title>1 BSD&#45;&gt;2 BSD</title>
<path fill="none" stroke="black" d="M121.061,-576.12C113.775,-549.687 101,-496.808 101,-451 101,-451 101,-451 101,-377 101,-336.853 96.1786,-290.548 92.648,-262.022"/>
<polygon fill="black" stroke="black" points="96.1081,-261.487 91.3708,-252.01 89.1644,-262.373 96.1081,-261.487"/>
</g>
<!-- Unix/TS 3.0 -->
<g id="node9" class="node"><title>Unix/TS 3.0</title>
<ellipse fill="#b2dfee" stroke="#b2dfee" cx="615" cy="-378" rx="53.4184" ry="18"/>
<text text-anchor="middle" x="615" y="-374.3" font-family="Times,serif" font-size="14.00">Unix/TS 3.0</text>
</g>
<!-- Interdata&#45;&gt;Unix/TS 3.0 -->
<g id="edge8" class="edge"><title>Interdata&#45;&gt;Unix/TS 3.0</title>
<path fill="none" stroke="black" d="M281.424,-578.959C343.011,-542.041 509.661,-442.144 581.405,-399.138"/>
<polygon fill="black" stroke="black" points="583.296,-402.085 590.074,-393.942 579.697,-396.081 583.296,-402.085"/>
</g>
<!-- PWB 2.0 -->
<g id="node10" class="node"><title>PWB 2.0</title>
<ellipse fill="#b2dfee" stroke="#b2dfee" cx="559" cy="-522" rx="44.2946" ry="18"/>
<text text-anchor="middle" x="559" y="-518.3" font-family="Times,serif" font-size="14.00">PWB 2.0</text>
</g>
<!-- Interdata&#45;&gt;PWB 2.0 -->
<g id="edge9" class="edge"><title>Interdata&#45;&gt;PWB 2.0</title>
<path fill="none" stroke="black" d="M289.357,-581.802C295.806,-579.71 302.585,-577.662 309,-576 393.045,-554.222 416.571,-560.235 501,-540 505.665,-538.882 510.514,-537.621 515.332,-536.304"/>
<polygon fill="black" stroke="black" points="516.433,-539.63 525.109,-533.549 514.535,-532.892 516.433,-539.63"/>
</g>
<!-- 7th Edition -->
<g id="node11" class="node"><title>7th Edition</title>
<ellipse fill="#b2dfee" stroke="#b2dfee" cx="258" cy="-522" rx="50.0684" ry="18"/>
<text text-anchor="middle" x="258" y="-518.3" font-family="Times,serif" font-size="14.00">7th Edition</text>
</g>
<!-- Interdata&#45;&gt;7th Edition -->
<g id="edge10" class="edge"><title>Interdata&#45;&gt;7th Edition</title>
<path fill="none" stroke="black" d="M258,-575.697C258,-567.983 258,-558.712 258,-550.112"/>
<polygon fill="black" stroke="black" points="261.5,-550.104 258,-540.104 254.5,-550.104 261.5,-550.104"/>
</g>
<!-- TS 4.0 -->
<g id="node38" class="node"><title>TS 4.0</title>
<ellipse fill="#b2dfee" stroke="#b2dfee" cx="668" cy="-234" rx="34.1708" ry="18"/>
<text text-anchor="middle" x="668" y="-230.3" font-family="Times,serif" font-size="14.00">TS 4.0</text>
</g>
<!-- Unix/TS 3.0&#45;&gt;TS 4.0 -->
<g id="edge44" class="edge"><title>Unix/TS 3.0&#45;&gt;TS 4.0</title>
<path fill="none" stroke="black" d="M621.393,-359.871C630.555,-335.325 647.495,-289.938 658.232,-261.17"/>
<polygon fill="black" stroke="black" points="661.531,-262.341 661.749,-251.748 654.973,-259.893 661.531,-262.341"/>
</g>
<!-- PWB 2.0&#45;&gt;Unix/TS 3.0 -->
<g id="edge42" class="edge"><title>PWB 2.0&#45;&gt;Unix/TS 3.0</title>
<path fill="none" stroke="black" d="M556.543,-503.793C554.657,-485.247 553.857,-455.265 564,-432 568.973,-420.593 577.551,-410.19 586.268,-401.68"/>
<polygon fill="black" stroke="black" points="588.866,-404.046 593.877,-394.711 584.139,-398.884 588.866,-404.046"/>
</g>
<!-- 8th Edition -->
<g id="node12" class="node"><title>8th Edition</title>
<ellipse fill="#b2dfee" stroke="#b2dfee" cx="459" cy="-162" rx="50.0684" ry="18"/>
<text text-anchor="middle" x="459" y="-158.3" font-family="Times,serif" font-size="14.00">8th Edition</text>
</g>
<!-- 7th Edition&#45;&gt;8th Edition -->
<g id="edge11" class="edge"><title>7th Edition&#45;&gt;8th Edition</title>
<path fill="none" stroke="black" d="M301.152,-512.879C346.175,-503.537 412.597,-487.017 430,-468 457.306,-438.161 449,-419.447 449,-379 449,-379 449,-379 449,-305 449,-264.897 453.018,-218.58 455.96,-190.04"/>
<polygon fill="black" stroke="black" points="459.448,-190.336 457.024,-180.022 452.487,-189.596 459.448,-190.336"/>
</g>
<!-- 32V -->
<g id="node13" class="node"><title>32V</title>
<ellipse fill="#b2dfee" stroke="#b2dfee" cx="394" cy="-450" rx="27" ry="18"/>
<text text-anchor="middle" x="394" y="-446.3" font-family="Times,serif" font-size="14.00">32V</text>
</g>
<!-- 7th Edition&#45;&gt;32V -->
<g id="edge12" class="edge"><title>7th Edition&#45;&gt;32V</title>
<path fill="none" stroke="black" d="M285.522,-506.834C308.306,-495.107 340.624,-478.473 364.053,-466.414"/>
<polygon fill="black" stroke="black" points="365.893,-469.403 373.183,-461.715 362.689,-463.179 365.893,-469.403"/>
</g>
<!-- V7M -->
<g id="node14" class="node"><title>V7M</title>
<ellipse fill="#b2dfee" stroke="#b2dfee" cx="29" cy="-378" rx="29.3479" ry="18"/>
<text text-anchor="middle" x="29" y="-374.3" font-family="Times,serif" font-size="14.00">V7M</text>
</g>
<!-- 7th Edition&#45;&gt;V7M -->
<g id="edge13" class="edge"><title>7th Edition&#45;&gt;V7M</title>
<path fill="none" stroke="black" d="M223.628,-508.874C198.699,-499.391 164.648,-484.991 137,-468 105.062,-448.373 72.3922,-420.076 51.4734,-400.689"/>
<polygon fill="black" stroke="black" points="53.7452,-398.021 44.0575,-393.731 48.9558,-403.126 53.7452,-398.021"/>
</g>
<!-- Ultrix&#45;11 -->
<g id="node15" class="node"><title>Ultrix&#45;11</title>
<ellipse fill="#b2dfee" stroke="#b2dfee" cx="119" cy="-90" rx="42.3456" ry="18"/>
<text text-anchor="middle" x="119" y="-86.3" font-family="Times,serif" font-size="14.00">Ultrix&#45;11</text>
</g>
<!-- 7th Edition&#45;&gt;Ultrix&#45;11 -->
<g id="edge14" class="edge"><title>7th Edition&#45;&gt;Ultrix&#45;11</title>
<path fill="none" stroke="black" d="M224.379,-508.64C205.599,-500.043 183.359,-486.731 170,-468 146.515,-435.07 151,-419.447 151,-379 151,-379 151,-379 151,-233 151,-192.037 138.171,-146.018 128.759,-117.768"/>
<polygon fill="black" stroke="black" points="132.033,-116.528 125.476,-108.207 125.413,-118.801 132.033,-116.528"/>
</g>
<!-- Xenix -->
<g id="node16" class="node"><title>Xenix</title>
<ellipse fill="#b2dfee" stroke="#b2dfee" cx="211" cy="-450" rx="31.2735" ry="18"/>
<text text-anchor="middle" x="211" y="-446.3" font-family="Times,serif" font-size="14.00">Xenix</text>
</g>
<!-- 7th Edition&#45;&gt;Xenix -->
<g id="edge15" class="edge"><title>7th Edition&#45;&gt;Xenix</title>
<path fill="none" stroke="black" d="M246.862,-504.411C241.042,-495.744 233.809,-484.971 227.366,-475.375"/>
<polygon fill="black" stroke="black" points="230.215,-473.339 221.735,-466.988 224.403,-477.241 230.215,-473.339"/>
</g>
<!-- UniPlus+ -->
<g id="node17" class="node"><title>UniPlus+</title>
<ellipse fill="#b2dfee" stroke="#b2dfee" cx="305" cy="-450" rx="44.2946" ry="18"/>
<text text-anchor="middle" x="305" y="-446.3" font-family="Times,serif" font-size="14.00">UniPlus+</text>
</g>
<!-- 7th Edition&#45;&gt;UniPlus+ -->
<g id="edge16" class="edge"><title>7th Edition&#45;&gt;UniPlus+</title>
<path fill="none" stroke="black" d="M269.138,-504.411C274.875,-495.868 281.984,-485.278 288.357,-475.787"/>
<polygon fill="black" stroke="black" points="291.273,-477.723 293.942,-467.47 285.461,-473.821 291.273,-477.723"/>
</g>
<!-- 9th Edition -->
<g id="node18" class="node"><title>9th Edition</title>
<ellipse fill="#b2dfee" stroke="#b2dfee" cx="535" cy="-90" rx="50.0684" ry="18"/>
<text text-anchor="middle" x="535" y="-86.3" font-family="Times,serif" font-size="14.00">9th Edition</text>
</g>
<!-- 8th Edition&#45;&gt;9th Edition -->
<g id="edge18" class="edge"><title>8th Edition&#45;&gt;9th Edition</title>
<path fill="none" stroke="black" d="M476.627,-144.765C486.577,-135.6 499.174,-123.998 510.117,-113.919"/>
<polygon fill="black" stroke="black" points="512.746,-116.255 517.731,-106.906 508.004,-111.106 512.746,-116.255"/>
</g>
<!-- 3 BSD -->
<g id="node22" class="node"><title>3 BSD</title>
<ellipse fill="#b2dfee" stroke="#b2dfee" cx="375" cy="-378" rx="34.1708" ry="18"/>
<text text-anchor="middle" x="375" y="-374.3" font-family="Times,serif" font-size="14.00">3 BSD</text>
</g>
<!-- 32V&#45;&gt;3 BSD -->
<g id="edge23" class="edge"><title>32V&#45;&gt;3 BSD</title>
<path fill="none" stroke="black" d="M389.401,-432.055C387.285,-424.261 384.723,-414.822 382.35,-406.079"/>
<polygon fill="black" stroke="black" points="385.686,-405.009 379.689,-396.275 378.931,-406.843 385.686,-405.009"/>
</g>
<!-- V7M&#45;&gt;Ultrix&#45;11 -->
<g id="edge17" class="edge"><title>V7M&#45;&gt;Ultrix&#45;11</title>
<path fill="none" stroke="black" d="M28.4759,-359.584C28.0844,-329.502 29.5343,-266.21 46,-216 58.3449,-178.356 83.1671,-139.674 100.419,-115.507"/>
<polygon fill="black" stroke="black" points="103.344,-117.435 106.395,-107.289 97.683,-113.318 103.344,-117.435"/>
</g>
<!-- 2.8 BSD -->
<g id="node20" class="node"><title>2.8 BSD</title>
<ellipse fill="#b2dfee" stroke="#b2dfee" cx="221" cy="-162" rx="41.394" ry="18"/>
<text text-anchor="middle" x="221" y="-158.3" font-family="Times,serif" font-size="14.00">2.8 BSD</text>
</g>
<!-- 2 BSD&#45;&gt;2.8 BSD -->
<g id="edge20" class="edge"><title>2 BSD&#45;&gt;2.8 BSD</title>
<path fill="none" stroke="black" d="M112.295,-220.647C132.942,-209.697 163.361,-193.566 186.774,-181.15"/>
<polygon fill="black" stroke="black" points="188.493,-184.2 195.688,-176.423 185.214,-178.016 188.493,-184.2"/>
</g>
<!-- 2.8 BSD&#45;&gt;Ultrix&#45;11 -->
<g id="edge21" class="edge"><title>2.8 BSD&#45;&gt;Ultrix&#45;11</title>
<path fill="none" stroke="black" d="M199.866,-146.496C185.194,-136.427 165.43,-122.864 149.114,-111.666"/>
<polygon fill="black" stroke="black" points="150.684,-108.499 140.458,-105.726 146.723,-114.271 150.684,-108.499"/>
</g>
<!-- 2.9 BSD -->
<g id="node21" class="node"><title>2.9 BSD</title>
<ellipse fill="#b2dfee" stroke="#b2dfee" cx="221" cy="-90" rx="41.394" ry="18"/>
<text text-anchor="middle" x="221" y="-86.3" font-family="Times,serif" font-size="14.00">2.9 BSD</text>
</g>
<!-- 2.8 BSD&#45;&gt;2.9 BSD -->
<g id="edge22" class="edge"><title>2.8 BSD&#45;&gt;2.9 BSD</title>
<path fill="none" stroke="black" d="M221,-143.697C221,-135.983 221,-126.712 221,-118.112"/>
<polygon fill="black" stroke="black" points="224.5,-118.104 221,-108.104 217.5,-118.104 224.5,-118.104"/>
</g>
<!-- 4 BSD -->
<g id="node23" class="node"><title>4 BSD</title>
<ellipse fill="#b2dfee" stroke="#b2dfee" cx="371" cy="-306" rx="34.1708" ry="18"/>
<text text-anchor="middle" x="371" y="-302.3" font-family="Times,serif" font-size="14.00">4 BSD</text>
</g>
<!-- 3 BSD&#45;&gt;4 BSD -->
<g id="edge24" class="edge"><title>3 BSD&#45;&gt;4 BSD</title>
<path fill="none" stroke="black" d="M374.011,-359.697C373.57,-351.983 373.041,-342.712 372.549,-334.112"/>
<polygon fill="black" stroke="black" points="376.042,-333.888 371.977,-324.104 369.054,-334.288 376.042,-333.888"/>
</g>
<!-- 4.1 BSD -->
<g id="node24" class="node"><title>4.1 BSD</title>
<ellipse fill="#b2dfee" stroke="#b2dfee" cx="369" cy="-234" rx="41.394" ry="18"/>
<text text-anchor="middle" x="369" y="-230.3" font-family="Times,serif" font-size="14.00">4.1 BSD</text>
</g>
<!-- 4 BSD&#45;&gt;4.1 BSD -->
<g id="edge25" class="edge"><title>4 BSD&#45;&gt;4.1 BSD</title>
<path fill="none" stroke="black" d="M370.506,-287.697C370.285,-279.983 370.02,-270.712 369.775,-262.112"/>
<polygon fill="black" stroke="black" points="373.273,-262 369.489,-252.104 366.276,-262.2 373.273,-262"/>
</g>
<!-- 4.2 BSD -->
<g id="node25" class="node"><title>4.2 BSD</title>
<ellipse fill="#b2dfee" stroke="#b2dfee" cx="349" cy="-162" rx="41.394" ry="18"/>
<text text-anchor="middle" x="349" y="-158.3" font-family="Times,serif" font-size="14.00">4.2 BSD</text>
</g>
<!-- 4.1 BSD&#45;&gt;4.2 BSD -->
<g id="edge26" class="edge"><title>4.1 BSD&#45;&gt;4.2 BSD</title>
<path fill="none" stroke="black" d="M364.159,-216.055C361.932,-208.261 359.235,-198.822 356.737,-190.079"/>
<polygon fill="black" stroke="black" points="360.048,-188.929 353.936,-180.275 353.318,-190.852 360.048,-188.929"/>
</g>
<!-- 4.1 BSD&#45;&gt;2.8 BSD -->
<g id="edge27" class="edge"><title>4.1 BSD&#45;&gt;2.8 BSD</title>
<path fill="none" stroke="black" d="M341.855,-220.161C318.071,-208.912 283.319,-192.475 257.178,-180.111"/>
<polygon fill="black" stroke="black" points="258.51,-176.869 247.973,-175.758 255.517,-183.197 258.51,-176.869"/>
</g>
<!-- 4.1 BSD&#45;&gt;8th Edition -->
<g id="edge28" class="edge"><title>4.1 BSD&#45;&gt;8th Edition</title>
<path fill="none" stroke="black" d="M388.529,-217.811C400.859,-208.221 416.993,-195.672 430.712,-185.002"/>
<polygon fill="black" stroke="black" points="433.142,-187.546 438.886,-178.644 428.844,-182.021 433.142,-187.546"/>
</g>
<!-- 4.3 BSD -->
<g id="node26" class="node"><title>4.3 BSD</title>
<ellipse fill="#b2dfee" stroke="#b2dfee" cx="425" cy="-90" rx="41.394" ry="18"/>
<text text-anchor="middle" x="425" y="-86.3" font-family="Times,serif" font-size="14.00">4.3 BSD</text>
</g>
<!-- 4.2 BSD&#45;&gt;4.3 BSD -->
<g id="edge29" class="edge"><title>4.2 BSD&#45;&gt;4.3 BSD</title>
<path fill="none" stroke="black" d="M365.867,-145.465C376.1,-136.04 389.331,-123.853 400.682,-113.398"/>
<polygon fill="black" stroke="black" points="403.196,-115.841 408.18,-106.492 398.454,-110.692 403.196,-115.841"/>
</g>
<!-- Ultrix&#45;32 -->
<g id="node27" class="node"><title>Ultrix&#45;32</title>
<ellipse fill="#b2dfee" stroke="#b2dfee" cx="323" cy="-90" rx="42.3456" ry="18"/>
<text text-anchor="middle" x="323" y="-86.3" font-family="Times,serif" font-size="14.00">Ultrix&#45;32</text>
</g>
<!-- 4.2 BSD&#45;&gt;Ultrix&#45;32 -->
<g id="edge30" class="edge"><title>4.2 BSD&#45;&gt;Ultrix&#45;32</title>
<path fill="none" stroke="black" d="M342.706,-144.055C339.78,-136.176 336.229,-126.617 332.952,-117.794"/>
<polygon fill="black" stroke="black" points="336.179,-116.431 329.417,-108.275 329.617,-118.868 336.179,-116.431"/>
</g>
<!-- PWB 1.2&#45;&gt;PWB 2.0 -->
<g id="edge33" class="edge"><title>PWB 1.2&#45;&gt;PWB 2.0</title>
<path fill="none" stroke="black" d="M650.451,-578.666C633.319,-568.237 609.922,-553.996 591.083,-542.529"/>
<polygon fill="black" stroke="black" points="592.88,-539.525 582.518,-537.315 589.24,-545.505 592.88,-539.525"/>
</g>
<!-- CB Unix 1 -->
<g id="node30" class="node"><title>CB Unix 1</title>
<ellipse fill="#b2dfee" stroke="#b2dfee" cx="828" cy="-522" rx="48.6179" ry="18"/>
<text text-anchor="middle" x="828" y="-518.3" font-family="Times,serif" font-size="14.00">CB Unix 1</text>
</g>
<!-- USG 1.0&#45;&gt;CB Unix 1 -->
<g id="edge34" class="edge"><title>USG 1.0&#45;&gt;CB Unix 1</title>
<path fill="none" stroke="black" d="M789.849,-576.411C795.952,-567.868 803.515,-557.278 810.295,-547.787"/>
<polygon fill="black" stroke="black" points="813.271,-549.642 816.236,-539.47 807.575,-545.573 813.271,-549.642"/>
</g>
<!-- USG 2.0 -->
<g id="node31" class="node"><title>USG 2.0</title>
<ellipse fill="#b2dfee" stroke="#b2dfee" cx="697" cy="-522" rx="41.394" ry="18"/>
<text text-anchor="middle" x="697" y="-518.3" font-family="Times,serif" font-size="14.00">USG 2.0</text>
</g>
<!-- USG 1.0&#45;&gt;USG 2.0 -->
<g id="edge35" class="edge"><title>USG 1.0&#45;&gt;USG 2.0</title>
<path fill="none" stroke="black" d="M760.023,-577.465C749.012,-567.949 734.744,-555.619 722.569,-545.097"/>
<polygon fill="black" stroke="black" points="724.781,-542.382 714.926,-538.492 720.204,-547.679 724.781,-542.382"/>
</g>
<!-- CB Unix 2 -->
<g id="node32" class="node"><title>CB Unix 2</title>
<ellipse fill="#b2dfee" stroke="#b2dfee" cx="850" cy="-450" rx="48.6179" ry="18"/>
<text text-anchor="middle" x="850" y="-446.3" font-family="Times,serif" font-size="14.00">CB Unix 2</text>
</g>
<!-- CB Unix 1&#45;&gt;CB Unix 2 -->
<g id="edge36" class="edge"><title>CB Unix 1&#45;&gt;CB Unix 2</title>
<path fill="none" stroke="black" d="M833.326,-504.055C835.775,-496.261 838.742,-486.822 841.489,-478.079"/>
<polygon fill="black" stroke="black" points="844.911,-478.865 844.571,-468.275 838.233,-476.766 844.911,-478.865"/>
</g>
<!-- USG 3.0 -->
<g id="node36" class="node"><title>USG 3.0</title>
<ellipse fill="#b2dfee" stroke="#b2dfee" cx="615" cy="-450" rx="41.394" ry="18"/>
<text text-anchor="middle" x="615" y="-446.3" font-family="Times,serif" font-size="14.00">USG 3.0</text>
</g>
<!-- USG 2.0&#45;&gt;USG 3.0 -->
<g id="edge40" class="edge"><title>USG 2.0&#45;&gt;USG 3.0</title>
<path fill="none" stroke="black" d="M678.802,-505.465C667.577,-495.883 653.01,-483.447 640.629,-472.878"/>
<polygon fill="black" stroke="black" points="642.744,-470.082 632.865,-466.251 638.199,-475.406 642.744,-470.082"/>
</g>
<!-- CB Unix 3 -->
<g id="node33" class="node"><title>CB Unix 3</title>
<ellipse fill="#b2dfee" stroke="#b2dfee" cx="793" cy="-378" rx="48.6179" ry="18"/>
<text text-anchor="middle" x="793" y="-374.3" font-family="Times,serif" font-size="14.00">CB Unix 3</text>
</g>
<!-- CB Unix 2&#45;&gt;CB Unix 3 -->
<g id="edge37" class="edge"><title>CB Unix 2&#45;&gt;CB Unix 3</title>
<path fill="none" stroke="black" d="M836.492,-432.411C829.464,-423.781 820.736,-413.062 812.948,-403.497"/>
<polygon fill="black" stroke="black" points="815.44,-401.014 806.411,-395.47 810.012,-405.434 815.44,-401.014"/>
</g>
<!-- Unix/TS++ -->
<g id="node34" class="node"><title>Unix/TS++</title>
<ellipse fill="#b2dfee" stroke="#b2dfee" cx="747" cy="-306" rx="51.0191" ry="18"/>
<text text-anchor="middle" x="747" y="-302.3" font-family="Times,serif" font-size="14.00">Unix/TS++</text>
</g>
<!-- CB Unix 3&#45;&gt;Unix/TS++ -->
<g id="edge38" class="edge"><title>CB Unix 3&#45;&gt;Unix/TS++</title>
<path fill="none" stroke="black" d="M782.099,-360.411C776.622,-352.077 769.867,-341.797 763.749,-332.488"/>
<polygon fill="black" stroke="black" points="766.559,-330.391 758.143,-323.956 760.71,-334.235 766.559,-330.391"/>
</g>
<!-- PDP&#45;11 Sys V -->
<g id="node35" class="node"><title>PDP&#45;11 Sys V</title>
<ellipse fill="#b2dfee" stroke="#b2dfee" cx="878" cy="-306" rx="61.6163" ry="18"/>
<text text-anchor="middle" x="878" y="-302.3" font-family="Times,serif" font-size="14.00">PDP&#45;11 Sys V</text>
</g>
<!-- CB Unix 3&#45;&gt;PDP&#45;11 Sys V -->
<g id="edge39" class="edge"><title>CB Unix 3&#45;&gt;PDP&#45;11 Sys V</title>
<path fill="none" stroke="black" d="M812.288,-361.116C823.538,-351.851 837.919,-340.008 850.358,-329.764"/>
<polygon fill="black" stroke="black" points="852.704,-332.366 858.199,-323.307 848.254,-326.962 852.704,-332.366"/>
</g>
<!-- CB Unix 3&#45;&gt;TS 4.0 -->
<g id="edge46" class="edge"><title>CB Unix 3&#45;&gt;TS 4.0</title>
<path fill="none" stroke="black" d="M754.445,-366.948C731.497,-358.998 703.687,-345.558 687,-324 673.436,-306.477 669.031,-281.44 667.821,-262.383"/>
<polygon fill="black" stroke="black" points="671.313,-262.086 667.436,-252.226 664.318,-262.352 671.313,-262.086"/>
</g>
<!-- Unix/TS++&#45;&gt;TS 4.0 -->
<g id="edge45" class="edge"><title>Unix/TS++&#45;&gt;TS 4.0</title>
<path fill="none" stroke="black" d="M729.074,-289.116C718.273,-279.546 704.368,-267.225 692.555,-256.758"/>
<polygon fill="black" stroke="black" points="694.581,-253.876 684.775,-249.864 689.938,-259.115 694.581,-253.876"/>
</g>
<!-- USG 3.0&#45;&gt;Unix/TS 3.0 -->
<g id="edge41" class="edge"><title>USG 3.0&#45;&gt;Unix/TS 3.0</title>
<path fill="none" stroke="black" d="M615,-431.697C615,-423.983 615,-414.712 615,-406.112"/>
<polygon fill="black" stroke="black" points="618.5,-406.104 615,-396.104 611.5,-406.104 618.5,-406.104"/>
</g>
<!-- Unix/TS 1.0 -->
<g id="node37" class="node"><title>Unix/TS 1.0</title>
<ellipse fill="#b2dfee" stroke="#b2dfee" cx="729" cy="-450" rx="53.4184" ry="18"/>
<text text-anchor="middle" x="729" y="-446.3" font-family="Times,serif" font-size="14.00">Unix/TS 1.0</text>
</g>
<!-- Unix/TS 1.0&#45;&gt;Unix/TS 3.0 -->
<g id="edge43" class="edge"><title>Unix/TS 1.0&#45;&gt;Unix/TS 3.0</title>
<path fill="none" stroke="black" d="M704.544,-433.983C688.276,-423.994 666.689,-410.739 648.787,-399.746"/>
<polygon fill="black" stroke="black" points="650.162,-396.484 639.809,-394.233 646.499,-402.449 650.162,-396.484"/>
</g>
<!-- System V.0 -->
<g id="node39" class="node"><title>System V.0</title>
<ellipse fill="#b2dfee" stroke="#b2dfee" cx="668" cy="-162" rx="51.0191" ry="18"/>
<text text-anchor="middle" x="668" y="-158.3" font-family="Times,serif" font-size="14.00">System V.0</text>
</g>
<!-- TS 4.0&#45;&gt;System V.0 -->
<g id="edge47" class="edge"><title>TS 4.0&#45;&gt;System V.0</title>
<path fill="none" stroke="black" d="M668,-215.697C668,-207.983 668,-198.712 668,-190.112"/>
<polygon fill="black" stroke="black" points="671.5,-190.104 668,-180.104 664.5,-190.104 671.5,-190.104"/>
</g>
<!-- System V.2 -->
<g id="node40" class="node"><title>System V.2</title>
<ellipse fill="#b2dfee" stroke="#b2dfee" cx="668" cy="-90" rx="51.0191" ry="18"/>
<text text-anchor="middle" x="668" y="-86.3" font-family="Times,serif" font-size="14.00">System V.2</text>
</g>
<!-- System V.0&#45;&gt;System V.2 -->
<g id="edge48" class="edge"><title>System V.0&#45;&gt;System V.2</title>
<path fill="none" stroke="black" d="M668,-143.697C668,-135.983 668,-126.712 668,-118.112"/>
<polygon fill="black" stroke="black" points="671.5,-118.104 668,-108.104 664.5,-118.104 671.5,-118.104"/>
</g>
<!-- System V.3 -->
<g id="node41" class="node"><title>System V.3</title>
<ellipse fill="#b2dfee" stroke="#b2dfee" cx="668" cy="-18" rx="51.0191" ry="18"/>
<text text-anchor="middle" x="668" y="-14.3" font-family="Times,serif" font-size="14.00">System V.3</text>
</g>
<!-- System V.2&#45;&gt;System V.3 -->
<g id="edge49" class="edge"><title>System V.2&#45;&gt;System V.3</title>
<path fill="none" stroke="black" d="M668,-71.6966C668,-63.9827 668,-54.7125 668,-46.1124"/>
<polygon fill="black" stroke="black" points="671.5,-46.1043 668,-36.1043 664.5,-46.1044 671.5,-46.1043"/>
</g>
</g>
</svg>
