<?xml version="1.0" encoding="UTF-8" standalone="no"?>
<!DOCTYPE svg PUBLIC "-//W3C//DTD SVG 1.1//EN"
 "http://www.w3.org/Graphics/SVG/1.1/DTD/svg11.dtd">
<!-- Generated by graphviz version 2.30.1 (20201013.1554)
 -->
<!-- Title: G Pages: 1 -->
<svg width="183pt" height="276pt"
 viewBox="0.00 0.00 183.00 276.00" xmlns="http://www.w3.org/2000/svg" xmlns:xlink="http://www.w3.org/1999/xlink">
<g id="graph0" class="graph" transform="scale(1 1) rotate(0) translate(4 272)">
<title>G</title>
<polygon fill="white" stroke="white" points="-4,5 -4,-272 180,-272 180,5 -4,5"/>
<!-- Node A -->
<g id="node1" class="node"><title>Node A</title>
<ellipse fill="red" stroke="black" cx="87" cy="-250" rx="38.0212" ry="18"/>
<text text-anchor="middle" x="87" y="-246.3" font-family="Times,serif" font-size="14.00">Node A</text>
</g>
<!-- Node B -->
<g id="node2" class="node"><title>Node B</title>
<ellipse fill="green" stroke="black" cx="38" cy="-176" rx="38.0212" ry="18"/>
<text text-anchor="middle" x="38" y="-172.3" font-family="Times,serif" font-size="14.00">Node B</text>
</g>
<!-- Node A&#45;&gt;Node B -->
<g id="edge1" class="edge"><title>Node A&#45;&gt;Node B</title>
<path fill="none" stroke="black" d="M75.8811,-232.662C69.6788,-223.548 61.8261,-212.01 54.8806,-201.804"/>
<polygon fill="black" stroke="black" points="57.5946,-199.571 49.0749,-193.273 51.8076,-203.51 57.5946,-199.571"/>
</g>
<!-- Node C -->
<g id="node3" class="node"><title>Node C</title>
<ellipse fill="#0000ff" stroke="black" cx="38" cy="-92" rx="38.0212" ry="18"/>
<text text-anchor="middle" x="38" y="-88.3" font-family="Times,serif" font-size="14.00">Node C</text>
</g>
<!-- Node B&#45;&gt;Node C -->
<g id="edge2" class="edge"><title>Node B&#45;&gt;Node C</title>
<path fill="none" stroke="black" d="M38,-157.61C38,-146.774 38,-132.601 38,-120.291"/>
<polygon fill="black" stroke="black" points="41.5001,-120.084 38,-110.084 34.5001,-120.084 41.5001,-120.084"/>
</g>
<!-- Node D -->
<g id="node4" class="node"><title>Node D</title>
<ellipse fill="#976856" stroke="black" cx="81" cy="-18" rx="38.0212" ry="18"/>
<text text-anchor="middle" x="81" y="-14.3" font-family="Times,serif" font-size="14.00">Node D</text>
</g>
<!-- Node C&#45;&gt;Node D -->
<g id="edge3" class="edge"><title>Node C&#45;&gt;Node D</title>
<path fill="none" stroke="black" d="M47.9731,-74.3008C53.2918,-65.3952 59.9465,-54.2524 65.8861,-44.307"/>
<polygon fill="black" stroke="black" points="68.9584,-45.9887 71.0809,-35.6087 62.9486,-42.3995 68.9584,-45.9887"/>
</g>
<!-- Node D&#45;&gt;Node A -->
<g id="edge4" class="edge"><title>Node D&#45;&gt;Node A</title>
<path fill="none" stroke="blue" d="M82.5327,-36.3242C83.4223,-47.1455 84.4692,-61.3737 85,-74 87.1879,-126.046 87.3423,-186.87 87.2056,-221.371"/>
<polygon fill="blue" stroke="blue" points="83.7046,-221.586 87.1532,-231.604 90.7045,-221.622 83.7046,-221.586"/>
<text text-anchor="middle" x="130.5" y="-131.5" font-family="Times,serif" font-size="10.00">and back we go again</text>
</g>
</g>
</svg>
