<?xml version="1.0" encoding="UTF-8" standalone="no"?>
<!DOCTYPE svg PUBLIC "-//W3C//DTD SVG 1.1//EN"
 "http://www.w3.org/Graphics/SVG/1.1/DTD/svg11.dtd">
<!-- Generated by graphviz version 2.30.1 (20201013.1554)
 -->
<!-- Title: G Pages: 1 -->
<svg width="157pt" height="120pt"
 viewBox="0.00 0.00 157.00 120.00" xmlns="http://www.w3.org/2000/svg" xmlns:xlink="http://www.w3.org/1999/xlink">
<g id="graph0" class="graph" transform="scale(1 1) rotate(0) translate(4 116)">
<title>G</title>
<polygon fill="white" stroke="white" points="-4,5 -4,-116 154,-116 154,5 -4,5"/>
<!-- node0 -->
<g id="node1" class="node"><title>node0</title>
<polygon fill="none" stroke="black" points="42,-75 42,-111 108,-111 108,-75 42,-75"/>
<text text-anchor="middle" x="52" y="-89.3" font-family="Times,serif" font-size="14.00"> </text>
<polyline fill="none" stroke="black" points="62,-75 62,-111 "/>
<text text-anchor="middle" x="75" y="-89.3" font-family="Times,serif" font-size="14.00">G</text>
<polyline fill="none" stroke="black" points="88,-75 88,-111 "/>
<text text-anchor="middle" x="98" y="-89.3" font-family="Times,serif" font-size="14.00"> </text>
</g>
<!-- node2 -->
<g id="node3" class="node"><title>node2</title>
<polygon fill="none" stroke="black" points="0,-1 0,-37 66,-37 66,-1 0,-1"/>
<text text-anchor="middle" x="10" y="-15.3" font-family="Times,serif" font-size="14.00"> </text>
<polyline fill="none" stroke="black" points="20,-1 20,-37 "/>
<text text-anchor="middle" x="33" y="-15.3" font-family="Times,serif" font-size="14.00">R</text>
<polyline fill="none" stroke="black" points="46,-1 46,-37 "/>
<text text-anchor="middle" x="56" y="-15.3" font-family="Times,serif" font-size="14.00"> </text>
</g>
<!-- node0&#45;&gt;node2 -->
<g id="edge1" class="edge"><title>node0&#45;&gt;node2</title>
<path fill="none" stroke="black" d="M65.0466,-74.937C60.0465,-66.3654 53.8783,-55.7914 48.293,-46.2165"/>
<polygon fill="black" stroke="black" points="51.2357,-44.3149 43.1737,-37.4407 45.1893,-47.842 51.2357,-44.3149"/>
</g>
<!-- node1 -->
<g id="node2" class="node"><title>node1</title>
<polygon fill="none" stroke="black" points="84.5,-1 84.5,-37 149.5,-37 149.5,-1 84.5,-1"/>
<text text-anchor="middle" x="94.5" y="-15.3" font-family="Times,serif" font-size="14.00"> </text>
<polyline fill="none" stroke="black" points="104.5,-1 104.5,-37 "/>
<text text-anchor="middle" x="117" y="-15.3" font-family="Times,serif" font-size="14.00">E</text>
<polyline fill="none" stroke="black" points="129.5,-1 129.5,-37 "/>
<text text-anchor="middle" x="139.5" y="-15.3" font-family="Times,serif" font-size="14.00"> </text>
</g>
<!-- node0&#45;&gt;node1 -->
<g id="edge2" class="edge"><title>node0&#45;&gt;node1</title>
<path fill="none" stroke="black" d="M84.9534,-74.937C89.9535,-66.3654 96.1217,-55.7914 101.707,-46.2165"/>
<polygon fill="black" stroke="black" points="104.811,-47.842 106.826,-37.4407 98.7643,-44.3149 104.811,-47.842"/>
</g>
</g>
</svg>
