<?xml version="1.0" encoding="UTF-8" standalone="no"?>
<!DOCTYPE svg PUBLIC "-//W3C//DTD SVG 1.1//EN"
 "http://www.w3.org/Graphics/SVG/1.1/DTD/svg11.dtd">
<!-- Generated by graphviz version 2.30.1 (20201013.1554)
 -->
<!-- Title: G Pages: 1 -->
<svg width="260pt" height="152pt"
 viewBox="0.00 0.00 260.00 152.00" xmlns="http://www.w3.org/2000/svg" xmlns:xlink="http://www.w3.org/1999/xlink">
<g id="graph0" class="graph" transform="scale(1 1) rotate(0) translate(4 148)">
<title>G</title>
<polygon fill="white" stroke="white" points="-4,5 -4,-148 257,-148 257,5 -4,5"/>
<!-- struct1 -->
<g id="node1" class="node"><title>struct1</title>
<polygon fill="none" stroke="black" points="8.5,-107 8.5,-143 139.5,-143 139.5,-107 8.5,-107"/>
<text text-anchor="middle" x="26" y="-121.3" font-family="Times,serif" font-size="14.00">left</text>
<polyline fill="none" stroke="black" points="43.5,-107 43.5,-143 "/>
<text text-anchor="middle" x="71" y="-121.3" font-family="Times,serif" font-size="14.00">middle</text>
<polyline fill="none" stroke="black" points="98.5,-107 98.5,-143 "/>
<text text-anchor="middle" x="119" y="-121.3" font-family="Times,serif" font-size="14.00">right</text>
</g>
<!-- struct2 -->
<g id="node2" class="node"><title>struct2</title>
<polygon fill="none" stroke="black" points="0,-17 0,-53 72,-53 72,-17 0,-17"/>
<text text-anchor="middle" x="18" y="-31.3" font-family="Times,serif" font-size="14.00">one</text>
<polyline fill="none" stroke="black" points="36,-17 36,-53 "/>
<text text-anchor="middle" x="54" y="-31.3" font-family="Times,serif" font-size="14.00">two</text>
</g>
<!-- struct1&#45;&gt;struct2 -->
<g id="edge1" class="edge"><title>struct1:f1&#45;&gt;struct2:f0</title>
<path fill="none" stroke="black" d="M71,-106C71,-76.8674 29.694,-84.3641 20.0129,-63.8165"/>
<polygon fill="black" stroke="black" points="23.4375,-63.0931 18,-54 16.5802,-64.4993 23.4375,-63.0931"/>
</g>
<!-- struct3 -->
<g id="node3" class="node"><title>struct3</title>
<polygon fill="none" stroke="black" points="90,-0.5 90,-69.5 252,-69.5 252,-0.5 90,-0.5"/>
<text text-anchor="middle" x="113.5" y="-38.8" font-family="Times,serif" font-size="14.00">hello</text>
<text text-anchor="middle" x="113.5" y="-23.8" font-family="Times,serif" font-size="14.00">world</text>
<polyline fill="none" stroke="black" points="137,-0.5 137,-69.5 "/>
<text text-anchor="middle" x="171.5" y="-54.3" font-family="Times,serif" font-size="14.00">b</text>
<polyline fill="none" stroke="black" points="137,-46.5 206,-46.5 "/>
<text text-anchor="middle" x="148.5" y="-31.3" font-family="Times,serif" font-size="14.00">c</text>
<polyline fill="none" stroke="black" points="160,-23.5 160,-46.5 "/>
<text text-anchor="middle" x="171.5" y="-31.3" font-family="Times,serif" font-size="14.00">d</text>
<polyline fill="none" stroke="black" points="183,-23.5 183,-46.5 "/>
<text text-anchor="middle" x="194.5" y="-31.3" font-family="Times,serif" font-size="14.00">e</text>
<polyline fill="none" stroke="black" points="137,-23.5 206,-23.5 "/>
<text text-anchor="middle" x="171.5" y="-8.3" font-family="Times,serif" font-size="14.00">f</text>
<polyline fill="none" stroke="black" points="206,-0.5 206,-69.5 "/>
<text text-anchor="middle" x="217.5" y="-31.3" font-family="Times,serif" font-size="14.00">g</text>
<polyline fill="none" stroke="black" points="229,-0.5 229,-69.5 "/>
<text text-anchor="middle" x="240.5" y="-31.3" font-family="Times,serif" font-size="14.00">h</text>
</g>
<!-- struct1&#45;&gt;struct3 -->
<g id="edge2" class="edge"><title>struct1:f2&#45;&gt;struct3:here</title>
<path fill="none" stroke="black" d="M119,-106C119,-94.1691 138.137,-70.9204 153.412,-54.2474"/>
<polygon fill="black" stroke="black" points="156.225,-56.3637 160.5,-46.6695 151.113,-51.5819 156.225,-56.3637"/>
</g>
</g>
</svg>
