<?xml version="1.0" encoding="UTF-8" standalone="no"?>
<!DOCTYPE svg PUBLIC "-//W3C//DTD SVG 1.1//EN"
 "http://www.w3.org/Graphics/SVG/1.1/DTD/svg11.dtd">
<!-- Generated by graphviz version 2.30.1 (20201013.1554)
 -->
<!-- Title: G Pages: 1 -->
<svg width="324pt" height="212pt"
 viewBox="0.00 0.00 324.00 212.00" xmlns="http://www.w3.org/2000/svg" xmlns:xlink="http://www.w3.org/1999/xlink">
<g id="graph0" class="graph" transform="scale(1 1) rotate(0) translate(4 208)">
<title>G</title>
<polygon fill="white" stroke="white" points="-4,5 -4,-208 321,-208 321,5 -4,5"/>
<!-- node0 -->
<g id="node1" class="node"><title>node0</title>
<polygon fill="none" stroke="black" points="126,-180.5 126,-203.5 192,-203.5 192,-180.5 126,-180.5"/>
<text text-anchor="middle" x="136" y="-188.3" font-family="Times,serif" font-size="14.00"> </text>
<polyline fill="none" stroke="black" points="146,-180.5 146,-203.5 "/>
<text text-anchor="middle" x="159" y="-188.3" font-family="Times,serif" font-size="14.00">G</text>
<polyline fill="none" stroke="black" points="172,-180.5 172,-203.5 "/>
<text text-anchor="middle" x="182" y="-188.3" font-family="Times,serif" font-size="14.00"> </text>
</g>
<!-- node4 -->
<g id="node5" class="node"><title>node4</title>
<polygon fill="none" stroke="black" points="84,-120.5 84,-143.5 150,-143.5 150,-120.5 84,-120.5"/>
<text text-anchor="middle" x="94" y="-128.3" font-family="Times,serif" font-size="14.00"> </text>
<polyline fill="none" stroke="black" points="104,-120.5 104,-143.5 "/>
<text text-anchor="middle" x="117" y="-128.3" font-family="Times,serif" font-size="14.00">R</text>
<polyline fill="none" stroke="black" points="130,-120.5 130,-143.5 "/>
<text text-anchor="middle" x="140" y="-128.3" font-family="Times,serif" font-size="14.00"> </text>
</g>
<!-- node0&#45;&gt;node4 -->
<g id="edge1" class="edge"><title>node0&#45;&gt;node4</title>
<path fill="none" stroke="black" d="M151.297,-180.362C145.554,-172.431 137.557,-161.389 130.73,-151.961"/>
<polygon fill="black" stroke="black" points="133.355,-149.617 124.655,-143.571 127.685,-153.723 133.355,-149.617"/>
</g>
<!-- node1 -->
<g id="node2" class="node"><title>node1</title>
<polygon fill="none" stroke="black" points="168.5,-120.5 168.5,-143.5 233.5,-143.5 233.5,-120.5 168.5,-120.5"/>
<text text-anchor="middle" x="178.5" y="-128.3" font-family="Times,serif" font-size="14.00"> </text>
<polyline fill="none" stroke="black" points="188.5,-120.5 188.5,-143.5 "/>
<text text-anchor="middle" x="201" y="-128.3" font-family="Times,serif" font-size="14.00">E</text>
<polyline fill="none" stroke="black" points="213.5,-120.5 213.5,-143.5 "/>
<text text-anchor="middle" x="223.5" y="-128.3" font-family="Times,serif" font-size="14.00"> </text>
</g>
<!-- node0&#45;&gt;node1 -->
<g id="edge2" class="edge"><title>node0&#45;&gt;node1</title>
<path fill="none" stroke="black" d="M166.703,-180.362C172.446,-172.431 180.443,-161.389 187.27,-151.961"/>
<polygon fill="black" stroke="black" points="190.315,-153.723 193.345,-143.571 184.645,-149.617 190.315,-153.723"/>
</g>
<!-- node2 -->
<g id="node3" class="node"><title>node2</title>
<polygon fill="none" stroke="black" points="168,-60.5 168,-83.5 234,-83.5 234,-60.5 168,-60.5"/>
<text text-anchor="middle" x="178" y="-68.3" font-family="Times,serif" font-size="14.00"> </text>
<polyline fill="none" stroke="black" points="188,-60.5 188,-83.5 "/>
<text text-anchor="middle" x="201" y="-68.3" font-family="Times,serif" font-size="14.00">B</text>
<polyline fill="none" stroke="black" points="214,-60.5 214,-83.5 "/>
<text text-anchor="middle" x="224" y="-68.3" font-family="Times,serif" font-size="14.00"> </text>
</g>
<!-- node1&#45;&gt;node2 -->
<g id="edge3" class="edge"><title>node1&#45;&gt;node2</title>
<path fill="none" stroke="black" d="M201,-120.362C201,-112.922 201,-102.743 201,-93.7276"/>
<polygon fill="black" stroke="black" points="204.5,-93.5706 201,-83.5707 197.5,-93.5707 204.5,-93.5706"/>
</g>
<!-- node3 -->
<g id="node4" class="node"><title>node3</title>
<polygon fill="none" stroke="black" points="252,-60.5 252,-83.5 316,-83.5 316,-60.5 252,-60.5"/>
<text text-anchor="middle" x="262" y="-68.3" font-family="Times,serif" font-size="14.00"> </text>
<polyline fill="none" stroke="black" points="272,-60.5 272,-83.5 "/>
<text text-anchor="middle" x="284" y="-68.3" font-family="Times,serif" font-size="14.00">F</text>
<polyline fill="none" stroke="black" points="296,-60.5 296,-83.5 "/>
<text text-anchor="middle" x="306" y="-68.3" font-family="Times,serif" font-size="14.00"> </text>
</g>
<!-- node1&#45;&gt;node3 -->
<g id="edge4" class="edge"><title>node1&#45;&gt;node3</title>
<path fill="none" stroke="black" d="M216.223,-120.362C228.625,-111.696 246.346,-99.3126 260.557,-89.3819"/>
<polygon fill="black" stroke="black" points="262.681,-92.1676 268.873,-83.5707 258.671,-86.4297 262.681,-92.1676"/>
</g>
<!-- node8 -->
<g id="node9" class="node"><title>node8</title>
<polygon fill="none" stroke="black" points="126,-0.5 126,-23.5 192,-23.5 192,-0.5 126,-0.5"/>
<text text-anchor="middle" x="136" y="-8.3" font-family="Times,serif" font-size="14.00"> </text>
<polyline fill="none" stroke="black" points="146,-0.5 146,-23.5 "/>
<text text-anchor="middle" x="159" y="-8.3" font-family="Times,serif" font-size="14.00">C</text>
<polyline fill="none" stroke="black" points="172,-0.5 172,-23.5 "/>
<text text-anchor="middle" x="182" y="-8.3" font-family="Times,serif" font-size="14.00"> </text>
</g>
<!-- node2&#45;&gt;node8 -->
<g id="edge5" class="edge"><title>node2&#45;&gt;node8</title>
<path fill="none" stroke="black" d="M193.297,-60.3619C187.554,-52.4313 179.557,-41.3885 172.73,-31.9606"/>
<polygon fill="black" stroke="black" points="175.355,-29.6173 166.655,-23.5707 169.685,-33.7229 175.355,-29.6173"/>
</g>
<!-- node7 -->
<g id="node8" class="node"><title>node7</title>
<polygon fill="none" stroke="black" points="210,-0.5 210,-23.5 276,-23.5 276,-0.5 210,-0.5"/>
<text text-anchor="middle" x="220" y="-8.3" font-family="Times,serif" font-size="14.00"> </text>
<polyline fill="none" stroke="black" points="230,-0.5 230,-23.5 "/>
<text text-anchor="middle" x="243" y="-8.3" font-family="Times,serif" font-size="14.00">A</text>
<polyline fill="none" stroke="black" points="256,-0.5 256,-23.5 "/>
<text text-anchor="middle" x="266" y="-8.3" font-family="Times,serif" font-size="14.00"> </text>
</g>
<!-- node2&#45;&gt;node7 -->
<g id="edge6" class="edge"><title>node2&#45;&gt;node7</title>
<path fill="none" stroke="black" d="M208.703,-60.3619C214.446,-52.4313 222.443,-41.3885 229.27,-31.9606"/>
<polygon fill="black" stroke="black" points="232.315,-33.7229 235.345,-23.5707 226.645,-29.6173 232.315,-33.7229"/>
</g>
<!-- node6 -->
<g id="node7" class="node"><title>node6</title>
<polygon fill="none" stroke="black" points="0,-60.5 0,-83.5 66,-83.5 66,-60.5 0,-60.5"/>
<text text-anchor="middle" x="10" y="-68.3" font-family="Times,serif" font-size="14.00"> </text>
<polyline fill="none" stroke="black" points="20,-60.5 20,-83.5 "/>
<text text-anchor="middle" x="33" y="-68.3" font-family="Times,serif" font-size="14.00">Y</text>
<polyline fill="none" stroke="black" points="46,-60.5 46,-83.5 "/>
<text text-anchor="middle" x="56" y="-68.3" font-family="Times,serif" font-size="14.00"> </text>
</g>
<!-- node4&#45;&gt;node6 -->
<g id="edge7" class="edge"><title>node4&#45;&gt;node6</title>
<path fill="none" stroke="black" d="M101.593,-120.362C89.0418,-111.696 71.1078,-99.3126 56.7255,-89.3819"/>
<polygon fill="black" stroke="black" points="58.5269,-86.3725 48.3092,-83.5707 54.5495,-92.1327 58.5269,-86.3725"/>
</g>
<!-- node5 -->
<g id="node6" class="node"><title>node5</title>
<polygon fill="none" stroke="black" points="84,-60.5 84,-83.5 150,-83.5 150,-60.5 84,-60.5"/>
<text text-anchor="middle" x="94" y="-68.3" font-family="Times,serif" font-size="14.00"> </text>
<polyline fill="none" stroke="black" points="104,-60.5 104,-83.5 "/>
<text text-anchor="middle" x="117" y="-68.3" font-family="Times,serif" font-size="14.00">H</text>
<polyline fill="none" stroke="black" points="130,-60.5 130,-83.5 "/>
<text text-anchor="middle" x="140" y="-68.3" font-family="Times,serif" font-size="14.00"> </text>
</g>
<!-- node4&#45;&gt;node5 -->
<g id="edge8" class="edge"><title>node4&#45;&gt;node5</title>
<path fill="none" stroke="black" d="M117,-120.362C117,-112.922 117,-102.743 117,-93.7276"/>
<polygon fill="black" stroke="black" points="120.5,-93.5706 117,-83.5707 113.5,-93.5707 120.5,-93.5706"/>
</g>
</g>
</svg>
