<?xml version="1.0" encoding="UTF-8" standalone="no"?>
<!DOCTYPE svg PUBLIC "-//W3C//DTD SVG 1.1//EN"
 "http://www.w3.org/Graphics/SVG/1.1/DTD/svg11.dtd">
<!-- Generated by graphviz version 2.30.1 (20201013.1554)
 -->
<!-- Title: structs Pages: 1 -->
<svg width="237pt" height="162pt"
 viewBox="0.00 0.00 237.00 162.00" xmlns="http://www.w3.org/2000/svg" xmlns:xlink="http://www.w3.org/1999/xlink">
<g id="graph0" class="graph" transform="scale(1 1) rotate(0) translate(4 158)">
<title>structs</title>
<polygon fill="white" stroke="white" points="-4,5 -4,-158 234,-158 234,5 -4,5"/>
<!-- struct1 -->
<g id="node1" class="node"><title>struct1</title>
<polygon fill="none" stroke="black" points="24,-125 24,-146 50,-146 50,-125 24,-125"/>
<text text-anchor="start" x="27.5" y="-132.3" font-family="Times,serif" font-size="14.00">left</text>
<polygon fill="none" stroke="black" points="50,-125 50,-146 95,-146 95,-125 50,-125"/>
<text text-anchor="start" x="53" y="-132.3" font-family="Times,serif" font-size="14.00">middle</text>
<polygon fill="none" stroke="black" points="95,-125 95,-146 126,-146 126,-125 95,-125"/>
<text text-anchor="start" x="98" y="-132.3" font-family="Times,serif" font-size="14.00">right</text>
</g>
<!-- struct2 -->
<g id="node2" class="node"><title>struct2</title>
<polygon fill="none" stroke="black" points="8,-30 8,-51 35,-51 35,-30 8,-30"/>
<text text-anchor="start" x="11.5" y="-37.3" font-family="Times,serif" font-size="14.00">one</text>
<polygon fill="none" stroke="black" points="35,-30 35,-51 61,-51 61,-30 35,-30"/>
<text text-anchor="start" x="38" y="-37.3" font-family="Times,serif" font-size="14.00">two</text>
</g>
<!-- struct1&#45;&gt;struct2 -->
<g id="edge1" class="edge"><title>struct1:f1&#45;&gt;struct2:f0</title>
<path fill="none" stroke="black" d="M72,-124C72,-88.615 30.4746,-90.3941 22.3641,-62.2678"/>
<polygon fill="black" stroke="black" points="25.7866,-61.4519 21,-52 18.8475,-62.3739 25.7866,-61.4519"/>
</g>
<!-- struct3 -->
<g id="node3" class="node"><title>struct3</title>
<polygon fill="none" stroke="black" points="95,-4 95,-77 137,-77 137,-4 95,-4"/>
<text text-anchor="start" x="102" y="-44.3" font-family="Times,serif" font-size="14.00">hello</text>
<text text-anchor="start" x="100.5" y="-30.3" font-family="Times,serif" font-size="14.00">world</text>
<polygon fill="none" stroke="black" points="137,-52 137,-77 188,-77 188,-52 137,-52"/>
<text text-anchor="start" x="159" y="-61.3" font-family="Times,serif" font-size="14.00">b</text>
<polygon fill="none" stroke="black" points="188,-4 188,-77 205,-77 205,-4 188,-4"/>
<text text-anchor="start" x="193" y="-37.3" font-family="Times,serif" font-size="14.00">g</text>
<polygon fill="none" stroke="black" points="205,-4 205,-77 222,-77 222,-4 205,-4"/>
<text text-anchor="start" x="210" y="-37.3" font-family="Times,serif" font-size="14.00">h</text>
<polygon fill="none" stroke="black" points="137,-28 137,-52 154,-52 154,-28 137,-28"/>
<text text-anchor="start" x="142" y="-36.8" font-family="Times,serif" font-size="14.00">c</text>
<polygon fill="none" stroke="black" points="154,-28 154,-52 171,-52 171,-28 154,-28"/>
<text text-anchor="start" x="159" y="-36.8" font-family="Times,serif" font-size="14.00">d</text>
<polygon fill="none" stroke="black" points="171,-28 171,-52 188,-52 188,-28 171,-28"/>
<text text-anchor="start" x="176" y="-36.8" font-family="Times,serif" font-size="14.00">e</text>
<polygon fill="none" stroke="black" points="137,-4 137,-28 188,-28 188,-4 137,-4"/>
<text text-anchor="start" x="160" y="-12.8" font-family="Times,serif" font-size="14.00">f</text>
</g>
<!-- struct1&#45;&gt;struct3 -->
<g id="edge2" class="edge"><title>struct1:f2&#45;&gt;struct3:here</title>
<path fill="none" stroke="black" d="M111,-124C111,-96.7774 131.336,-71.1431 146.574,-55.7569"/>
<polygon fill="black" stroke="black" points="149.147,-58.1384 153.942,-48.6909 144.302,-53.086 149.147,-58.1384"/>
</g>
</g>
</svg>
