<?xml version="1.0" encoding="UTF-8" standalone="no"?>
<!DOCTYPE svg PUBLIC "-//W3C//DTD SVG 1.1//EN"
 "http://www.w3.org/Graphics/SVG/1.1/DTD/svg11.dtd">
<!-- Generated by graphviz version 2.30.1 (20201013.1554)
 -->
<!-- Title: G Pages: 1 -->
<svg width="576pt" height="257pt"
 viewBox="0.00 0.00 576.00 256.61" xmlns="http://www.w3.org/2000/svg" xmlns:xlink="http://www.w3.org/1999/xlink">
<g id="graph0" class="graph" transform="scale(0.784741 0.784741) rotate(0) translate(4 323)">
<title>G</title>
<polygon fill="white" stroke="white" points="-4,5 -4,-323 731,-323 731,5 -4,5"/>
<!-- LR_0 -->
<g id="node1" class="node"><title>LR_0</title>
<ellipse fill="none" stroke="black" cx="35" cy="-113" rx="30.5892" ry="30.5892"/>
<ellipse fill="none" stroke="black" cx="35" cy="-113" rx="34.5946" ry="34.5946"/>
<text text-anchor="middle" x="35" y="-109.3" font-family="Times,serif" font-size="14.00">LR_0</text>
</g>
<!-- LR_2 -->
<g id="node5" class="node"><title>LR_2</title>
<ellipse fill="none" stroke="black" cx="171" cy="-156" rx="30.5947" ry="30.5947"/>
<text text-anchor="middle" x="171" y="-152.3" font-family="Times,serif" font-size="14.00">LR_2</text>
</g>
<!-- LR_0&#45;&gt;LR_2 -->
<g id="edge1" class="edge"><title>LR_0&#45;&gt;LR_2</title>
<path fill="none" stroke="black" d="M68.0963,-123.3C87.3926,-129.492 112.048,-137.403 132.273,-143.894"/>
<polygon fill="black" stroke="black" points="131.212,-147.229 141.803,-146.952 133.351,-140.564 131.212,-147.229"/>
<text text-anchor="middle" x="105" y="-143.8" font-family="Times,serif" font-size="14.00">SS(B)</text>
</g>
<!-- LR_1 -->
<g id="node6" class="node"><title>LR_1</title>
<ellipse fill="none" stroke="black" cx="171" cy="-56" rx="30.5947" ry="30.5947"/>
<text text-anchor="middle" x="171" y="-52.3" font-family="Times,serif" font-size="14.00">LR_1</text>
</g>
<!-- LR_0&#45;&gt;LR_1 -->
<g id="edge2" class="edge"><title>LR_0&#45;&gt;LR_1</title>
<path fill="none" stroke="black" d="M67.0791,-99.7798C86.8353,-91.376 112.508,-80.4557 133.27,-71.6241"/>
<polygon fill="black" stroke="black" points="134.89,-74.7386 142.722,-67.6035 132.149,-68.2972 134.89,-74.7386"/>
<text text-anchor="middle" x="105" y="-93.8" font-family="Times,serif" font-size="14.00">SS(S)</text>
</g>
<!-- LR_3 -->
<g id="node2" class="node"><title>LR_3</title>
<ellipse fill="none" stroke="black" cx="317" cy="-34" rx="30.5892" ry="30.5892"/>
<ellipse fill="none" stroke="black" cx="317" cy="-34" rx="34.5946" ry="34.5946"/>
<text text-anchor="middle" x="317" y="-30.3" font-family="Times,serif" font-size="14.00">LR_3</text>
</g>
<!-- LR_4 -->
<g id="node3" class="node"><title>LR_4</title>
<ellipse fill="none" stroke="black" cx="317" cy="-121" rx="30.5892" ry="30.5892"/>
<ellipse fill="none" stroke="black" cx="317" cy="-121" rx="34.5946" ry="34.5946"/>
<text text-anchor="middle" x="317" y="-117.3" font-family="Times,serif" font-size="14.00">LR_4</text>
</g>
<!-- LR_8 -->
<g id="node4" class="node"><title>LR_8</title>
<ellipse fill="none" stroke="black" cx="691" cy="-236" rx="30.5892" ry="30.5892"/>
<ellipse fill="none" stroke="black" cx="691" cy="-236" rx="34.5946" ry="34.5946"/>
<text text-anchor="middle" x="691" y="-232.3" font-family="Times,serif" font-size="14.00">LR_8</text>
</g>
<!-- LR_6 -->
<g id="node7" class="node"><title>LR_6</title>
<ellipse fill="none" stroke="black" cx="317" cy="-256" rx="30.5947" ry="30.5947"/>
<text text-anchor="middle" x="317" y="-252.3" font-family="Times,serif" font-size="14.00">LR_6</text>
</g>
<!-- LR_8&#45;&gt;LR_6 -->
<g id="edge13" class="edge"><title>LR_8&#45;&gt;LR_6</title>
<path fill="none" stroke="black" d="M656.827,-241.652C614.537,-248.546 539.093,-259.799 474,-264 446.502,-265.775 439.531,-265.169 412,-264 394.112,-263.24 374.362,-261.671 357.601,-260.121"/>
<polygon fill="black" stroke="black" points="357.881,-256.632 347.594,-259.167 357.217,-263.601 357.881,-256.632"/>
<text text-anchor="middle" x="504" y="-266.8" font-family="Times,serif" font-size="14.00">S(b)</text>
</g>
<!-- LR_5 -->
<g id="node8" class="node"><title>LR_5</title>
<ellipse fill="none" stroke="black" cx="443" cy="-192" rx="30.5947" ry="30.5947"/>
<text text-anchor="middle" x="443" y="-188.3" font-family="Times,serif" font-size="14.00">LR_5</text>
</g>
<!-- LR_8&#45;&gt;LR_5 -->
<g id="edge14" class="edge"><title>LR_8&#45;&gt;LR_5</title>
<path fill="none" stroke="black" d="M656.654,-230.643C617.249,-224.227 549.737,-212.968 492,-202 489.002,-201.431 485.903,-200.825 482.79,-200.203"/>
<polygon fill="black" stroke="black" points="483.4,-196.756 472.903,-198.194 482.005,-203.616 483.4,-196.756"/>
<text text-anchor="middle" x="565" y="-224.8" font-family="Times,serif" font-size="14.00">S(a)</text>
</g>
<!-- LR_2&#45;&gt;LR_6 -->
<g id="edge4" class="edge"><title>LR_2&#45;&gt;LR_6</title>
<path fill="none" stroke="black" d="M191.151,-178.999C199.431,-188.091 209.599,-198.208 220,-206 238.186,-219.625 260.61,-231.534 279.212,-240.308"/>
<polygon fill="black" stroke="black" points="278.001,-243.604 288.548,-244.604 280.926,-237.244 278.001,-243.604"/>
<text text-anchor="middle" x="242" y="-236.8" font-family="Times,serif" font-size="14.00">SS(b)</text>
</g>
<!-- LR_2&#45;&gt;LR_5 -->
<g id="edge5" class="edge"><title>LR_2&#45;&gt;LR_5</title>
<path fill="none" stroke="black" d="M201.436,-160.364C207.569,-161.253 213.994,-162.17 220,-163 283.805,-171.819 358.029,-181.373 402.447,-187.014"/>
<polygon fill="black" stroke="black" points="402.174,-190.507 412.535,-188.293 403.055,-183.563 402.174,-190.507"/>
<text text-anchor="middle" x="317" y="-184.8" font-family="Times,serif" font-size="14.00">SS(a)</text>
</g>
<!-- LR_2&#45;&gt;LR_4 -->
<g id="edge6" class="edge"><title>LR_2&#45;&gt;LR_4</title>
<path fill="none" stroke="black" d="M200.794,-149.001C221.528,-143.962 249.847,-137.079 273.22,-131.398"/>
<polygon fill="black" stroke="black" points="274.339,-134.728 283.23,-128.965 272.686,-127.926 274.339,-134.728"/>
<text text-anchor="middle" x="242" y="-147.8" font-family="Times,serif" font-size="14.00">S(A)</text>
</g>
<!-- LR_1&#45;&gt;LR_3 -->
<g id="edge3" class="edge"><title>LR_1&#45;&gt;LR_3</title>
<path fill="none" stroke="black" d="M201.488,-51.4949C221.967,-48.3662 249.595,-44.1453 272.582,-40.6333"/>
<polygon fill="black" stroke="black" points="273.418,-44.0462 282.775,-39.0761 272.361,-37.1265 273.418,-44.0462"/>
<text text-anchor="middle" x="242" y="-52.8" font-family="Times,serif" font-size="14.00">S($end)</text>
</g>
<!-- LR_6&#45;&gt;LR_6 -->
<g id="edge9" class="edge"><title>LR_6&#45;&gt;LR_6</title>
<path fill="none" stroke="black" d="M305.047,-284.103C304.516,-294.969 308.5,-304 317,-304 322.578,-304 326.212,-300.111 327.9,-294.366"/>
<polygon fill="black" stroke="black" points="331.414,-294.408 328.953,-284.103 324.451,-293.694 331.414,-294.408"/>
<text text-anchor="middle" x="317" y="-307.8" font-family="Times,serif" font-size="14.00">S(b)</text>
</g>
<!-- LR_6&#45;&gt;LR_5 -->
<g id="edge10" class="edge"><title>LR_6&#45;&gt;LR_5</title>
<path fill="none" stroke="black" d="M344.601,-242.27C362.663,-232.948 386.751,-220.515 406.454,-210.347"/>
<polygon fill="black" stroke="black" points="408.162,-213.404 415.443,-205.707 404.951,-207.183 408.162,-213.404"/>
<text text-anchor="middle" x="382" y="-231.8" font-family="Times,serif" font-size="14.00">S(a)</text>
</g>
<!-- LR_7 -->
<g id="node9" class="node"><title>LR_7</title>
<ellipse fill="none" stroke="black" cx="565" cy="-169" rx="30.5947" ry="30.5947"/>
<text text-anchor="middle" x="565" y="-165.3" font-family="Times,serif" font-size="14.00">LR_7</text>
</g>
<!-- LR_5&#45;&gt;LR_7 -->
<g id="edge7" class="edge"><title>LR_5&#45;&gt;LR_7</title>
<path fill="none" stroke="black" d="M473.049,-186.432C488.558,-183.46 507.867,-179.759 524.699,-176.533"/>
<polygon fill="black" stroke="black" points="525.641,-179.916 534.803,-174.596 524.323,-173.041 525.641,-179.916"/>
<text text-anchor="middle" x="504" y="-186.8" font-family="Times,serif" font-size="14.00">S(b)</text>
</g>
<!-- LR_5&#45;&gt;LR_5 -->
<g id="edge8" class="edge"><title>LR_5&#45;&gt;LR_5</title>
<path fill="none" stroke="black" d="M431.775,-220.581C431.407,-231.232 435.148,-240 443,-240 448.153,-240 451.535,-236.224 453.148,-230.618"/>
<polygon fill="black" stroke="black" points="456.638,-230.898 454.225,-220.581 449.678,-230.15 456.638,-230.898"/>
<text text-anchor="middle" x="443" y="-243.8" font-family="Times,serif" font-size="14.00">S(a)</text>
</g>
<!-- LR_7&#45;&gt;LR_8 -->
<g id="edge11" class="edge"><title>LR_7&#45;&gt;LR_8</title>
<path fill="none" stroke="black" d="M592.41,-182.752C606.061,-189.908 622.968,-198.843 638,-207 642.484,-209.433 647.173,-212.007 651.82,-214.575"/>
<polygon fill="black" stroke="black" points="650.198,-217.678 660.64,-219.471 653.595,-211.558 650.198,-217.678"/>
<text text-anchor="middle" x="626" y="-210.8" font-family="Times,serif" font-size="14.00">S(b)</text>
</g>
<!-- LR_7&#45;&gt;LR_5 -->
<g id="edge12" class="edge"><title>LR_7&#45;&gt;LR_5</title>
<path fill="none" stroke="black" d="M535.501,-160.07C522.08,-157.216 505.986,-155.765 492,-160 486.35,-161.711 480.758,-164.33 475.496,-167.348"/>
<polygon fill="black" stroke="black" points="473.585,-164.415 467,-172.715 477.324,-170.333 473.585,-164.415"/>
<text text-anchor="middle" x="504" y="-163.8" font-family="Times,serif" font-size="14.00">S(a)</text>
</g>
</g>
</svg>
