<?xml version="1.0" encoding="UTF-8" standalone="no"?>
<!DOCTYPE svg PUBLIC "-//W3C//DTD SVG 1.1//EN"
 "http://www.w3.org/Graphics/SVG/1.1/DTD/svg11.dtd">
<!-- Generated by graphviz version 2.30.1 (20201013.1554)
 -->
<!-- Title: G Pages: 1 -->
<svg width="701pt" height="768pt"
 viewBox="0.00 0.00 701.00 768.00" xmlns="http://www.w3.org/2000/svg" xmlns:xlink="http://www.w3.org/1999/xlink">
<g id="graph0" class="graph" transform="scale(1 1) rotate(0) translate(4 764)">
<title>G</title>
<polygon fill="white" stroke="white" points="-4,5 -4,-764 698,-764 698,5 -4,5"/>
<!-- Structured\nData\n(ODBC, CSV, XLS) -->
<g id="node1" class="node"><title>Structured\nData\n(ODBC, CSV, XLS)</title>
<polygon fill="none" stroke="black" points="128,-632.5 4,-632.5 0,-628.5 0,-579.5 124,-579.5 128,-583.5 128,-632.5"/>
<polyline fill="none" stroke="black" points="124,-628.5 0,-628.5 "/>
<polyline fill="none" stroke="black" points="124,-628.5 124,-579.5 "/>
<polyline fill="none" stroke="black" points="124,-628.5 128,-632.5 "/>
<text text-anchor="middle" x="64" y="-617.3" font-family="Times,serif" font-size="14.00">Structured</text>
<text text-anchor="middle" x="64" y="-602.3" font-family="Times,serif" font-size="14.00">Data</text>
<text text-anchor="middle" x="64" y="-587.3" font-family="Times,serif" font-size="14.00">(ODBC, CSV, XLS)</text>
</g>
<!-- 4Quant\nAnalytics\nEngine -->
<g id="node6" class="node"><title>4Quant\nAnalytics\nEngine</title>
<ellipse fill="none" stroke="black" cx="278" cy="-468" rx="48.125" ry="37.4533"/>
<text text-anchor="middle" x="278" y="-479.3" font-family="Times,serif" font-size="14.00">4Quant</text>
<text text-anchor="middle" x="278" y="-464.3" font-family="Times,serif" font-size="14.00">Analytics</text>
<text text-anchor="middle" x="278" y="-449.3" font-family="Times,serif" font-size="14.00">Engine</text>
</g>
<!-- Structured\nData\n(ODBC, CSV, XLS)&#45;&gt;4Quant\nAnalytics\nEngine -->
<g id="edge1" class="edge"><title>Structured\nData\n(ODBC, CSV, XLS)&#45;&gt;4Quant\nAnalytics\nEngine</title>
<path fill="none" stroke="black" d="M104.252,-579.419C140.681,-556.268 194.296,-522.195 232.318,-498.031"/>
<polygon fill="black" stroke="black" points="234.583,-500.739 241.145,-492.422 230.828,-494.831 234.583,-500.739"/>
<text text-anchor="middle" x="209" y="-535.3" font-family="Times,serif" font-size="14.00">Tables</text>
</g>
<!-- Quasistructured\nData\n(PACS, RIS, JSON) -->
<g id="node2" class="node"><title>Quasistructured\nData\n(PACS, RIS, JSON)</title>
<polygon fill="none" stroke="black" points="271.25,-632.5 150.75,-632.5 146.75,-628.5 146.75,-579.5 267.25,-579.5 271.25,-583.5 271.25,-632.5"/>
<polyline fill="none" stroke="black" points="267.25,-628.5 146.75,-628.5 "/>
<polyline fill="none" stroke="black" points="267.25,-628.5 267.25,-579.5 "/>
<polyline fill="none" stroke="black" points="267.25,-628.5 271.25,-632.5 "/>
<text text-anchor="middle" x="209" y="-617.3" font-family="Times,serif" font-size="14.00">Quasistructured</text>
<text text-anchor="middle" x="209" y="-602.3" font-family="Times,serif" font-size="14.00">Data</text>
<text text-anchor="middle" x="209" y="-587.3" font-family="Times,serif" font-size="14.00">(PACS, RIS, JSON)</text>
</g>
<!-- Quasistructured\nData\n(PACS, RIS, JSON)&#45;&gt;4Quant\nAnalytics\nEngine -->
<g id="edge2" class="edge"><title>Quasistructured\nData\n(PACS, RIS, JSON)&#45;&gt;4Quant\nAnalytics\nEngine</title>
<path fill="none" stroke="black" d="M221.978,-579.419C231.543,-560.568 244.781,-534.474 255.988,-512.386"/>
<polygon fill="black" stroke="black" points="259.246,-513.699 260.65,-503.198 253.004,-510.532 259.246,-513.699"/>
<text text-anchor="middle" x="278" y="-542.8" font-family="Times,serif" font-size="14.00">Key&#45;Value</text>
<text text-anchor="middle" x="278" y="-527.8" font-family="Times,serif" font-size="14.00">Stores</text>
</g>
<!-- Streaming\nData Sources\n(MQ, Kafka, IoT) -->
<g id="node3" class="node"><title>Streaming\nData Sources\n(MQ, Kafka, IoT)</title>
<polygon fill="none" stroke="black" points="404,-632.5 294,-632.5 290,-628.5 290,-579.5 400,-579.5 404,-583.5 404,-632.5"/>
<polyline fill="none" stroke="black" points="400,-628.5 290,-628.5 "/>
<polyline fill="none" stroke="black" points="400,-628.5 400,-579.5 "/>
<polyline fill="none" stroke="black" points="400,-628.5 404,-632.5 "/>
<text text-anchor="middle" x="347" y="-617.3" font-family="Times,serif" font-size="14.00">Streaming</text>
<text text-anchor="middle" x="347" y="-602.3" font-family="Times,serif" font-size="14.00">Data Sources</text>
<text text-anchor="middle" x="347" y="-587.3" font-family="Times,serif" font-size="14.00">(MQ, Kafka, IoT)</text>
</g>
<!-- Streaming\nData Sources\n(MQ, Kafka, IoT)&#45;&gt;4Quant\nAnalytics\nEngine -->
<g id="edge6" class="edge"><title>Streaming\nData Sources\n(MQ, Kafka, IoT)&#45;&gt;4Quant\nAnalytics\nEngine</title>
<path fill="none" stroke="black" stroke-dasharray="5,2" d="M335.971,-579.154C328.926,-563.092 319.382,-542.123 310,-524 307.799,-519.748 305.425,-515.359 303.001,-511.001"/>
<polygon fill="black" stroke="black" points="305.966,-509.133 297.994,-502.155 299.874,-512.582 305.966,-509.133"/>
<text text-anchor="middle" x="351.5" y="-542.8" font-family="Times,serif" font-size="14.00">Minibatch</text>
<text text-anchor="middle" x="351.5" y="-527.8" font-family="Times,serif" font-size="14.00">Datasets</text>
</g>
<!-- Unstructured\nData\n(Text, DOCX) -->
<g id="node4" class="node"><title>Unstructured\nData\n(Text, DOCX)</title>
<polygon fill="none" stroke="black" points="521,-759.5 431,-759.5 427,-755.5 427,-706.5 517,-706.5 521,-710.5 521,-759.5"/>
<polyline fill="none" stroke="black" points="517,-755.5 427,-755.5 "/>
<polyline fill="none" stroke="black" points="517,-755.5 517,-706.5 "/>
<polyline fill="none" stroke="black" points="517,-755.5 521,-759.5 "/>
<text text-anchor="middle" x="474" y="-744.3" font-family="Times,serif" font-size="14.00">Unstructured</text>
<text text-anchor="middle" x="474" y="-729.3" font-family="Times,serif" font-size="14.00">Data</text>
<text text-anchor="middle" x="474" y="-714.3" font-family="Times,serif" font-size="14.00">(Text, DOCX)</text>
</g>
<!-- NLP Processing\n(Word2Vec,\nBag of Words,\nParseNet) -->
<g id="node5" class="node"><title>NLP Processing\n(Word2Vec,\nBag of Words,\nParseNet)</title>
<polygon fill="none" stroke="black" points="526,-640 426,-640 422,-636 422,-572 522,-572 526,-576 526,-640"/>
<polyline fill="none" stroke="black" points="522,-636 422,-636 "/>
<polyline fill="none" stroke="black" points="522,-636 522,-572 "/>
<polyline fill="none" stroke="black" points="522,-636 526,-640 "/>
<text text-anchor="middle" x="474" y="-624.8" font-family="Times,serif" font-size="14.00">NLP Processing</text>
<text text-anchor="middle" x="474" y="-609.8" font-family="Times,serif" font-size="14.00">(Word2Vec,</text>
<text text-anchor="middle" x="474" y="-594.8" font-family="Times,serif" font-size="14.00">Bag of Words,</text>
<text text-anchor="middle" x="474" y="-579.8" font-family="Times,serif" font-size="14.00">ParseNet)</text>
</g>
<!-- Unstructured\nData\n(Text, DOCX)&#45;&gt;NLP Processing\n(Word2Vec,\nBag of Words,\nParseNet) -->
<g id="edge3" class="edge"><title>Unstructured\nData\n(Text, DOCX)&#45;&gt;NLP Processing\n(Word2Vec,\nBag of Words,\nParseNet)</title>
<path fill="none" stroke="black" d="M445.777,-706.164C441.368,-700.636 437.462,-694.49 435,-688 430.27,-675.534 430.725,-670.629 435,-658 436.054,-654.885 437.384,-651.812 438.91,-648.81"/>
<polygon fill="black" stroke="black" points="442,-650.459 444.006,-640.056 435.951,-646.938 442,-650.459"/>
<text text-anchor="middle" x="463.5" y="-676.8" font-family="Times,serif" font-size="14.00">Keyword</text>
<text text-anchor="middle" x="463.5" y="-661.8" font-family="Times,serif" font-size="14.00">Extraction</text>
</g>
<!-- Unstructured\nData\n(Text, DOCX)&#45;&gt;NLP Processing\n(Word2Vec,\nBag of Words,\nParseNet) -->
<g id="edge4" class="edge"><title>Unstructured\nData\n(Text, DOCX)&#45;&gt;NLP Processing\n(Word2Vec,\nBag of Words,\nParseNet)</title>
<path fill="none" stroke="black" d="M486.388,-706.46C488.712,-700.533 490.79,-694.155 492,-688 494.573,-674.917 494.251,-671.142 492,-658 491.54,-655.316 490.954,-652.586 490.275,-649.854"/>
<polygon fill="black" stroke="black" points="493.583,-648.693 487.475,-640.036 486.852,-650.613 493.583,-648.693"/>
<text text-anchor="middle" x="517.5" y="-669.3" font-family="Times,serif" font-size="14.00">Category</text>
</g>
<!-- NLP Processing\n(Word2Vec,\nBag of Words,\nParseNet)&#45;&gt;4Quant\nAnalytics\nEngine -->
<g id="edge5" class="edge"><title>NLP Processing\n(Word2Vec,\nBag of Words,\nParseNet)&#45;&gt;4Quant\nAnalytics\nEngine</title>
<path fill="none" stroke="black" d="M441.096,-571.677C424.756,-556.126 404.219,-538.003 384,-524 366.801,-512.088 346.691,-501.022 328.637,-491.984"/>
<polygon fill="black" stroke="black" points="329.928,-488.719 319.41,-487.45 326.841,-495.002 329.928,-488.719"/>
<text text-anchor="middle" x="448" y="-542.8" font-family="Times,serif" font-size="14.00">Key&#45;Value</text>
<text text-anchor="middle" x="448" y="-527.8" font-family="Times,serif" font-size="14.00">Store</text>
</g>
<!-- Apache Spark -->
<g id="node7" class="node"><title>Apache Spark</title>
<polygon fill="none" stroke="black" points="155.25,-326.5 62.75,-326.5 62.75,-233.5 155.25,-233.5 155.25,-326.5"/>
<text text-anchor="middle" x="109" y="-276.3" font-family="Times,serif" font-size="14.00">Apache Spark</text>
</g>
<!-- 4Quant\nAnalytics\nEngine&#45;&gt;Apache Spark -->
<g id="edge7" class="edge"><title>4Quant\nAnalytics\nEngine&#45;&gt;Apache Spark</title>
<path fill="none" stroke="black" d="M229.804,-465.677C190.523,-461.747 137.25,-449.294 110,-412 94.4918,-390.776 92.7828,-362.015 95.574,-336.848"/>
<polygon fill="black" stroke="black" points="99.0773,-337.061 96.9597,-326.68 92.1414,-336.116 99.0773,-337.061"/>
<text text-anchor="middle" x="140.5" y="-393.3" font-family="Times,serif" font-size="14.00">Redudant</text>
<text text-anchor="middle" x="140.5" y="-378.3" font-family="Times,serif" font-size="14.00">Distributed</text>
<text text-anchor="middle" x="140.5" y="-363.3" font-family="Times,serif" font-size="14.00">Datasets</text>
</g>
<!-- 4Quant\nAnalytics\nEngine&#45;&gt;Apache Spark -->
<g id="edge8" class="edge"><title>4Quant\nAnalytics\nEngine&#45;&gt;Apache Spark</title>
<path fill="none" stroke="black" stroke-dasharray="5,2" d="M237.063,-447.727C221.512,-438.714 204.737,-426.695 193,-412 175.274,-389.807 185.472,-376.439 171,-352 167.583,-346.229 163.67,-340.486 159.509,-334.91"/>
<polygon fill="black" stroke="black" points="162.164,-332.623 153.263,-326.876 156.638,-336.919 162.164,-332.623"/>
<text text-anchor="middle" x="223.5" y="-400.8" font-family="Times,serif" font-size="14.00">Streaming</text>
<text text-anchor="middle" x="223.5" y="-385.8" font-family="Times,serif" font-size="14.00">Reduntant</text>
<text text-anchor="middle" x="223.5" y="-370.8" font-family="Times,serif" font-size="14.00">Distributed</text>
<text text-anchor="middle" x="223.5" y="-355.8" font-family="Times,serif" font-size="14.00">Datasets</text>
</g>
<!-- Image\nBot -->
<g id="node12" class="node"><title>Image\nBot</title>
<polygon fill="none" stroke="black" points="244,-333.981 173.434,-253.009 314.566,-253.009 244,-333.981"/>
<text text-anchor="middle" x="244" y="-283.8" font-family="Times,serif" font-size="14.00">Image</text>
<text text-anchor="middle" x="244" y="-268.8" font-family="Times,serif" font-size="14.00">Bot</text>
</g>
<!-- 4Quant\nAnalytics\nEngine&#45;&gt;Image\nBot -->
<g id="edge13" class="edge"><title>4Quant\nAnalytics\nEngine&#45;&gt;Image\nBot</title>
<path fill="none" stroke="black" stroke-dasharray="5,2" d="M266.09,-431.577C260.037,-405.914 253.279,-370.607 248.553,-340.632"/>
<polygon fill="black" stroke="black" points="252.004,-340.048 247.031,-330.693 245.085,-341.107 252.004,-340.048"/>
</g>
<!-- Genomics\nBot -->
<g id="node13" class="node"><title>Genomics\nBot</title>
<polygon fill="none" stroke="black" points="435,-333.981 333.764,-253.009 536.236,-253.009 435,-333.981"/>
<text text-anchor="middle" x="435" y="-283.8" font-family="Times,serif" font-size="14.00">Genomics</text>
<text text-anchor="middle" x="435" y="-268.8" font-family="Times,serif" font-size="14.00">Bot</text>
</g>
<!-- 4Quant\nAnalytics\nEngine&#45;&gt;Genomics\nBot -->
<g id="edge15" class="edge"><title>4Quant\nAnalytics\nEngine&#45;&gt;Genomics\nBot</title>
<path fill="none" stroke="black" stroke-dasharray="5,2" d="M303.925,-436.286C330.614,-404.667 372.308,-355.272 401.486,-320.705"/>
<polygon fill="black" stroke="black" points="404.472,-322.593 408.248,-312.694 399.123,-318.078 404.472,-322.593"/>
</g>
<!-- DxRx\nBot -->
<g id="node14" class="node"><title>DxRx\nBot</title>
<polygon fill="none" stroke="black" points="624,-333.981 555.054,-253.009 692.946,-253.009 624,-333.981"/>
<text text-anchor="middle" x="624" y="-283.8" font-family="Times,serif" font-size="14.00">DxRx</text>
<text text-anchor="middle" x="624" y="-268.8" font-family="Times,serif" font-size="14.00">Bot</text>
</g>
<!-- 4Quant\nAnalytics\nEngine&#45;&gt;DxRx\nBot -->
<g id="edge16" class="edge"><title>4Quant\nAnalytics\nEngine&#45;&gt;DxRx\nBot</title>
<path fill="none" stroke="black" stroke-dasharray="5,2" d="M317.38,-446.377C368.756,-421.597 460.558,-377.852 536,-334 552.114,-324.633 569.373,-313.226 584.407,-303.396"/>
<polygon fill="black" stroke="black" points="586.504,-306.207 592.976,-297.819 582.686,-300.34 586.504,-306.207"/>
</g>
<!-- Distributed\nHadoop\nFilesystem (HDFS) -->
<g id="node8" class="node"><title>Distributed\nHadoop\nFilesystem (HDFS)</title>
<polygon fill="none" stroke="black" points="132,-129.5 14,-129.5 10,-125.5 10,-76.5 128,-76.5 132,-80.5 132,-129.5"/>
<polyline fill="none" stroke="black" points="128,-125.5 10,-125.5 "/>
<polyline fill="none" stroke="black" points="128,-125.5 128,-76.5 "/>
<polyline fill="none" stroke="black" points="128,-125.5 132,-129.5 "/>
<text text-anchor="middle" x="71" y="-114.3" font-family="Times,serif" font-size="14.00">Distributed</text>
<text text-anchor="middle" x="71" y="-99.3" font-family="Times,serif" font-size="14.00">Hadoop</text>
<text text-anchor="middle" x="71" y="-84.3" font-family="Times,serif" font-size="14.00">Filesystem (HDFS)</text>
</g>
<!-- Apache Spark&#45;&gt;Distributed\nHadoop\nFilesystem (HDFS) -->
<g id="edge9" class="edge"><title>Apache Spark&#45;&gt;Distributed\nHadoop\nFilesystem (HDFS)</title>
<path fill="none" stroke="black" stroke-width="3" d="M99.1151,-233.478C92.7388,-204.113 84.5675,-166.482 78.6793,-139.365"/>
<polygon fill="black" stroke="black" points="82.0852,-138.556 76.5428,-129.526 75.2446,-140.041 82.0852,-138.556"/>
<text text-anchor="middle" x="124.5" y="-196.8" font-family="Times,serif" font-size="14.00">Parquet</text>
<text text-anchor="middle" x="124.5" y="-181.8" font-family="Times,serif" font-size="14.00">Distributed</text>
<text text-anchor="middle" x="124.5" y="-166.8" font-family="Times,serif" font-size="14.00">Column</text>
<text text-anchor="middle" x="124.5" y="-151.8" font-family="Times,serif" font-size="14.00">Store</text>
</g>
<!-- ODBC&#45;Hive\nData View -->
<g id="node9" class="node"><title>ODBC&#45;Hive\nData View</title>
<polygon fill="none" stroke="black" points="233.25,-122 154.75,-122 150.75,-118 150.75,-84 229.25,-84 233.25,-88 233.25,-122"/>
<polyline fill="none" stroke="black" points="229.25,-118 150.75,-118 "/>
<polyline fill="none" stroke="black" points="229.25,-118 229.25,-84 "/>
<polyline fill="none" stroke="black" points="229.25,-118 233.25,-122 "/>
<text text-anchor="middle" x="192" y="-106.8" font-family="Times,serif" font-size="14.00">ODBC&#45;Hive</text>
<text text-anchor="middle" x="192" y="-91.8" font-family="Times,serif" font-size="14.00">Data View</text>
</g>
<!-- Apache Spark&#45;&gt;ODBC&#45;Hive\nData View -->
<g id="edge10" class="edge"><title>Apache Spark&#45;&gt;ODBC&#45;Hive\nData View</title>
<path fill="none" stroke="black" stroke-width="2" d="M140.794,-233.319C145.886,-225.082 150.841,-216.43 155,-208 167.242,-183.187 177.444,-153.284 184.013,-131.923"/>
<polygon fill="black" stroke="black" points="187.414,-132.767 186.94,-122.183 180.71,-130.753 187.414,-132.767"/>
</g>
<!-- Excel Workbook\nSummaries -->
<g id="node10" class="node"><title>Excel Workbook\nSummaries</title>
<polygon fill="none" stroke="black" points="189,-38 81,-38 81,-0 189,-0 189,-38"/>
<text text-anchor="middle" x="135" y="-22.8" font-family="Times,serif" font-size="14.00">Excel Workbook</text>
<text text-anchor="middle" x="135" y="-7.8" font-family="Times,serif" font-size="14.00">Summaries</text>
</g>
<!-- ODBC&#45;Hive\nData View&#45;&gt;Excel Workbook\nSummaries -->
<g id="edge11" class="edge"><title>ODBC&#45;Hive\nData View&#45;&gt;Excel Workbook\nSummaries</title>
<path fill="none" stroke="black" stroke-width="2" d="M179.35,-83.8015C171.749,-72.8668 161.942,-58.7593 153.484,-46.5916"/>
<polygon fill="black" stroke="black" points="156.196,-44.361 147.615,-38.1476 150.449,-48.3564 156.196,-44.361"/>
</g>
<!-- SAP HANA -->
<g id="node11" class="node"><title>SAP HANA</title>
<text text-anchor="middle" x="249" y="-15.3" font-family="Times,serif" font-size="14.00">SAP HANA</text>
</g>
<!-- ODBC&#45;Hive\nData View&#45;&gt;SAP HANA -->
<g id="edge12" class="edge"><title>ODBC&#45;Hive\nData View&#45;&gt;SAP HANA</title>
<path fill="none" stroke="black" d="M204.65,-83.8015C212.462,-72.5631 222.604,-57.9731 231.217,-45.5823"/>
<polygon fill="black" stroke="black" points="234.33,-47.2366 237.164,-37.0278 228.582,-43.2412 234.33,-47.2366"/>
</g>
<!-- Image\nBot&#45;&gt;4Quant\nAnalytics\nEngine -->
<g id="edge14" class="edge"><title>Image\nBot&#45;&gt;4Quant\nAnalytics\nEngine</title>
<path fill="none" stroke="black" stroke-dasharray="5,2" d="M256.65,-319.592C263.398,-348.796 270.873,-389.04 275.378,-420.1"/>
<polygon fill="black" stroke="black" points="271.945,-420.828 276.786,-430.252 278.879,-419.866 271.945,-420.828"/>
</g>
<!-- DxRx\nBot&#45;&gt;4Quant\nAnalytics\nEngine -->
<g id="edge17" class="edge"><title>DxRx\nBot&#45;&gt;4Quant\nAnalytics\nEngine</title>
<path fill="none" stroke="black" stroke-dasharray="5,2" d="M598.737,-304.938C585.586,-314.403 569.278,-325.119 554,-334 478.452,-377.914 386.496,-421.72 330.008,-446.482"/>
<polygon fill="black" stroke="black" points="328.346,-443.388 320.57,-450.585 331.136,-449.808 328.346,-443.388"/>
</g>
</g>
</svg>
