<?xml version="1.0" encoding="UTF-8" standalone="no"?>
<!DOCTYPE svg PUBLIC "-//W3C//DTD SVG 1.1//EN"
 "http://www.w3.org/Graphics/SVG/1.1/DTD/svg11.dtd">
<!-- Generated by graphviz version 2.30.1 (20201013.1554)
 -->
<!-- Title: G Pages: 1 -->
<svg width="394pt" height="846pt"
 viewBox="0.00 0.00 394.00 846.00" xmlns="http://www.w3.org/2000/svg" xmlns:xlink="http://www.w3.org/1999/xlink">
<g id="graph0" class="graph" transform="scale(1 1) rotate(0) translate(4 842)">
<title>G</title>
<polygon fill="white" stroke="white" points="-4,5 -4,-842 391,-842 391,5 -4,5"/>
<!-- Patient\n(Suspicious) -->
<g id="node1" class="node"><title>Patient\n(Suspicious)</title>
<polygon fill="none" stroke="black" points="159,-838 87,-838 87,-842 75,-842 75,-800 159,-800 159,-838"/>
<polyline fill="none" stroke="black" points="75,-838 87,-838 "/>
<text text-anchor="middle" x="117" y="-822.8" font-family="Times,serif" font-size="14.00">Patient</text>
<text text-anchor="middle" x="117" y="-807.8" font-family="Times,serif" font-size="14.00">(Suspicious)</text>
</g>
<!-- General\nPractioner -->
<g id="node4" class="node"><title>General\nPractioner</title>
<polygon fill="none" stroke="black" points="153,-734 81,-734 81,-696 153,-696 153,-734"/>
<text text-anchor="middle" x="117" y="-718.8" font-family="Times,serif" font-size="14.00">General</text>
<text text-anchor="middle" x="117" y="-703.8" font-family="Times,serif" font-size="14.00">Practioner</text>
</g>
<!-- Patient\n(Suspicious)&#45;&gt;General\nPractioner -->
<g id="edge2" class="edge"><title>Patient\n(Suspicious)&#45;&gt;General\nPractioner</title>
<path fill="none" stroke="black" d="M117,-799.764C117,-784.317 117,-761.915 117,-744.164"/>
<polygon fill="black" stroke="black" points="120.5,-744.078 117,-734.078 113.5,-744.078 120.5,-744.078"/>
<text text-anchor="middle" x="144" y="-770.8" font-family="Times,serif" font-size="14.00">Coughing</text>
<text text-anchor="middle" x="144" y="-755.8" font-family="Times,serif" font-size="14.00">Blood</text>
</g>
<!-- Chest CT -->
<g id="node2" class="node"><title>Chest CT</title>
<polygon fill="none" stroke="black" points="90,-630 26,-630 22,-626 22,-594 86,-594 90,-598 90,-630"/>
<polyline fill="none" stroke="black" points="86,-626 22,-626 "/>
<polyline fill="none" stroke="black" points="86,-626 86,-594 "/>
<polyline fill="none" stroke="black" points="86,-626 90,-630 "/>
<text text-anchor="middle" x="56" y="-608.3" font-family="Times,serif" font-size="14.00">Chest CT</text>
</g>
<!-- Chest CT&#45;&gt;General\nPractioner -->
<g id="edge3" class="edge"><title>Chest CT&#45;&gt;General\nPractioner</title>
<path fill="none" stroke="black" stroke-dasharray="5,2" d="M79.0759,-630.15C84.8991,-635.362 90.7085,-641.458 95,-648 102.505,-659.44 107.676,-673.679 111.109,-686"/>
<polygon fill="black" stroke="black" points="107.742,-686.964 113.596,-695.795 114.527,-685.241 107.742,-686.964"/>
<text text-anchor="middle" x="131.5" y="-666.8" font-family="Times,serif" font-size="14.00">Nothing</text>
<text text-anchor="middle" x="131.5" y="-651.8" font-family="Times,serif" font-size="14.00">Found</text>
</g>
<!-- PET/CT -->
<g id="node3" class="node"><title>PET/CT</title>
<polygon fill="none" stroke="black" points="115,-528 57,-528 53,-524 53,-492 111,-492 115,-496 115,-528"/>
<polyline fill="none" stroke="black" points="111,-524 53,-524 "/>
<polyline fill="none" stroke="black" points="111,-524 111,-492 "/>
<polyline fill="none" stroke="black" points="111,-524 115,-528 "/>
<text text-anchor="middle" x="84" y="-506.3" font-family="Times,serif" font-size="14.00">PET/CT</text>
</g>
<!-- Chest CT&#45;&gt;PET/CT -->
<g id="edge4" class="edge"><title>Chest CT&#45;&gt;PET/CT</title>
<path fill="none" stroke="black" d="M60.8772,-593.581C65.1733,-578.238 71.4993,-555.645 76.4491,-537.968"/>
<polygon fill="black" stroke="black" points="79.8527,-538.792 79.1787,-528.219 73.1119,-536.905 79.8527,-538.792"/>
<text text-anchor="middle" x="104.5" y="-564.8" font-family="Times,serif" font-size="14.00">Suspicious</text>
<text text-anchor="middle" x="104.5" y="-549.8" font-family="Times,serif" font-size="14.00">Findings</text>
</g>
<!-- Staging\n(Radiologist &amp;\nNuclear Medicine) -->
<g id="node5" class="node"><title>Staging\n(Radiologist &amp;\nNuclear Medicine)</title>
<polygon fill="none" stroke="black" points="236.25,-453.5 117.75,-453.5 117.75,-400.5 236.25,-400.5 236.25,-453.5"/>
<text text-anchor="middle" x="177" y="-438.3" font-family="Times,serif" font-size="14.00">Staging</text>
<text text-anchor="middle" x="177" y="-423.3" font-family="Times,serif" font-size="14.00">(Radiologist &amp;</text>
<text text-anchor="middle" x="177" y="-408.3" font-family="Times,serif" font-size="14.00">Nuclear Medicine)</text>
</g>
<!-- PET/CT&#45;&gt;Staging\n(Radiologist &amp;\nNuclear Medicine) -->
<g id="edge5" class="edge"><title>PET/CT&#45;&gt;Staging\n(Radiologist &amp;\nNuclear Medicine)</title>
<path fill="none" stroke="black" d="M103.723,-491.822C114.232,-482.669 127.508,-471.106 139.865,-460.344"/>
<polygon fill="black" stroke="black" points="142.164,-462.982 147.406,-453.775 137.567,-457.704 142.164,-462.982"/>
</g>
<!-- General\nPractioner&#45;&gt;Chest CT -->
<g id="edge1" class="edge"><title>General\nPractioner&#45;&gt;Chest CT</title>
<path fill="none" stroke="black" d="M80.891,-708.712C62.3634,-703.968 41.3549,-694.987 30,-678 22.0105,-666.048 26.9555,-651.263 34.5876,-638.815"/>
<polygon fill="black" stroke="black" points="37.7009,-640.464 40.4734,-630.238 31.9292,-636.503 37.7009,-640.464"/>
<text text-anchor="middle" x="62.5" y="-666.8" font-family="Times,serif" font-size="14.00">Initial</text>
<text text-anchor="middle" x="62.5" y="-651.8" font-family="Times,serif" font-size="14.00">Assessment</text>
</g>
<!-- Bronchoscopy /\n Mediastioscopy/ \nPathology -->
<g id="node6" class="node"><title>Bronchoscopy /\n Mediastioscopy/ \nPathology</title>
<polygon fill="none" stroke="black" points="233.25,-361.5 120.75,-361.5 120.75,-308.5 233.25,-308.5 233.25,-361.5"/>
<text text-anchor="middle" x="177" y="-346.3" font-family="Times,serif" font-size="14.00">Bronchoscopy /</text>
<text text-anchor="middle" x="177" y="-331.3" font-family="Times,serif" font-size="14.00"> Mediastioscopy/ </text>
<text text-anchor="middle" x="177" y="-316.3" font-family="Times,serif" font-size="14.00">Pathology</text>
</g>
<!-- Staging\n(Radiologist &amp;\nNuclear Medicine)&#45;&gt;Bronchoscopy /\n Mediastioscopy/ \nPathology -->
<g id="edge6" class="edge"><title>Staging\n(Radiologist &amp;\nNuclear Medicine)&#45;&gt;Bronchoscopy /\n Mediastioscopy/ \nPathology</title>
<path fill="none" stroke="black" d="M177,-400.45C177,-391.52 177,-381.324 177,-371.718"/>
<polygon fill="black" stroke="black" points="180.5,-371.614 177,-361.614 173.5,-371.614 180.5,-371.614"/>
</g>
<!-- Staging\n(Radiologist &amp;\nNuclear Medicine)&#45;&gt;General\nPractioner -->
<g id="edge7" class="edge"><title>Staging\n(Radiologist &amp;\nNuclear Medicine)&#45;&gt;General\nPractioner</title>
<path fill="none" stroke="black" stroke-dasharray="5,2" d="M181.13,-453.781C187.435,-501.063 195.136,-603.617 158,-678 156.096,-681.814 153.594,-685.399 150.764,-688.719"/>
<polygon fill="black" stroke="black" points="148.172,-686.363 143.691,-695.963 153.181,-691.253 148.172,-686.363"/>
<text text-anchor="middle" x="209.5" y="-564.8" font-family="Times,serif" font-size="14.00">Nothing</text>
<text text-anchor="middle" x="209.5" y="-549.8" font-family="Times,serif" font-size="14.00">Found</text>
</g>
<!-- Tumor Board -->
<g id="node8" class="node"><title>Tumor Board</title>
<polygon fill="none" stroke="black" points="247.25,-154 158.75,-154 158.75,-150 154.75,-150 154.75,-146 158.75,-146 158.75,-126 154.75,-126 154.75,-122 158.75,-122 158.75,-118 247.25,-118 247.25,-154"/>
<polyline fill="none" stroke="black" points="158.75,-150 162.75,-150 162.75,-146 158.75,-146 "/>
<polyline fill="none" stroke="black" points="158.75,-126 162.75,-126 162.75,-122 158.75,-122 "/>
<text text-anchor="middle" x="203" y="-132.3" font-family="Times,serif" font-size="14.00">Tumor Board</text>
</g>
<!-- Staging\n(Radiologist &amp;\nNuclear Medicine)&#45;&gt;Tumor Board -->
<g id="edge9" class="edge"><title>Staging\n(Radiologist &amp;\nNuclear Medicine)&#45;&gt;Tumor Board</title>
<path fill="none" stroke="blue" stroke-width="2" stroke-dasharray="5,2" d="M211.954,-400.324C223.577,-389.825 235.265,-376.682 242,-362 273.548,-293.23 277.566,-262.844 251,-192 246.732,-180.619 238.925,-170.046 230.83,-161.273"/>
<polygon fill="blue" stroke="blue" points="233.232,-158.725 223.723,-154.052 228.243,-163.635 233.232,-158.725"/>
<text text-anchor="middle" x="299" y="-274" font-family="Times,serif" font-size="20.00" fill="blue">Prepare</text>
<text text-anchor="middle" x="299" y="-252" font-family="Times,serif" font-size="20.00" fill="blue">Report</text>
</g>
<!-- Diagnosis -->
<g id="node7" class="node"><title>Diagnosis</title>
<polygon fill="none" stroke="black" points="214.898,-228 139.102,-228 112.108,-192 241.892,-192 214.898,-228"/>
<text text-anchor="middle" x="177" y="-206.3" font-family="Times,serif" font-size="14.00">Diagnosis</text>
</g>
<!-- Bronchoscopy /\n Mediastioscopy/ \nPathology&#45;&gt;Diagnosis -->
<g id="edge8" class="edge"><title>Bronchoscopy /\n Mediastioscopy/ \nPathology&#45;&gt;Diagnosis</title>
<path fill="none" stroke="black" d="M177,-308.215C177,-287.699 177,-259.069 177,-238.193"/>
<polygon fill="black" stroke="black" points="180.5,-238.067 177,-228.067 173.5,-238.067 180.5,-238.067"/>
</g>
<!-- Diagnosis&#45;&gt;Tumor Board -->
<g id="edge10" class="edge"><title>Diagnosis&#45;&gt;Tumor Board</title>
<path fill="none" stroke="black" d="M183.162,-191.937C186.161,-183.63 189.84,-173.444 193.211,-164.108"/>
<polygon fill="black" stroke="black" points="196.597,-165.035 196.702,-154.441 190.014,-162.657 196.597,-165.035"/>
</g>
<!-- Therapy -->
<g id="node9" class="node"><title>Therapy</title>
<polygon fill="none" stroke="black" points="135.25,-30 86.75,-30 86.75,-6 135.25,-6 147.25,-18 135.25,-30"/>
<text text-anchor="middle" x="117" y="-14.3" font-family="Times,serif" font-size="14.00">Therapy</text>
</g>
<!-- Tumor Board&#45;&gt;Therapy -->
<g id="edge11" class="edge"><title>Tumor Board&#45;&gt;Therapy</title>
<path fill="none" stroke="black" d="M202.193,-117.755C200.545,-100.049 195.618,-72.5358 181,-54 174.53,-45.7964 165.584,-39.2453 156.429,-34.1336"/>
<polygon fill="black" stroke="black" points="157.789,-30.8993 147.288,-29.4939 154.621,-37.1412 157.789,-30.8993"/>
<text text-anchor="middle" x="246" y="-80.8" font-family="Times,serif" font-size="14.00">Thorasic Surgery</text>
<text text-anchor="middle" x="246" y="-65.8" font-family="Times,serif" font-size="14.00">(Surgery)</text>
</g>
<!-- Tumor Board&#45;&gt;Therapy -->
<g id="edge12" class="edge"><title>Tumor Board&#45;&gt;Therapy</title>
<path fill="none" stroke="black" d="M247.714,-129.566C266.142,-124.874 285.773,-116.161 297,-100 308.665,-83.2098 310.004,-69.7758 297,-54 279.644,-32.9447 204.822,-24.3938 157.277,-21.0419"/>
<polygon fill="black" stroke="black" points="157.493,-17.5487 147.285,-20.3852 157.034,-24.5336 157.493,-17.5487"/>
<text text-anchor="middle" x="346" y="-80.8" font-family="Times,serif" font-size="14.00">Chemotherapy</text>
<text text-anchor="middle" x="346" y="-65.8" font-family="Times,serif" font-size="14.00">(Oncology)</text>
</g>
<!-- Tumor Board&#45;&gt;Therapy -->
<g id="edge13" class="edge"><title>Tumor Board&#45;&gt;Therapy</title>
<path fill="none" stroke="black" stroke-dasharray="5,2" d="M158.744,-128.427C141.837,-123.522 124.19,-114.956 114,-100 103.371,-84.3981 104.706,-62.9038 108.384,-45.9775"/>
<polygon fill="black" stroke="black" points="111.818,-46.6767 110.892,-36.1224 105.034,-44.9506 111.818,-46.6767"/>
<text text-anchor="middle" x="145.5" y="-88.3" font-family="Times,serif" font-size="14.00">Pallative</text>
<text text-anchor="middle" x="145.5" y="-73.3" font-family="Times,serif" font-size="14.00">Care</text>
<text text-anchor="middle" x="145.5" y="-58.3" font-family="Times,serif" font-size="14.00">(Oncology)</text>
</g>
<!-- Therapy&#45;&gt;Chest CT -->
<g id="edge14" class="edge"><title>Therapy&#45;&gt;Chest CT</title>
<path fill="none" stroke="black" d="M86.5651,-32.8548C51.8985,-50.9687 0,-86.2307 0,-135 0,-511 0,-511 0,-511 0,-539.253 17.2271,-566.928 32.5716,-585.975"/>
<polygon fill="black" stroke="black" points="30.0775,-588.447 39.1982,-593.838 35.4302,-583.936 30.0775,-588.447"/>
<text text-anchor="middle" x="28" y="-331.3" font-family="Times,serif" font-size="14.00">Follow&#45;up</text>
</g>
<!-- Therapy&#45;&gt;PET/CT -->
<g id="edge15" class="edge"><title>Therapy&#45;&gt;PET/CT</title>
<path fill="none" stroke="black" d="M108.843,-36.2512C99.0704,-58.5369 84,-98.7773 84,-135 84,-428 84,-428 84,-428 84,-445.938 84,-466.112 84,-481.838"/>
<polygon fill="black" stroke="black" points="80.5001,-481.934 84,-491.934 87.5001,-481.934 80.5001,-481.934"/>
<text text-anchor="middle" x="112" y="-264.3" font-family="Times,serif" font-size="14.00">Follow&#45;up</text>
</g>
</g>
</svg>
