<?xml version="1.0" encoding="UTF-8" standalone="no"?>
<!DOCTYPE svg PUBLIC "-//W3C//DTD SVG 1.1//EN"
 "http://www.w3.org/Graphics/SVG/1.1/DTD/svg11.dtd">
<!-- Generated by graphviz version 2.30.1 (20201013.1554)
 -->
<!-- Title: G Pages: 1 -->
<svg width="265pt" height="604pt"
 viewBox="0.00 0.00 264.99 604.00" xmlns="http://www.w3.org/2000/svg" xmlns:xlink="http://www.w3.org/1999/xlink">
<g id="graph0" class="graph" transform="scale(1 1) rotate(0) translate(4 600)">
<title>G</title>
<polygon fill="white" stroke="white" points="-4,5 -4,-600 261.986,-600 261.986,5 -4,5"/>
<!-- Tumor Board -->
<g id="node1" class="node"><title>Tumor Board</title>
<polygon fill="none" stroke="black" points="219.236,-596 130.736,-596 130.736,-592 126.736,-592 126.736,-588 130.736,-588 130.736,-568 126.736,-568 126.736,-564 130.736,-564 130.736,-560 219.236,-560 219.236,-596"/>
<polyline fill="none" stroke="black" points="130.736,-592 134.736,-592 134.736,-588 130.736,-588 "/>
<polyline fill="none" stroke="black" points="130.736,-568 134.736,-568 134.736,-564 130.736,-564 "/>
<text text-anchor="middle" x="174.986" y="-574.3" font-family="Times,serif" font-size="14.00">Tumor Board</text>
</g>
<!-- Therapy -->
<g id="node2" class="node"><title>Therapy</title>
<polygon fill="none" stroke="black" points="107.236,-502 58.7361,-502 58.7361,-478 107.236,-478 119.236,-490 107.236,-502"/>
<text text-anchor="middle" x="88.9861" y="-486.3" font-family="Times,serif" font-size="14.00">Therapy</text>
</g>
<!-- Tumor Board&#45;&gt;Therapy -->
<g id="edge1" class="edge"><title>Tumor Board&#45;&gt;Therapy</title>
<path fill="none" stroke="black" d="M157.583,-559.597C144.911,-546.925 127.575,-529.589 113.502,-515.516"/>
<polygon fill="black" stroke="black" points="115.616,-512.68 106.07,-508.084 110.666,-517.63 115.616,-512.68"/>
<text text-anchor="middle" x="167.986" y="-530.3" font-family="Times,serif" font-size="14.00">Treatment</text>
</g>
<!-- Surgery -->
<g id="node3" class="node"><title>Surgery</title>
<polygon fill="none" stroke="black" points="84.2451,-292.544 84.2451,-307.456 60.0761,-318 25.896,-318 1.72702,-307.456 1.72702,-292.544 25.896,-282 60.0761,-282 84.2451,-292.544"/>
<text text-anchor="middle" x="42.9861" y="-296.3" font-family="Times,serif" font-size="14.00">Surgery</text>
</g>
<!-- Therapy&#45;&gt;Surgery -->
<g id="edge2" class="edge"><title>Therapy&#45;&gt;Surgery</title>
<path fill="none" stroke="black" d="M62.2804,-471.869C42.0351,-457.162 15.7553,-433.942 3.98607,-406 -7.29239,-379.223 7.87965,-347.935 22.4686,-326.523"/>
<polygon fill="black" stroke="black" points="25.4034,-328.437 28.3947,-318.273 19.7181,-324.353 25.4034,-328.437"/>
<text text-anchor="middle" x="50.9861" y="-384.3" font-family="Times,serif" font-size="14.00">Thorasic Surgery</text>
</g>
<!-- Oncology -->
<g id="node4" class="node"><title>Oncology</title>
<polygon fill="none" stroke="black" points="205.353,-380.544 205.353,-395.456 176.435,-406 135.537,-406 106.619,-395.456 106.619,-380.544 135.537,-370 176.435,-370 205.353,-380.544"/>
<text text-anchor="middle" x="155.986" y="-384.3" font-family="Times,serif" font-size="14.00">Oncology</text>
</g>
<!-- Therapy&#45;&gt;Oncology -->
<g id="edge3" class="edge"><title>Therapy&#45;&gt;Oncology</title>
<path fill="none" stroke="black" d="M74.394,-471.891C64.5032,-458.107 54.9069,-438.676 64.9861,-424 70.3312,-416.217 88.2976,-408.571 106.871,-402.421"/>
<polygon fill="black" stroke="black" points="108.098,-405.704 116.575,-399.348 105.985,-399.03 108.098,-405.704"/>
<text text-anchor="middle" x="104.986" y="-435.3" font-family="Times,serif" font-size="14.00">Chemotherapy</text>
</g>
<!-- Therapy&#45;&gt;Oncology -->
<g id="edge4" class="edge"><title>Therapy&#45;&gt;Oncology</title>
<path fill="none" stroke="black" d="M119.507,-476.13C129.064,-470.654 138.736,-463.337 144.986,-454 152.323,-443.04 155.284,-428.775 156.321,-416.402"/>
<polygon fill="black" stroke="black" points="159.83,-416.299 156.799,-406.147 152.837,-415.973 159.83,-416.299"/>
<text text-anchor="middle" x="178.986" y="-442.8" font-family="Times,serif" font-size="14.00">Palletive</text>
<text text-anchor="middle" x="178.986" y="-427.8" font-family="Times,serif" font-size="14.00">Care</text>
</g>
<!-- Chest CT -->
<g id="node5" class="node"><title>Chest CT</title>
<polygon fill="none" stroke="black" points="160.986,-230 96.9861,-230 92.9861,-226 92.9861,-194 156.986,-194 160.986,-198 160.986,-230"/>
<polyline fill="none" stroke="black" points="156.986,-226 92.9861,-226 "/>
<polyline fill="none" stroke="black" points="156.986,-226 156.986,-194 "/>
<polyline fill="none" stroke="black" points="156.986,-226 160.986,-230 "/>
<text text-anchor="middle" x="126.986" y="-208.3" font-family="Times,serif" font-size="14.00">Chest CT</text>
</g>
<!-- Surgery&#45;&gt;Chest CT -->
<g id="edge7" class="edge"><title>Surgery&#45;&gt;Chest CT</title>
<path fill="none" stroke="black" d="M54.6133,-281.574C61.8844,-271.279 71.782,-258.288 81.9861,-248 85.9066,-244.047 90.2768,-240.142 94.7098,-236.454"/>
<polygon fill="black" stroke="black" points="97.0487,-239.065 102.673,-230.086 92.6773,-233.597 97.0487,-239.065"/>
<text text-anchor="middle" x="109.986" y="-252.3" font-family="Times,serif" font-size="14.00">Follow&#45;up</text>
</g>
<!-- Oncology&#45;&gt;Surgery -->
<g id="edge5" class="edge"><title>Oncology&#45;&gt;Surgery</title>
<path fill="none" stroke="black" stroke-dasharray="5,2" d="M117.935,-376.253C86.392,-367.165 46.3398,-355.137 43.9861,-352 38.978,-345.326 37.5209,-336.657 37.6792,-328.364"/>
<polygon fill="black" stroke="black" points="41.1797,-328.517 38.5981,-318.241 34.2083,-327.884 41.1797,-328.517"/>
<text text-anchor="middle" x="90.9861" y="-340.3" font-family="Times,serif" font-size="14.00">Thorasic Surgery</text>
</g>
<!-- Oncology&#45;&gt;Chest CT -->
<g id="edge6" class="edge"><title>Oncology&#45;&gt;Chest CT</title>
<path fill="none" stroke="black" d="M154.73,-369.713C152.587,-343.26 147.506,-291.252 137.986,-248 137.403,-245.35 136.709,-242.614 135.958,-239.892"/>
<polygon fill="black" stroke="black" points="139.302,-238.859 133.08,-230.284 132.597,-240.868 139.302,-238.859"/>
<text text-anchor="middle" x="177.986" y="-296.3" font-family="Times,serif" font-size="14.00">Follow&#45;up</text>
</g>
<!-- PET/CT -->
<g id="node6" class="node"><title>PET/CT</title>
<polygon fill="none" stroke="black" points="151.986,-128 93.9861,-128 89.9861,-124 89.9861,-92 147.986,-92 151.986,-96 151.986,-128"/>
<polyline fill="none" stroke="black" points="147.986,-124 89.9861,-124 "/>
<polyline fill="none" stroke="black" points="147.986,-124 147.986,-92 "/>
<polyline fill="none" stroke="black" points="147.986,-124 151.986,-128 "/>
<text text-anchor="middle" x="120.986" y="-106.3" font-family="Times,serif" font-size="14.00">PET/CT</text>
</g>
<!-- Chest CT&#45;&gt;PET/CT -->
<g id="edge8" class="edge"><title>Chest CT&#45;&gt;PET/CT</title>
<path fill="none" stroke="black" stroke-dasharray="5,2" d="M112.881,-193.844C109.261,-188.456 105.862,-182.269 103.986,-176 100.165,-163.226 100.997,-158.994 103.986,-146 104.639,-143.161 105.555,-140.285 106.625,-137.466"/>
<polygon fill="black" stroke="black" points="109.866,-138.792 110.71,-128.231 103.464,-135.961 109.866,-138.792"/>
<text text-anchor="middle" x="143.986" y="-164.8" font-family="Times,serif" font-size="14.00">More Detailed</text>
<text text-anchor="middle" x="143.986" y="-149.8" font-family="Times,serif" font-size="14.00">Images</text>
</g>
<!-- Staging\n(Radiologist &amp;\nNuclear Medicine) -->
<g id="node7" class="node"><title>Staging\n(Radiologist &amp;\nNuclear Medicine)</title>
<polygon fill="none" stroke="black" points="257.236,-53.5 138.736,-53.5 138.736,-0.5 257.236,-0.5 257.236,-53.5"/>
<text text-anchor="middle" x="197.986" y="-38.3" font-family="Times,serif" font-size="14.00">Staging</text>
<text text-anchor="middle" x="197.986" y="-23.3" font-family="Times,serif" font-size="14.00">(Radiologist &amp;</text>
<text text-anchor="middle" x="197.986" y="-8.3" font-family="Times,serif" font-size="14.00">Nuclear Medicine)</text>
</g>
<!-- Chest CT&#45;&gt;Staging\n(Radiologist &amp;\nNuclear Medicine) -->
<g id="edge9" class="edge"><title>Chest CT&#45;&gt;Staging\n(Radiologist &amp;\nNuclear Medicine)</title>
<path fill="none" stroke="black" d="M161.131,-196.948C169.966,-191.675 178.521,-184.772 183.986,-176 204.955,-142.347 205.798,-95.7833 203.119,-63.9255"/>
<polygon fill="black" stroke="black" points="206.577,-63.3275 202.1,-53.7252 199.612,-64.0237 206.577,-63.3275"/>
</g>
<!-- PET/CT&#45;&gt;Staging\n(Radiologist &amp;\nNuclear Medicine) -->
<g id="edge10" class="edge"><title>PET/CT&#45;&gt;Staging\n(Radiologist &amp;\nNuclear Medicine)</title>
<path fill="none" stroke="black" d="M137.316,-91.822C145.77,-82.9282 156.389,-71.7582 166.369,-61.2592"/>
<polygon fill="black" stroke="black" points="169.131,-63.4342 173.484,-53.775 164.057,-58.6113 169.131,-63.4342"/>
</g>
<!-- Staging\n(Radiologist &amp;\nNuclear Medicine)&#45;&gt;Tumor Board -->
<g id="edge11" class="edge"><title>Staging\n(Radiologist &amp;\nNuclear Medicine)&#45;&gt;Tumor Board</title>
<path fill="none" stroke="black" d="M216.986,-53.5882C226.486,-68.8676 235.986,-89.1176 235.986,-109 235.986,-491 235.986,-491 235.986,-491 235.986,-514.911 220.104,-536.812 204.548,-552.528"/>
<polygon fill="black" stroke="black" points="201.823,-550.29 197.008,-559.728 206.658,-555.353 201.823,-550.29"/>
</g>
</g>
</svg>
