<?xml version="1.0" encoding="UTF-8" standalone="no"?>
<!DOCTYPE svg PUBLIC "-//W3C//DTD SVG 1.1//EN"
 "http://www.w3.org/Graphics/SVG/1.1/DTD/svg11.dtd">
<!-- Generated by graphviz version 2.30.1 (20201013.1554)
 -->
<!-- Title: G Pages: 1 -->
<svg width="878pt" height="978pt"
 viewBox="0.00 0.00 878.00 978.00" xmlns="http://www.w3.org/2000/svg" xmlns:xlink="http://www.w3.org/1999/xlink">
<g id="graph0" class="graph" transform="scale(1 1) rotate(0) translate(4 974)">
<title>G</title>
<polygon fill="white" stroke="white" points="-4,5 -4,-974 875,-974 875,5 -4,5"/>
<!-- Nuclear Medicine Records (XML) -->
<g id="node1" class="node"><title>Nuclear Medicine Records (XML)</title>
<polygon fill="none" stroke="black" points="204.25,-970 11.75,-970 11.75,-974 -0.25,-974 -0.25,-934 204.25,-934 204.25,-970"/>
<polyline fill="none" stroke="black" points="-0.25,-970 11.75,-970 "/>
<text text-anchor="middle" x="102" y="-948.3" font-family="Times,serif" font-size="14.00">Nuclear Medicine Records (XML)</text>
</g>
<!-- Aggregate NM Data -->
<g id="node4" class="node"><title>Aggregate NM Data</title>
<polygon fill="none" stroke="black" points="391.609,-896 254.391,-896 205.522,-860 440.478,-860 391.609,-896"/>
<text text-anchor="middle" x="323" y="-874.3" font-family="Times,serif" font-size="14.00">Aggregate NM Data</text>
</g>
<!-- Nuclear Medicine Records (XML)&#45;&gt;Aggregate NM Data -->
<g id="edge1" class="edge"><title>Nuclear Medicine Records (XML)&#45;&gt;Aggregate NM Data</title>
<path fill="none" stroke="black" stroke-dasharray="5,2" d="M154.374,-933.937C186.322,-923.529 227.332,-910.168 260.909,-899.229"/>
<polygon fill="black" stroke="black" points="262.196,-902.491 270.62,-896.065 260.027,-895.835 262.196,-902.491"/>
</g>
<!-- Nuclear Medicine Records (XLS) -->
<g id="node2" class="node"><title>Nuclear Medicine Records (XLS)</title>
<polygon fill="none" stroke="black" points="423,-970 235,-970 235,-974 223,-974 223,-934 423,-934 423,-970"/>
<polyline fill="none" stroke="black" points="223,-970 235,-970 "/>
<text text-anchor="middle" x="323" y="-948.3" font-family="Times,serif" font-size="14.00">Nuclear Medicine Records (XLS)</text>
</g>
<!-- Nuclear Medicine Records (XLS)&#45;&gt;Aggregate NM Data -->
<g id="edge2" class="edge"><title>Nuclear Medicine Records (XLS)&#45;&gt;Aggregate NM Data</title>
<path fill="none" stroke="black" stroke-dasharray="5,2" d="M323,-933.937C323,-925.807 323,-915.876 323,-906.705"/>
<polygon fill="black" stroke="black" points="326.5,-906.441 323,-896.441 319.5,-906.441 326.5,-906.441"/>
</g>
<!-- Nuclear Medicine Records (AccessDB) -->
<g id="node3" class="node"><title>Nuclear Medicine Records (AccessDB)</title>
<polygon fill="none" stroke="black" points="671,-970 453,-970 453,-974 441,-974 441,-934 671,-934 671,-970"/>
<polyline fill="none" stroke="black" points="441,-970 453,-970 "/>
<text text-anchor="middle" x="556" y="-948.3" font-family="Times,serif" font-size="14.00">Nuclear Medicine Records (AccessDB)</text>
</g>
<!-- Nuclear Medicine Records (AccessDB)&#45;&gt;Aggregate NM Data -->
<g id="edge3" class="edge"><title>Nuclear Medicine Records (AccessDB)&#45;&gt;Aggregate NM Data</title>
<path fill="none" stroke="black" stroke-dasharray="5,2" d="M500.782,-933.937C466.955,-923.484 423.491,-910.053 388.007,-899.088"/>
<polygon fill="black" stroke="black" points="388.812,-895.674 378.225,-896.065 386.746,-902.362 388.812,-895.674"/>
</g>
<!-- Merge Records -->
<g id="node6" class="node"><title>Merge Records</title>
<polygon fill="none" stroke="black" points="561.364,-794 454.636,-794 416.626,-758 599.374,-758 561.364,-794"/>
<text text-anchor="middle" x="508" y="-772.3" font-family="Times,serif" font-size="14.00">Merge Records</text>
</g>
<!-- Aggregate NM Data&#45;&gt;Merge Records -->
<g id="edge5" class="edge"><title>Aggregate NM Data&#45;&gt;Merge Records</title>
<path fill="none" stroke="black" d="M347.451,-859.765C367.689,-845.908 397.481,-826.439 425,-812 434.235,-807.154 444.291,-802.458 454.113,-798.163"/>
<polygon fill="black" stroke="black" points="455.61,-801.329 463.425,-794.175 452.854,-794.894 455.61,-801.329"/>
<text text-anchor="middle" x="470" y="-830.8" font-family="Times,serif" font-size="14.00">Filter on disease</text>
<text text-anchor="middle" x="470" y="-815.8" font-family="Times,serif" font-size="14.00">case and type</text>
</g>
<!-- Oncology Records (XLS) -->
<g id="node5" class="node"><title>Oncology Records (XLS)</title>
<polygon fill="none" stroke="black" points="615,-896 471,-896 471,-900 459,-900 459,-860 615,-860 615,-896"/>
<polyline fill="none" stroke="black" points="459,-896 471,-896 "/>
<text text-anchor="middle" x="537" y="-874.3" font-family="Times,serif" font-size="14.00">Oncology Records (XLS)</text>
</g>
<!-- Oncology Records (XLS)&#45;&gt;Merge Records -->
<g id="edge4" class="edge"><title>Oncology Records (XLS)&#45;&gt;Merge Records</title>
<path fill="none" stroke="black" d="M531.949,-859.581C527.499,-844.238 520.947,-821.645 515.821,-803.968"/>
<polygon fill="black" stroke="black" points="519.14,-802.848 512.994,-794.219 512.417,-804.798 519.14,-802.848"/>
</g>
<!-- Match PET Scans -->
<g id="node9" class="node"><title>Match PET Scans</title>
<polygon fill="none" stroke="black" points="691.646,-720 568.354,-720 524.446,-684 735.554,-684 691.646,-720"/>
<text text-anchor="middle" x="630" y="-698.3" font-family="Times,serif" font-size="14.00">Match PET Scans</text>
</g>
<!-- Merge Records&#45;&gt;Match PET Scans -->
<g id="edge8" class="edge"><title>Merge Records&#45;&gt;Match PET Scans</title>
<path fill="none" stroke="black" stroke-dasharray="5,2" d="M536.912,-757.937C553.353,-748.234 574.142,-735.966 591.901,-725.485"/>
<polygon fill="black" stroke="black" points="594.039,-728.287 600.872,-720.19 590.481,-722.258 594.039,-728.287"/>
</g>
<!-- PACS Records -->
<g id="node7" class="node"><title>PACS Records</title>
<polygon fill="none" stroke="black" points="745,-890 661,-890 661,-866 745,-866 757,-878 745,-890"/>
<text text-anchor="middle" x="709" y="-874.3" font-family="Times,serif" font-size="14.00">PACS Records</text>
</g>
<!-- PACSCrawler/SOLR Database -->
<g id="node8" class="node"><title>PACSCrawler/SOLR Database</title>
<polygon fill="none" stroke="black" points="800,-794 618,-794 618,-758 800,-758 800,-794"/>
<text text-anchor="middle" x="709" y="-772.3" font-family="Times,serif" font-size="14.00">PACSCrawler/SOLR Database</text>
</g>
<!-- PACS Records&#45;&gt;PACSCrawler/SOLR Database -->
<g id="edge6" class="edge"><title>PACS Records&#45;&gt;PACSCrawler/SOLR Database</title>
<path fill="none" stroke="black" stroke-dasharray="5,2" d="M709,-859.581C709,-844.382 709,-822.067 709,-804.464"/>
<polygon fill="black" stroke="black" points="712.5,-804.219 709,-794.219 705.5,-804.219 712.5,-804.219"/>
<text text-anchor="middle" x="747" y="-830.8" font-family="Times,serif" font-size="14.00">pypacscrawler</text>
<text text-anchor="middle" x="747" y="-815.8" font-family="Times,serif" font-size="14.00">metd</text>
</g>
<!-- PACSCrawler/SOLR Database&#45;&gt;Match PET Scans -->
<g id="edge7" class="edge"><title>PACSCrawler/SOLR Database&#45;&gt;Match PET Scans</title>
<path fill="none" stroke="black" stroke-dasharray="5,2" d="M690.278,-757.937C680.12,-748.679 667.4,-737.086 656.265,-726.938"/>
<polygon fill="black" stroke="black" points="658.61,-724.339 648.861,-720.19 653.895,-729.513 658.61,-724.339"/>
</g>
<!-- Save as full_list.json -->
<g id="node10" class="node"><title>Save as full_list.json</title>
<polygon fill="none" stroke="black" points="630,-534 514,-534 514,-538 502,-538 502,-498 630,-498 630,-534"/>
<polyline fill="none" stroke="black" points="502,-534 514,-534 "/>
<text text-anchor="middle" x="566" y="-512.3" font-family="Times,serif" font-size="14.00">Save as full_list.json</text>
</g>
<!-- Match PET Scans&#45;&gt;Save as full_list.json -->
<g id="edge9" class="edge"><title>Match PET Scans&#45;&gt;Save as full_list.json</title>
<path fill="none" stroke="black" d="M581.146,-683.807C573.915,-679.143 567.42,-673.296 563,-666 540.356,-628.623 548.898,-575.705 557.332,-544.024"/>
<polygon fill="black" stroke="black" points="560.772,-544.724 560.142,-534.148 554.039,-542.808 560.772,-544.724"/>
<text text-anchor="middle" x="615.5" y="-632.3" font-family="Times,serif" font-size="14.00">Master Patient List</text>
</g>
<!-- Screened List -->
<g id="node11" class="node"><title>Screened List</title>
<polygon fill="none" stroke="black" points="739.25,-588 648.75,-588 648.75,-552 739.25,-552 739.25,-588"/>
<text text-anchor="middle" x="694" y="-566.3" font-family="Times,serif" font-size="14.00">Screened List</text>
</g>
<!-- Match PET Scans&#45;&gt;Screened List -->
<g id="edge10" class="edge"><title>Match PET Scans&#45;&gt;Screened List</title>
<path fill="none" stroke="black" d="M656.178,-683.658C662.144,-678.601 667.92,-672.628 672,-666 684.714,-645.347 690.088,-618.061 692.355,-598.032"/>
<polygon fill="black" stroke="black" points="695.845,-598.301 693.301,-588.016 688.876,-597.643 695.845,-598.301"/>
<text text-anchor="middle" x="740.5" y="-654.8" font-family="Times,serif" font-size="14.00">LungStage Screen</text>
<text text-anchor="middle" x="740.5" y="-639.8" font-family="Times,serif" font-size="14.00">Google Doc</text>
<text text-anchor="middle" x="740.5" y="-624.8" font-family="Times,serif" font-size="14.00">(Gregor)</text>
<text text-anchor="middle" x="740.5" y="-609.8" font-family="Times,serif" font-size="14.00">5min/patient</text>
</g>
<!-- Oncology List -->
<g id="node15" class="node"><title>Oncology List</title>
<polygon fill="none" stroke="black" points="638.25,-168 543.75,-168 543.75,-132 638.25,-132 638.25,-168"/>
<text text-anchor="middle" x="591" y="-146.3" font-family="Times,serif" font-size="14.00">Oncology List</text>
</g>
<!-- Save as full_list.json&#45;&gt;Oncology List -->
<g id="edge16" class="edge"><title>Save as full_list.json&#45;&gt;Oncology List</title>
<path fill="none" stroke="black" stroke-dasharray="5,2" d="M566,-497.803C566,-474.828 566,-432.851 566,-397 566,-397 566,-397 566,-232 566,-213.287 572.167,-193.182 578.375,-177.682"/>
<polygon fill="black" stroke="black" points="581.705,-178.796 582.396,-168.223 575.263,-176.057 581.705,-178.796"/>
</g>
<!-- Download for Annotation -->
<g id="node12" class="node"><title>Download for Annotation</title>
<polygon fill="none" stroke="black" points="753.25,-480 602.75,-480 598.75,-476 598.75,-444 749.25,-444 753.25,-448 753.25,-480"/>
<polyline fill="none" stroke="black" points="749.25,-476 598.75,-476 "/>
<polyline fill="none" stroke="black" points="749.25,-476 749.25,-444 "/>
<polyline fill="none" stroke="black" points="749.25,-476 753.25,-480 "/>
<text text-anchor="middle" x="676" y="-458.3" font-family="Times,serif" font-size="14.00">Download for Annotation</text>
</g>
<!-- Screened List&#45;&gt;Download for Annotation -->
<g id="edge11" class="edge"><title>Screened List&#45;&gt;Download for Annotation</title>
<path fill="none" stroke="black" stroke-dasharray="5,2" d="M691.108,-551.969C688.291,-535.378 683.961,-509.883 680.658,-490.431"/>
<polygon fill="black" stroke="black" points="684.069,-489.613 678.945,-480.341 677.168,-490.785 684.069,-489.613"/>
</g>
<!-- Region Annotations -->
<g id="node13" class="node"><title>Region Annotations</title>
<polygon fill="none" stroke="black" points="719.25,-348 598.75,-348 594.75,-344 594.75,-312 715.25,-312 719.25,-316 719.25,-348"/>
<polyline fill="none" stroke="black" points="715.25,-344 594.75,-344 "/>
<polyline fill="none" stroke="black" points="715.25,-344 715.25,-312 "/>
<polyline fill="none" stroke="black" points="715.25,-344 719.25,-348 "/>
<text text-anchor="middle" x="657" y="-326.3" font-family="Times,serif" font-size="14.00">Region Annotations</text>
</g>
<!-- Download for Annotation&#45;&gt;Region Annotations -->
<g id="edge12" class="edge"><title>Download for Annotation&#45;&gt;Region Annotations</title>
<path fill="none" stroke="black" stroke-dasharray="5,2" d="M663.109,-443.689C659.803,-438.297 656.702,-432.146 655,-426 648.832,-403.733 650.012,-377.394 652.346,-358.104"/>
<polygon fill="black" stroke="black" points="655.815,-358.57 653.722,-348.184 648.881,-357.608 655.815,-358.57"/>
<text text-anchor="middle" x="716.5" y="-414.8" font-family="Times,serif" font-size="14.00">LungStage Annotation</text>
<text text-anchor="middle" x="716.5" y="-399.8" font-family="Times,serif" font-size="14.00">Slicer&#45;based To ol</text>
<text text-anchor="middle" x="716.5" y="-384.8" font-family="Times,serif" font-size="14.00">(Alex and Thomas)</text>
<text text-anchor="middle" x="716.5" y="-369.8" font-family="Times,serif" font-size="14.00">30min/patient</text>
</g>
<!-- Region Annotations&#45;&gt;Screened List -->
<g id="edge13" class="edge"><title>Region Annotations&#45;&gt;Screened List</title>
<path fill="none" stroke="black" stroke-dasharray="5,2" d="M719.547,-334.073C741.585,-338.548 764.268,-347.734 778,-366 820.543,-422.592 757.226,-503.845 719.199,-544.242"/>
<polygon fill="black" stroke="black" points="716.38,-542.124 711.969,-551.757 721.425,-546.977 716.38,-542.124"/>
<text text-anchor="middle" x="827.5" y="-465.8" font-family="Times,serif" font-size="14.00">Filter already</text>
<text text-anchor="middle" x="827.5" y="-450.8" font-family="Times,serif" font-size="14.00">annotated cases</text>
</g>
<!-- Region Data\nlsa.npz\nlsa.json -->
<g id="node14" class="node"><title>Region Data\nlsa.npz\nlsa.json</title>
<polygon fill="none" stroke="black" points="684.25,-259.5 611.75,-259.5 611.75,-263.5 599.75,-263.5 599.75,-206.5 684.25,-206.5 684.25,-259.5"/>
<polyline fill="none" stroke="black" points="599.75,-259.5 611.75,-259.5 "/>
<text text-anchor="middle" x="642" y="-244.3" font-family="Times,serif" font-size="14.00">Region Data</text>
<text text-anchor="middle" x="642" y="-229.3" font-family="Times,serif" font-size="14.00">lsa.npz</text>
<text text-anchor="middle" x="642" y="-214.3" font-family="Times,serif" font-size="14.00">lsa.json</text>
</g>
<!-- Region Annotations&#45;&gt;Region Data\nlsa.npz\nlsa.json -->
<g id="edge14" class="edge"><title>Region Annotations&#45;&gt;Region Data\nlsa.npz\nlsa.json</title>
<path fill="none" stroke="black" stroke-dasharray="5,2" d="M654.249,-311.576C652.398,-299.851 649.891,-283.974 647.627,-269.638"/>
<polygon fill="black" stroke="black" points="651.051,-268.884 646.035,-259.552 644.137,-269.975 651.051,-268.884"/>
<text text-anchor="middle" x="700.5" y="-282.3" font-family="Times,serif" font-size="14.00">Save Region Data</text>
</g>
<!-- Region Data\nlsa.npz\nlsa.json&#45;&gt;Oncology List -->
<g id="edge15" class="edge"><title>Region Data\nlsa.npz\nlsa.json&#45;&gt;Oncology List</title>
<path fill="none" stroke="black" stroke-dasharray="5,2" d="M625.863,-206.371C619.937,-196.958 613.226,-186.3 607.286,-176.866"/>
<polygon fill="black" stroke="black" points="610.168,-174.875 601.878,-168.277 604.245,-178.604 610.168,-174.875"/>
</g>
<!-- Full Patient Data -->
<g id="node16" class="node"><title>Full Patient Data</title>
<polygon fill="none" stroke="black" points="645.25,-36 536.75,-36 536.75,-0 645.25,-0 645.25,-36"/>
<text text-anchor="middle" x="591" y="-14.3" font-family="Times,serif" font-size="14.00">Full Patient Data</text>
</g>
<!-- Oncology List&#45;&gt;Full Patient Data -->
<g id="edge17" class="edge"><title>Oncology List&#45;&gt;Full Patient Data</title>
<path fill="none" stroke="black" d="M591,-131.737C591,-109.981 591,-72.3224 591,-46.5641"/>
<polygon fill="black" stroke="black" points="594.5,-46.3344 591,-36.3344 587.5,-46.3344 594.5,-46.3344"/>
<text text-anchor="middle" x="662.5" y="-102.8" font-family="Times,serif" font-size="14.00">LungStage Oncology Tool</text>
<text text-anchor="middle" x="662.5" y="-87.8" font-family="Times,serif" font-size="14.00">Google Docs</text>
<text text-anchor="middle" x="662.5" y="-72.8" font-family="Times,serif" font-size="14.00">(Audrey)</text>
<text text-anchor="middle" x="662.5" y="-57.8" font-family="Times,serif" font-size="14.00">30min/patient</text>
</g>
</g>
</svg>
