<?xml version="1.0" encoding="UTF-8" standalone="no"?>
<!DOCTYPE svg PUBLIC "-//W3C//DTD SVG 1.1//EN"
 "http://www.w3.org/Graphics/SVG/1.1/DTD/svg11.dtd">
<!-- Generated by graphviz version 2.30.1 (20201013.1554)
 -->
<!-- Title: G Pages: 1 -->
<svg width="440pt" height="420pt"
 viewBox="0.00 0.00 440.00 420.00" xmlns="http://www.w3.org/2000/svg" xmlns:xlink="http://www.w3.org/1999/xlink">
<g id="graph0" class="graph" transform="scale(1 1) rotate(0) translate(4 416)">
<title>G</title>
<polygon fill="white" stroke="white" points="-4,5 -4,-416 437,-416 437,5 -4,5"/>
<!-- mri -->
<g id="node1" class="node"><title>mri</title>
<polygon fill="none" stroke="black" points="337,-412 334,-416 313,-416 310,-412 227,-412 227,-374 337,-374 337,-412"/>
<text text-anchor="middle" x="282" y="-396.8" font-family="Times,serif" font-size="14.00">MRI Image Data</text>
<text text-anchor="middle" x="282" y="-381.8" font-family="Times,serif" font-size="14.00">(T2, DWI Scout)</text>
</g>
<!-- sort -->
<g id="node2" class="node"><title>sort</title>
<polygon fill="lightblue" stroke="black" points="-0.5,-282 -0.5,-328 154.5,-328 154.5,-282 -0.5,-282"/>
<text text-anchor="middle" x="77" y="-312.8" font-family="Times,serif" font-size="14.00">Neural Image Sorter</text>
<polyline fill="none" stroke="black" points="-0.5,-305 154.5,-305 "/>
<text text-anchor="middle" x="21.5" y="-289.8" font-family="Times,serif" font-size="14.00">DWI</text>
<polyline fill="none" stroke="black" points="43.5,-282 43.5,-305 "/>
<text text-anchor="middle" x="59.5" y="-289.8" font-family="Times,serif" font-size="14.00">T1</text>
<polyline fill="none" stroke="black" points="75.5,-282 75.5,-305 "/>
<text text-anchor="middle" x="91.5" y="-289.8" font-family="Times,serif" font-size="14.00">T2</text>
<polyline fill="none" stroke="black" points="107.5,-282 107.5,-305 "/>
<text text-anchor="middle" x="131" y="-289.8" font-family="Times,serif" font-size="14.00">Other</text>
</g>
<!-- mri&#45;&gt;sort -->
<g id="edge1" class="edge"><title>mri&#45;&gt;sort</title>
<path fill="none" stroke="black" d="M239.025,-373.972C210.066,-361.823 171.407,-345.605 139.114,-332.057"/>
<polygon fill="black" stroke="black" points="140.327,-328.771 129.752,-328.13 137.619,-335.226 140.327,-328.771"/>
</g>
<!-- position -->
<g id="node3" class="node"><title>position</title>
<polygon fill="lightblue" stroke="black" points="172.5,-274.5 172.5,-335.5 273.5,-335.5 273.5,-274.5 172.5,-274.5"/>
<text text-anchor="middle" x="223" y="-320.3" font-family="Times,serif" font-size="14.00">Neural Position</text>
<text text-anchor="middle" x="223" y="-305.3" font-family="Times,serif" font-size="14.00">Estimator</text>
<polyline fill="none" stroke="black" points="172.5,-297.5 273.5,-297.5 "/>
<text text-anchor="middle" x="223" y="-282.3" font-family="Times,serif" font-size="14.00">z</text>
</g>
<!-- mri&#45;&gt;position -->
<g id="edge2" class="edge"><title>mri&#45;&gt;position</title>
<path fill="none" stroke="black" d="M269.488,-373.762C263.568,-365.133 256.264,-354.487 249.214,-344.21"/>
<polygon fill="black" stroke="black" points="251.93,-341.983 243.387,-335.717 246.158,-345.943 251.93,-341.983"/>
</g>
<!-- t2_stage -->
<g id="node4" class="node"><title>t2_stage</title>
<polygon fill="lightgreen" stroke="black" points="143,-115 143,-207 303,-207 303,-115 143,-115"/>
<text text-anchor="middle" x="223" y="-191.8" font-family="Times,serif" font-size="14.00">Staging</text>
<polyline fill="none" stroke="black" points="143,-184 303,-184 "/>
<text text-anchor="middle" x="159" y="-168.8" font-family="Times,serif" font-size="14.00">T0</text>
<polyline fill="none" stroke="black" points="175,-161 175,-184 "/>
<text text-anchor="middle" x="191" y="-168.8" font-family="Times,serif" font-size="14.00">T1</text>
<polyline fill="none" stroke="black" points="207,-161 207,-184 "/>
<text text-anchor="middle" x="223" y="-168.8" font-family="Times,serif" font-size="14.00">T2</text>
<polyline fill="none" stroke="black" points="239,-161 239,-184 "/>
<text text-anchor="middle" x="255" y="-168.8" font-family="Times,serif" font-size="14.00">T3</text>
<polyline fill="none" stroke="black" points="271,-161 271,-184 "/>
<text text-anchor="middle" x="287" y="-168.8" font-family="Times,serif" font-size="14.00">T4</text>
<polyline fill="none" stroke="black" points="143,-161 303,-161 "/>
<text text-anchor="middle" x="169.5" y="-145.8" font-family="Times,serif" font-size="14.00">N0</text>
<polyline fill="none" stroke="black" points="196,-138 196,-161 "/>
<text text-anchor="middle" x="222.5" y="-145.8" font-family="Times,serif" font-size="14.00">N1</text>
<polyline fill="none" stroke="black" points="249,-138 249,-161 "/>
<text text-anchor="middle" x="276" y="-145.8" font-family="Times,serif" font-size="14.00">N2</text>
<polyline fill="none" stroke="black" points="143,-138 303,-138 "/>
<text text-anchor="middle" x="183" y="-122.8" font-family="Times,serif" font-size="14.00">M0</text>
<polyline fill="none" stroke="black" points="223,-115 223,-138 "/>
<text text-anchor="middle" x="263" y="-122.8" font-family="Times,serif" font-size="14.00">M1</text>
</g>
<!-- mri&#45;&gt;t2_stage -->
<g id="edge3" class="edge"><title>mri&#45;&gt;t2_stage</title>
<path fill="none" stroke="black" d="M285.508,-373.619C290.664,-341.963 297.512,-275.766 276,-226 274.51,-222.553 272.775,-219.145 270.86,-215.804"/>
<polygon fill="black" stroke="black" points="273.699,-213.743 265.417,-207.136 267.771,-217.466 273.699,-213.743"/>
<text text-anchor="middle" x="326" y="-301.3" font-family="Times,serif" font-size="14.00">MRI Images</text>
</g>
<!-- outcome -->
<g id="node5" class="node"><title>outcome</title>
<polygon fill="lightgreen" stroke="black" points="147,-1 147,-47 299,-47 299,-1 147,-1"/>
<text text-anchor="middle" x="223" y="-31.8" font-family="Times,serif" font-size="14.00">Outcome</text>
<polyline fill="none" stroke="black" points="147,-24 299,-24 "/>
<text text-anchor="middle" x="186" y="-8.8" font-family="Times,serif" font-size="14.00">Recurrence</text>
<polyline fill="none" stroke="black" points="225,-1 225,-24 "/>
<text text-anchor="middle" x="262" y="-8.8" font-family="Times,serif" font-size="14.00">Remission</text>
</g>
<!-- mri&#45;&gt;outcome -->
<g id="edge6" class="edge"><title>mri&#45;&gt;outcome</title>
<path fill="none" stroke="black" d="M324.748,-373.862C340.337,-364.901 356.269,-352.423 365,-336 377.935,-311.669 369.388,-301.204 365,-274 349.277,-176.529 353.617,-138.869 287,-66 282.735,-61.3344 277.824,-56.9791 272.66,-52.9815"/>
<polygon fill="black" stroke="black" points="274.546,-50.0257 264.392,-47.0007 270.443,-55.6975 274.546,-50.0257"/>
<text text-anchor="middle" x="397" y="-237.3" font-family="Times,serif" font-size="14.00">MRI Images</text>
</g>
<!-- sort&#45;&gt;t2_stage -->
<g id="edge4" class="edge"><title>sort&#45;&gt;t2_stage</title>
<path fill="none" stroke="black" stroke-dasharray="5,2" d="M92.5845,-281.996C104.629,-265.701 122.201,-243.402 140,-226 144.168,-221.925 148.592,-217.869 153.143,-213.889"/>
<polygon fill="black" stroke="black" points="155.561,-216.426 160.899,-207.274 151.019,-211.1 155.561,-216.426"/>
<text text-anchor="middle" x="179.5" y="-237.3" font-family="Times,serif" font-size="14.00">MRI Category</text>
</g>
<!-- sort&#45;&gt;outcome -->
<g id="edge8" class="edge"><title>sort&#45;&gt;outcome</title>
<path fill="none" stroke="black" stroke-dasharray="5,2" d="M80.0399,-281.785C85.8653,-244.779 101.065,-169.141 134,-114 147.726,-91.0191 168.695,-69.6527 186.832,-53.6177"/>
<polygon fill="black" stroke="black" points="189.12,-56.2667 194.402,-47.0828 184.545,-50.9679 189.12,-56.2667"/>
</g>
<!-- position&#45;&gt;t2_stage -->
<g id="edge5" class="edge"><title>position&#45;&gt;t2_stage</title>
<path fill="none" stroke="black" stroke-dasharray="5,2" d="M223,-274.232C223,-257.756 223,-236.747 223,-217.372"/>
<polygon fill="black" stroke="black" points="226.5,-217.119 223,-207.119 219.5,-217.119 226.5,-217.119"/>
<text text-anchor="middle" x="247.5" y="-244.8" font-family="Times,serif" font-size="14.00">Position</text>
<text text-anchor="middle" x="247.5" y="-229.8" font-family="Times,serif" font-size="14.00">Estimate</text>
</g>
<!-- t2_stage&#45;&gt;outcome -->
<g id="edge7" class="edge"><title>t2_stage&#45;&gt;outcome</title>
<path fill="none" stroke="black" stroke-dasharray="5,2" d="M223,-114.671C223,-95.895 223,-74.5437 223,-57.3868"/>
<polygon fill="black" stroke="black" points="226.5,-57.3067 223,-47.3067 219.5,-57.3067 226.5,-57.3067"/>
<text text-anchor="middle" x="253" y="-84.8" font-family="Times,serif" font-size="14.00">Stage</text>
<text text-anchor="middle" x="253" y="-69.8" font-family="Times,serif" font-size="14.00">Estimation</text>
</g>
</g>
</svg>
