<?xml version="1.0" encoding="UTF-8" standalone="no"?>
<!DOCTYPE svg PUBLIC "-//W3C//DTD SVG 1.1//EN"
 "http://www.w3.org/Graphics/SVG/1.1/DTD/svg11.dtd">
<!-- Generated by graphviz version 2.30.1 (20201013.1554)
 -->
<!-- Title: G Pages: 1 -->
<svg width="822pt" height="223pt"
 viewBox="0.00 0.00 822.00 223.00" xmlns="http://www.w3.org/2000/svg" xmlns:xlink="http://www.w3.org/1999/xlink">
<g id="graph0" class="graph" transform="scale(1 1) rotate(0) translate(4 219)">
<title>G</title>
<polygon fill="white" stroke="white" points="-4,5 -4,-219 819,-219 819,5 -4,5"/>
<g id="clust1" class="cluster"><title>cluster_foo</title>
<polygon fill="none" stroke="black" points="8,-8 8,-155 226,-155 226,-8 8,-8"/>
<text text-anchor="middle" x="117" y="-139.8" font-family="Times,serif" font-size="14.00">foo</text>
</g>
<g id="clust2" class="cluster"><title>cluster_bar</title>
<polygon fill="none" stroke="black" points="280,-80 280,-207 561,-207 561,-80 280,-80"/>
</g>
<g id="clust3" class="cluster"><title>cluster_baz</title>
<polygon fill="none" stroke="black" points="234,-8 234,-60 806,-60 806,-8 234,-8"/>
</g>
<!-- foo_method_1 -->
<g id="node1" class="node"><title>foo_method_1</title>
<ellipse fill="none" stroke="black" cx="172" cy="-106" rx="46.2191" ry="18"/>
<text text-anchor="middle" x="172" y="-102.3" font-family="Times,serif" font-size="14.00">method_1</text>
</g>
<!-- foo_method_2 -->
<g id="node2" class="node"><title>foo_method_2</title>
<ellipse fill="none" stroke="black" cx="62" cy="-106" rx="46.2191" ry="18"/>
<text text-anchor="middle" x="62" y="-102.3" font-family="Times,serif" font-size="14.00">method_2</text>
</g>
<!-- baz_method_3 -->
<g id="node9" class="node"><title>baz_method_3</title>
<ellipse fill="none" stroke="black" cx="305" cy="-34" rx="63.0666" ry="18"/>
<text text-anchor="middle" x="305" y="-30.3" font-family="Times,serif" font-size="14.00">baz_method_3</text>
</g>
<!-- foo_method_2&#45;&gt;baz_method_3 -->
<g id="edge4" class="edge"><title>foo_method_2&#45;&gt;baz_method_3</title>
<path fill="none" stroke="black" d="M88.607,-91.2773C97.4558,-87.1574 107.483,-82.9532 117,-80 165.711,-64.8837 180.563,-72.5424 230,-60 239.086,-57.6948 248.662,-54.8403 257.82,-51.8935"/>
<polygon fill="black" stroke="black" points="259.151,-55.1399 267.55,-48.6815 256.957,-48.4927 259.151,-55.1399"/>
</g>
<!-- foo_method_3 -->
<g id="node3" class="node"><title>foo_method_3</title>
<ellipse fill="none" stroke="black" cx="62" cy="-34" rx="46.2191" ry="18"/>
<text text-anchor="middle" x="62" y="-30.3" font-family="Times,serif" font-size="14.00">method_3</text>
</g>
<!-- foo_method_2&#45;&gt;foo_method_3 -->
<g id="edge8" class="edge"><title>foo_method_2&#45;&gt;foo_method_3</title>
<path fill="none" stroke="black" d="M62,-87.6966C62,-79.9827 62,-70.7125 62,-62.1124"/>
<polygon fill="black" stroke="black" points="65.5001,-62.1043 62,-52.1043 58.5001,-62.1044 65.5001,-62.1043"/>
</g>
<!-- bar_method_a -->
<g id="node4" class="node"><title>bar_method_a</title>
<ellipse fill="none" stroke="black" cx="350" cy="-181" rx="61.6163" ry="18"/>
<text text-anchor="middle" x="350" y="-177.3" font-family="Times,serif" font-size="14.00">bar_method_a</text>
</g>
<!-- bar_method_c -->
<g id="node6" class="node"><title>bar_method_c</title>
<ellipse fill="none" stroke="black" cx="380" cy="-106" rx="61.6163" ry="18"/>
<text text-anchor="middle" x="380" y="-102.3" font-family="Times,serif" font-size="14.00">bar_method_c</text>
</g>
<!-- bar_method_a&#45;&gt;bar_method_c -->
<g id="edge2" class="edge"><title>bar_method_a&#45;&gt;bar_method_c</title>
<path fill="none" stroke="black" d="M356.958,-163.069C360.567,-154.287 365.058,-143.36 369.114,-133.49"/>
<polygon fill="black" stroke="black" points="372.412,-134.672 372.976,-124.092 365.937,-132.011 372.412,-134.672"/>
</g>
<!-- bar_method_a&#45;&gt;foo_method_2 -->
<g id="edge3" class="edge"><title>bar_method_a&#45;&gt;foo_method_2</title>
<path fill="none" stroke="black" d="M289.679,-177.634C231.166,-174.606 146.96,-168.101 117,-155 104.172,-149.391 92.174,-139.685 82.6778,-130.462"/>
<polygon fill="black" stroke="black" points="85.1249,-127.958 75.6305,-123.256 80.1205,-132.853 85.1249,-127.958"/>
</g>
<!-- bar_method_b -->
<g id="node5" class="node"><title>bar_method_b</title>
<ellipse fill="none" stroke="black" cx="491" cy="-181" rx="61.6163" ry="18"/>
<text text-anchor="middle" x="491" y="-177.3" font-family="Times,serif" font-size="14.00">bar_method_b</text>
</g>
<!-- bar_method_b&#45;&gt;foo_method_1 -->
<g id="edge5" class="edge"><title>bar_method_b&#45;&gt;foo_method_1</title>
<path fill="none" stroke="black" d="M447.305,-168.238C438.331,-166.19 428.904,-164.303 420,-163 356.576,-153.722 338.201,-170.482 276,-155 251.178,-148.822 225.044,-136.734 205.183,-126.235"/>
<polygon fill="black" stroke="black" points="206.709,-123.081 196.249,-121.396 203.375,-129.236 206.709,-123.081"/>
</g>
<!-- bar_method_b&#45;&gt;foo_method_2 -->
<g id="edge6" class="edge"><title>bar_method_b&#45;&gt;foo_method_2</title>
<path fill="none" stroke="black" d="M447.712,-168.121C438.623,-166.054 429.048,-164.189 420,-163 386.609,-158.611 148.375,-167.24 117,-155 103.957,-149.912 91.9292,-140.277 82.4691,-130.967"/>
<polygon fill="black" stroke="black" points="84.9109,-128.456 75.4624,-123.663 79.8595,-133.302 84.9109,-128.456"/>
</g>
<!-- baz_method_1 -->
<g id="node7" class="node"><title>baz_method_1</title>
<ellipse fill="none" stroke="black" cx="591" cy="-34" rx="63.0666" ry="18"/>
<text text-anchor="middle" x="591" y="-30.3" font-family="Times,serif" font-size="14.00">baz_method_1</text>
</g>
<!-- bar_method_b&#45;&gt;baz_method_1 -->
<g id="edge7" class="edge"><title>bar_method_b&#45;&gt;baz_method_1</title>
<path fill="none" stroke="black" d="M493.64,-162.895C497.62,-141.658 506.829,-105.167 526,-80 533.204,-70.542 542.976,-62.3322 552.752,-55.6089"/>
<polygon fill="black" stroke="black" points="554.787,-58.4611 561.28,-50.0892 550.983,-52.5846 554.787,-58.4611"/>
</g>
<!-- baz_method_b -->
<g id="node8" class="node"><title>baz_method_b</title>
<ellipse fill="none" stroke="black" cx="735" cy="-34" rx="63.0666" ry="18"/>
<text text-anchor="middle" x="735" y="-30.3" font-family="Times,serif" font-size="14.00">baz_method_b</text>
</g>
<!-- bar_method_b&#45;&gt;baz_method_b -->
<g id="edge10" class="edge"><title>bar_method_b&#45;&gt;baz_method_b</title>
<path fill="none" stroke="black" d="M515.275,-164.375C518.781,-161.509 522.158,-158.354 525,-155 549.155,-126.489 533.243,-102.603 563,-80 599.093,-52.5841 619.267,-71.9058 663,-60 671.351,-57.7266 680.134,-54.983 688.584,-52.1578"/>
<polygon fill="black" stroke="black" points="689.979,-55.3796 698.305,-48.8271 687.71,-48.7576 689.979,-55.3796"/>
</g>
<!-- baz_method_c -->
<g id="node10" class="node"><title>baz_method_c</title>
<ellipse fill="none" stroke="black" cx="448" cy="-34" rx="62.0922" ry="18"/>
<text text-anchor="middle" x="448" y="-30.3" font-family="Times,serif" font-size="14.00">baz_method_c</text>
</g>
<!-- bar_method_c&#45;&gt;baz_method_c -->
<g id="edge9" class="edge"><title>bar_method_c&#45;&gt;baz_method_c</title>
<path fill="none" stroke="black" d="M396.115,-88.411C404.668,-79.6062 415.333,-68.6282 424.764,-58.9189"/>
<polygon fill="black" stroke="black" points="427.543,-61.0815 432.001,-51.4699 422.522,-56.204 427.543,-61.0815"/>
</g>
<!-- main -->
<g id="node11" class="node"><title>main</title>
<ellipse fill="none" stroke="black" cx="599" cy="-181" rx="28.3955" ry="18"/>
<text text-anchor="middle" x="599" y="-177.3" font-family="Times,serif" font-size="14.00">main</text>
</g>
<!-- sub -->
<g id="node12" class="node"><title>sub</title>
<ellipse fill="none" stroke="black" cx="599" cy="-106" rx="27" ry="18"/>
<text text-anchor="middle" x="599" y="-102.3" font-family="Times,serif" font-size="14.00">sub</text>
</g>
<!-- main&#45;&gt;sub -->
<g id="edge1" class="edge"><title>main&#45;&gt;sub</title>
<path fill="none" stroke="black" d="M599,-162.7C599,-154.245 599,-143.869 599,-134.373"/>
<polygon fill="black" stroke="black" points="602.5,-134.176 599,-124.176 595.5,-134.176 602.5,-134.176"/>
</g>
</g>
</svg>
