<?xml version="1.0" encoding="UTF-8" standalone="no"?>
<!DOCTYPE svg PUBLIC "-//W3C//DTD SVG 1.1//EN"
 "http://www.w3.org/Graphics/SVG/1.1/DTD/svg11.dtd">
<!-- Generated by graphviz version 2.30.1 (20201013.1554)
 -->
<!-- Title: G Pages: 1 -->
<svg width="326pt" height="464pt"
 viewBox="0.00 0.00 325.96 463.99" xmlns="http://www.w3.org/2000/svg" xmlns:xlink="http://www.w3.org/1999/xlink">
<g id="graph0" class="graph" transform="scale(1 1) rotate(0) translate(4 459.986)">
<title>G</title>
<polygon fill="white" stroke="white" points="-4,5 -4,-459.986 322.959,-459.986 322.959,5 -4,5"/>
<text text-anchor="middle" x="158.979" y="-20.4" font-family="Times,serif" font-size="12.00">PetriNet Model TrafficLights</text>
<text text-anchor="middle" x="158.979" y="-7.4" font-family="Times,serif" font-size="12.00">Extracted from ConceptBase and layed out by Graphviz</text>
<!-- gy2 -->
<g id="node1" class="node"><title>gy2</title>
<polygon fill="none" stroke="black" points="250.473,-74.9453 196.473,-74.9453 196.473,-38.9453 250.473,-38.9453 250.473,-74.9453"/>
<text text-anchor="middle" x="223.473" y="-53.2453" font-family="Times,serif" font-size="14.00">gy2</text>
</g>
<!-- yellow2 -->
<g id="node8" class="node"><title>yellow2</title>
<ellipse fill="none" stroke="black" cx="285.459" cy="-116.746" rx="32.5" ry="32.5"/>
<text text-anchor="middle" x="285.459" y="-113.046" font-family="Times,serif" font-size="14.00">yellow2</text>
</g>
<!-- gy2&#45;&gt;yellow2 -->
<g id="edge1" class="edge"><title>gy2&#45;&gt;yellow2</title>
<path fill="none" stroke="black" d="M242.407,-75.2124C246.235,-78.9049 250.353,-82.8777 254.471,-86.8504"/>
<polygon fill="black" stroke="black" points="252.193,-89.5164 261.82,-93.9406 257.053,-84.4787 252.193,-89.5164"/>
</g>
<!-- yr2 -->
<g id="node2" class="node"><title>yr2</title>
<polygon fill="none" stroke="black" points="289.862,-214.538 235.862,-214.538 235.862,-178.538 289.862,-178.538 289.862,-214.538"/>
<text text-anchor="middle" x="262.862" y="-192.838" font-family="Times,serif" font-size="14.00">yr2</text>
</g>
<!-- safe1 -->
<g id="node14" class="node"><title>safe1</title>
<ellipse fill="none" stroke="black" cx="264.4" cy="-281.113" rx="32.5" ry="32.5"/>
<text text-anchor="middle" x="264.4" y="-277.413" font-family="Times,serif" font-size="14.00">safe1</text>
</g>
<!-- yr2&#45;&gt;safe1 -->
<g id="edge3" class="edge"><title>yr2&#45;&gt;safe1</title>
<path fill="none" stroke="black" d="M263.196,-214.89C263.322,-221.866 263.473,-230.139 263.624,-238.433"/>
<polygon fill="black" stroke="black" points="260.125,-238.538 263.806,-248.473 267.124,-238.411 260.125,-238.538"/>
</g>
<!-- red2 -->
<g id="node9" class="node"><title>red2</title>
<ellipse fill="none" stroke="black" cx="186.876" cy="-167.311" rx="32.5" ry="32.5"/>
<text text-anchor="middle" x="186.876" y="-163.611" font-family="Times,serif" font-size="14.00">red2</text>
</g>
<!-- yr2&#45;&gt;red2 -->
<g id="edge4" class="edge"><title>yr2&#45;&gt;red2</title>
<path fill="none" stroke="black" d="M235.858,-186.151C232.965,-185.039 229.98,-183.89 226.976,-182.735"/>
<polygon fill="black" stroke="black" points="228.006,-179.381 217.416,-179.058 225.493,-185.914 228.006,-179.381"/>
</g>
<!-- rg2 -->
<g id="node3" class="node"><title>rg2</title>
<polygon fill="none" stroke="black" points="135.767,-161.8 81.7672,-161.8 81.7672,-125.8 135.767,-125.8 135.767,-161.8"/>
<text text-anchor="middle" x="108.767" y="-140.1" font-family="Times,serif" font-size="14.00">rg2</text>
</g>
<!-- green2 -->
<g id="node7" class="node"><title>green2</title>
<ellipse fill="none" stroke="black" cx="137.99" cy="-66.5" rx="32.5" ry="32.5"/>
<text text-anchor="middle" x="137.99" y="-62.8" font-family="Times,serif" font-size="14.00">green2</text>
</g>
<!-- rg2&#45;&gt;green2 -->
<g id="edge2" class="edge"><title>rg2&#45;&gt;green2</title>
<path fill="none" stroke="black" d="M115.693,-125.481C117.847,-119.781 120.313,-113.258 122.802,-106.675"/>
<polygon fill="black" stroke="black" points="126.168,-107.668 126.43,-97.0769 119.62,-105.193 126.168,-107.668"/>
</g>
<!-- gy1 -->
<g id="node4" class="node"><title>gy1</title>
<polygon fill="none" stroke="black" points="120.863,-450.269 66.8633,-450.269 66.8633,-414.269 120.863,-414.269 120.863,-450.269"/>
<text text-anchor="middle" x="93.8633" y="-428.569" font-family="Times,serif" font-size="14.00">gy1</text>
</g>
<!-- yellow1 -->
<g id="node12" class="node"><title>yellow1</title>
<ellipse fill="none" stroke="black" cx="32.5" cy="-371.995" rx="32.5" ry="32.5"/>
<text text-anchor="middle" x="32.5" y="-368.295" font-family="Times,serif" font-size="14.00">yellow1</text>
</g>
<!-- gy1&#45;&gt;yellow1 -->
<g id="edge9" class="edge"><title>gy1&#45;&gt;yellow1</title>
<path fill="none" stroke="black" d="M75.4523,-414.185C71.4719,-410.275 67.1617,-406.041 62.8598,-401.816"/>
<polygon fill="black" stroke="black" points="65.2747,-399.282 55.6879,-394.771 60.3695,-404.276 65.2747,-399.282"/>
</g>
<!-- yr1 -->
<g id="node5" class="node"><title>yr1</title>
<polygon fill="none" stroke="black" points="84.2711,-311.174 30.2711,-311.174 30.2711,-275.174 84.2711,-275.174 84.2711,-311.174"/>
<text text-anchor="middle" x="57.2711" y="-289.474" font-family="Times,serif" font-size="14.00">yr1</text>
</g>
<!-- safe2 -->
<g id="node10" class="node"><title>safe2</title>
<ellipse fill="none" stroke="black" cx="55.067" cy="-208.852" rx="32.5" ry="32.5"/>
<text text-anchor="middle" x="55.067" y="-205.152" font-family="Times,serif" font-size="14.00">safe2</text>
</g>
<!-- yr1&#45;&gt;safe2 -->
<g id="edge11" class="edge"><title>yr1&#45;&gt;safe2</title>
<path fill="none" stroke="black" d="M56.7929,-274.877C56.611,-267.921 56.3954,-259.673 56.1793,-251.404"/>
<polygon fill="black" stroke="black" points="59.6779,-251.299 55.9176,-241.394 52.6802,-251.482 59.6779,-251.299"/>
</g>
<!-- red1 -->
<g id="node13" class="node"><title>red1</title>
<ellipse fill="none" stroke="black" cx="133.249" cy="-322.881" rx="32.5" ry="32.5"/>
<text text-anchor="middle" x="133.249" y="-319.181" font-family="Times,serif" font-size="14.00">red1</text>
</g>
<!-- yr1&#45;&gt;red1 -->
<g id="edge12" class="edge"><title>yr1&#45;&gt;red1</title>
<path fill="none" stroke="black" d="M84.2719,-303.731C87.3003,-304.915 90.4305,-306.139 93.5762,-307.369"/>
<polygon fill="black" stroke="black" points="92.3851,-310.661 102.973,-311.043 94.9342,-304.142 92.3851,-310.661"/>
</g>
<!-- rg1 -->
<g id="node6" class="node"><title>rg1</title>
<polygon fill="none" stroke="black" points="238.072,-364.78 184.072,-364.78 184.072,-328.78 238.072,-328.78 238.072,-364.78"/>
<text text-anchor="middle" x="211.072" y="-343.08" font-family="Times,serif" font-size="14.00">rg1</text>
</g>
<!-- green1 -->
<g id="node11" class="node"><title>green1</title>
<ellipse fill="none" stroke="black" cx="179.549" cy="-423.486" rx="32.5" ry="32.5"/>
<text text-anchor="middle" x="179.549" y="-419.786" font-family="Times,serif" font-size="14.00">green1</text>
</g>
<!-- rg1&#45;&gt;green1 -->
<g id="edge10" class="edge"><title>rg1&#45;&gt;green1</title>
<path fill="none" stroke="black" d="M203.602,-364.958C201.278,-370.614 198.617,-377.088 195.933,-383.62"/>
<polygon fill="black" stroke="black" points="192.582,-382.564 192.018,-393.144 199.057,-385.225 192.582,-382.564"/>
</g>
<!-- green2&#45;&gt;gy2 -->
<g id="edge6" class="edge"><title>green2&#45;&gt;gy2</title>
<path fill="none" stroke="black" d="M170.307,-62.8878C175.551,-62.3017 181.017,-61.6907 186.364,-61.0931"/>
<polygon fill="black" stroke="black" points="186.86,-64.5596 196.409,-59.9703 186.082,-57.6029 186.86,-64.5596"/>
</g>
<!-- yellow2&#45;&gt;yr2 -->
<g id="edge7" class="edge"><title>yellow2&#45;&gt;yr2</title>
<path fill="none" stroke="black" d="M276.528,-148.282C274.65,-154.914 272.68,-161.869 270.839,-168.368"/>
<polygon fill="black" stroke="black" points="267.442,-167.519 268.085,-178.094 274.177,-169.426 267.442,-167.519"/>
</g>
<!-- red2&#45;&gt;rg2 -->
<g id="edge8" class="edge"><title>red2&#45;&gt;rg2</title>
<path fill="none" stroke="black" d="M155.556,-157.883C152.33,-156.912 149.032,-155.919 145.752,-154.932"/>
<polygon fill="black" stroke="black" points="146.65,-151.547 136.065,-152.016 144.632,-158.25 146.65,-151.547"/>
</g>
<!-- safe2&#45;&gt;rg2 -->
<g id="edge5" class="edge"><title>safe2&#45;&gt;rg2</title>
<path fill="none" stroke="black" d="M75.9827,-183.515C79.6638,-179.055 83.5017,-174.406 87.2003,-169.926"/>
<polygon fill="black" stroke="black" points="89.9764,-172.06 93.6434,-162.12 84.5781,-167.604 89.9764,-172.06"/>
</g>
<!-- green1&#45;&gt;gy1 -->
<g id="edge14" class="edge"><title>green1&#45;&gt;gy1</title>
<path fill="none" stroke="black" d="M147.155,-426.806C141.899,-427.345 136.419,-427.907 131.06,-428.456"/>
<polygon fill="black" stroke="black" points="130.582,-424.987 120.991,-429.488 131.296,-431.95 130.582,-424.987"/>
</g>
<!-- yellow1&#45;&gt;yr1 -->
<g id="edge15" class="edge"><title>yellow1&#45;&gt;yr1</title>
<path fill="none" stroke="black" d="M42.2902,-340.843C44.3491,-334.291 46.5082,-327.421 48.5259,-321.001"/>
<polygon fill="black" stroke="black" points="51.8862,-321.982 51.5453,-311.393 45.2082,-319.884 51.8862,-321.982"/>
</g>
<!-- red1&#45;&gt;rg1 -->
<g id="edge16" class="edge"><title>red1&#45;&gt;rg1</title>
<path fill="none" stroke="black" d="M164.454,-332.464C167.668,-333.451 170.955,-334.461 174.222,-335.464"/>
<polygon fill="black" stroke="black" points="173.287,-338.838 183.874,-338.428 175.342,-332.146 173.287,-338.838"/>
</g>
<!-- safe1&#45;&gt;rg1 -->
<g id="edge13" class="edge"><title>safe1&#45;&gt;rg1</title>
<path fill="none" stroke="black" d="M243.629,-306.69C239.901,-311.281 236.01,-316.072 232.269,-320.678"/>
<polygon fill="black" stroke="black" points="229.353,-318.718 225.766,-328.687 234.787,-323.131 229.353,-318.718"/>
</g>
</g>
</svg>
