<?xml version="1.0" encoding="UTF-8" standalone="no"?>
<!DOCTYPE svg PUBLIC "-//W3C//DTD SVG 1.1//EN"
 "http://www.w3.org/Graphics/SVG/1.1/DTD/svg11.dtd">
<!-- Generated by graphviz version 2.30.1 (20201013.1554)
 -->
<!-- Title: G Pages: 1 -->
<svg width="287pt" height="1080pt"
 viewBox="0.00 0.00 287.00 1080.00" xmlns="http://www.w3.org/2000/svg" xmlns:xlink="http://www.w3.org/1999/xlink">
<g id="graph0" class="graph" transform="scale(1 1) rotate(0) translate(4 1076)">
<title>G</title>
<polygon fill="white" stroke="white" points="-4,5 -4,-1076 284,-1076 284,5 -4,5"/>
<text text-anchor="middle" x="139.5" y="-20.4" font-family="Times,serif" font-size="12.00">PetriNet Model TrafficLights</text>
<text text-anchor="middle" x="139.5" y="-7.4" font-family="Times,serif" font-size="12.00">Extracted from ConceptBase and layed out by Graphviz</text>
<!-- gy2 -->
<g id="node1" class="node"><title>gy2</title>
<polygon fill="none" stroke="black" points="251,-1072 197,-1072 197,-1036 251,-1036 251,-1072"/>
<text text-anchor="middle" x="224" y="-1050.3" font-family="Times,serif" font-size="14.00">gy2</text>
</g>
<!-- yellow2 -->
<g id="node8" class="node"><title>yellow2</title>
<ellipse fill="none" stroke="black" cx="194" cy="-967" rx="32.25" ry="32.5"/>
<text text-anchor="middle" x="194" y="-963.3" font-family="Times,serif" font-size="14.00">yellow2</text>
</g>
<!-- gy2&#45;&gt;yellow2 -->
<g id="edge1" class="edge"><title>gy2&#45;&gt;yellow2</title>
<path fill="none" stroke="black" d="M217.929,-1035.8C215.023,-1027.56 211.413,-1017.34 207.886,-1007.34"/>
<polygon fill="black" stroke="black" points="211.185,-1006.17 204.556,-997.908 204.584,-1008.5 211.185,-1006.17"/>
</g>
<!-- yr2 -->
<g id="node2" class="node"><title>yr2</title>
<polygon fill="none" stroke="black" points="221,-898 167,-898 167,-862 221,-862 221,-898"/>
<text text-anchor="middle" x="194" y="-876.3" font-family="Times,serif" font-size="14.00">yr2</text>
</g>
<!-- safe1 -->
<g id="node14" class="node"><title>safe1</title>
<ellipse fill="none" stroke="black" cx="125" cy="-793" rx="32.25" ry="32.5"/>
<text text-anchor="middle" x="125" y="-789.3" font-family="Times,serif" font-size="14.00">safe1</text>
</g>
<!-- yr2&#45;&gt;safe1 -->
<g id="edge3" class="edge"><title>yr2&#45;&gt;safe1</title>
<path fill="none" stroke="black" d="M180.037,-861.799C171.846,-851.709 161.227,-838.627 151.505,-826.65"/>
<polygon fill="black" stroke="black" points="153.978,-824.144 144.958,-818.586 148.543,-828.555 153.978,-824.144"/>
</g>
<!-- red2 -->
<g id="node9" class="node"><title>red2</title>
<ellipse fill="none" stroke="black" cx="194" cy="-691" rx="32.25" ry="32.5"/>
<text text-anchor="middle" x="194" y="-687.3" font-family="Times,serif" font-size="14.00">red2</text>
</g>
<!-- yr2&#45;&gt;red2 -->
<g id="edge4" class="edge"><title>yr2&#45;&gt;red2</title>
<path fill="none" stroke="black" d="M194,-861.743C194,-832.88 194,-774.027 194,-733.799"/>
<polygon fill="black" stroke="black" points="197.5,-733.748 194,-723.748 190.5,-733.749 197.5,-733.748"/>
</g>
<!-- rg2 -->
<g id="node3" class="node"><title>rg2</title>
<polygon fill="none" stroke="black" points="224,-172 170,-172 170,-136 224,-136 224,-172"/>
<text text-anchor="middle" x="197" y="-150.3" font-family="Times,serif" font-size="14.00">rg2</text>
</g>
<!-- green2 -->
<g id="node7" class="node"><title>green2</title>
<ellipse fill="none" stroke="black" cx="226" cy="-67" rx="32.25" ry="32.5"/>
<text text-anchor="middle" x="226" y="-63.3" font-family="Times,serif" font-size="14.00">green2</text>
</g>
<!-- rg2&#45;&gt;green2 -->
<g id="edge2" class="edge"><title>rg2&#45;&gt;green2</title>
<path fill="none" stroke="black" d="M202.869,-135.799C205.649,-127.649 209.095,-117.548 212.471,-107.654"/>
<polygon fill="black" stroke="black" points="215.88,-108.503 215.796,-97.908 209.254,-106.242 215.88,-108.503"/>
</g>
<!-- gy1 -->
<g id="node4" class="node"><title>gy1</title>
<polygon fill="none" stroke="black" points="102,-520 48,-520 48,-484 102,-484 102,-520"/>
<text text-anchor="middle" x="75" y="-498.3" font-family="Times,serif" font-size="14.00">gy1</text>
</g>
<!-- yellow1 -->
<g id="node12" class="node"><title>yellow1</title>
<ellipse fill="none" stroke="black" cx="75" cy="-415" rx="32.25" ry="32.5"/>
<text text-anchor="middle" x="75" y="-411.3" font-family="Times,serif" font-size="14.00">yellow1</text>
</g>
<!-- gy1&#45;&gt;yellow1 -->
<g id="edge9" class="edge"><title>gy1&#45;&gt;yellow1</title>
<path fill="none" stroke="black" d="M75,-483.799C75,-476.256 75,-467.042 75,-457.868"/>
<polygon fill="black" stroke="black" points="78.5001,-457.617 75,-447.617 71.5001,-457.617 78.5001,-457.617"/>
</g>
<!-- yr1 -->
<g id="node5" class="node"><title>yr1</title>
<polygon fill="none" stroke="black" points="102,-346 48,-346 48,-310 102,-310 102,-346"/>
<text text-anchor="middle" x="75" y="-324.3" font-family="Times,serif" font-size="14.00">yr1</text>
</g>
<!-- safe2 -->
<g id="node10" class="node"><title>safe2</title>
<ellipse fill="none" stroke="black" cx="53" cy="-241" rx="32.25" ry="32.5"/>
<text text-anchor="middle" x="53" y="-237.3" font-family="Times,serif" font-size="14.00">safe2</text>
</g>
<!-- yr1&#45;&gt;safe2 -->
<g id="edge11" class="edge"><title>yr1&#45;&gt;safe2</title>
<path fill="none" stroke="black" d="M70.548,-309.799C68.4979,-301.878 65.9707,-292.114 63.4792,-282.488"/>
<polygon fill="black" stroke="black" points="66.8113,-281.393 60.9172,-272.589 60.0346,-283.147 66.8113,-281.393"/>
</g>
<!-- red1 -->
<g id="node13" class="node"><title>red1</title>
<ellipse fill="none" stroke="black" cx="136" cy="-241" rx="32.25" ry="32.5"/>
<text text-anchor="middle" x="136" y="-237.3" font-family="Times,serif" font-size="14.00">red1</text>
</g>
<!-- yr1&#45;&gt;red1 -->
<g id="edge12" class="edge"><title>yr1&#45;&gt;red1</title>
<path fill="none" stroke="black" d="M87.3443,-309.799C94.2917,-300.118 103.215,-287.684 111.519,-276.113"/>
<polygon fill="black" stroke="black" points="114.431,-278.057 117.418,-267.892 108.744,-273.976 114.431,-278.057"/>
</g>
<!-- rg1 -->
<g id="node6" class="node"><title>rg1</title>
<polygon fill="none" stroke="black" points="143,-709 89,-709 89,-673 143,-673 143,-709"/>
<text text-anchor="middle" x="116" y="-687.3" font-family="Times,serif" font-size="14.00">rg1</text>
</g>
<!-- green1 -->
<g id="node11" class="node"><title>green1</title>
<ellipse fill="none" stroke="black" cx="75" cy="-589" rx="32.25" ry="32.5"/>
<text text-anchor="middle" x="75" y="-585.3" font-family="Times,serif" font-size="14.00">green1</text>
</g>
<!-- rg1&#45;&gt;green1 -->
<g id="edge10" class="edge"><title>rg1&#45;&gt;green1</title>
<path fill="none" stroke="black" d="M108.858,-672.581C103.927,-660.555 97.1701,-644.073 90.9887,-628.997"/>
<polygon fill="black" stroke="black" points="94.0667,-627.278 87.0347,-619.353 87.5899,-629.933 94.0667,-627.278"/>
</g>
<!-- green2&#45;&gt;gy2 -->
<g id="edge6" class="edge"><title>green2&#45;&gt;gy2</title>
<path fill="none" stroke="black" d="M234.31,-98.4982C242.88,-132.679 255,-189.882 255,-240 255,-881 255,-881 255,-881 255,-932.747 241.242,-991.881 232.057,-1025.6"/>
<polygon fill="black" stroke="black" points="228.58,-1025.03 229.259,-1035.61 235.322,-1026.92 228.58,-1025.03"/>
</g>
<!-- yellow2&#45;&gt;yr2 -->
<g id="edge7" class="edge"><title>yellow2&#45;&gt;yr2</title>
<path fill="none" stroke="black" d="M194,-934.349C194,-925.816 194,-916.658 194,-908.38"/>
<polygon fill="black" stroke="black" points="197.5,-908.131 194,-898.131 190.5,-908.131 197.5,-908.131"/>
</g>
<!-- red2&#45;&gt;rg2 -->
<g id="edge8" class="edge"><title>red2&#45;&gt;rg2</title>
<path fill="none" stroke="black" d="M194.82,-658.239C195.708,-621.036 197,-557.549 197,-503 197,-503 197,-503 197,-327 197,-275.805 197,-216.038 197,-182.142"/>
<polygon fill="black" stroke="black" points="200.5,-182.089 197,-172.089 193.5,-182.089 200.5,-182.089"/>
</g>
<!-- safe2&#45;&gt;rg2 -->
<g id="edge5" class="edge"><title>safe2&#45;&gt;rg2</title>
<path fill="none" stroke="black" d="M77.6066,-219.598C82.8837,-215.566 88.5231,-211.503 94,-208 115.354,-194.344 140.648,-181.287 160.826,-171.55"/>
<polygon fill="black" stroke="black" points="162.469,-174.645 169.992,-167.185 159.459,-168.325 162.469,-174.645"/>
</g>
<!-- green1&#45;&gt;gy1 -->
<g id="edge14" class="edge"><title>green1&#45;&gt;gy1</title>
<path fill="none" stroke="black" d="M75,-556.349C75,-547.816 75,-538.658 75,-530.38"/>
<polygon fill="black" stroke="black" points="78.5001,-530.131 75,-520.131 71.5001,-530.131 78.5001,-530.131"/>
</g>
<!-- yellow1&#45;&gt;yr1 -->
<g id="edge15" class="edge"><title>yellow1&#45;&gt;yr1</title>
<path fill="none" stroke="black" d="M75,-382.349C75,-373.816 75,-364.658 75,-356.38"/>
<polygon fill="black" stroke="black" points="78.5001,-356.131 75,-346.131 71.5001,-356.131 78.5001,-356.131"/>
</g>
<!-- red1&#45;&gt;rg1 -->
<g id="edge16" class="edge"><title>red1&#45;&gt;rg1</title>
<path fill="none" stroke="black" d="M136,-273.701C136,-308.212 136,-365.028 136,-414 136,-503 136,-503 136,-503 136,-559.96 126.712,-626.128 120.795,-662.503"/>
<polygon fill="black" stroke="black" points="117.272,-662.353 119.081,-672.792 124.177,-663.504 117.272,-662.353"/>
</g>
<!-- safe1&#45;&gt;rg1 -->
<g id="edge13" class="edge"><title>safe1&#45;&gt;rg1</title>
<path fill="none" stroke="black" d="M122.152,-760.359C120.961,-747.127 119.591,-731.903 118.447,-719.185"/>
<polygon fill="black" stroke="black" points="121.93,-718.837 117.547,-709.191 114.958,-719.464 121.93,-718.837"/>
</g>
</g>
</svg>
