<?xml version="1.0" encoding="UTF-8" standalone="no"?>
<!DOCTYPE svg PUBLIC "-//W3C//DTD SVG 1.1//EN"
 "http://www.w3.org/Graphics/SVG/1.1/DTD/svg11.dtd">
<!-- Generated by graphviz version 2.30.1 (20201013.1554)
 -->
<!-- Title: G Pages: 1 -->
<svg width="377pt" height="291pt"
 viewBox="0.00 0.00 377.00 291.00" xmlns="http://www.w3.org/2000/svg" xmlns:xlink="http://www.w3.org/1999/xlink">
<g id="graph0" class="graph" transform="scale(1 1) rotate(0) translate(4 287)">
<title>G</title>
<polygon fill="white" stroke="white" points="-4,5 -4,-287 374,-287 374,5 -4,5"/>
<g id="clust1" class="cluster"><title>clusterA</title>
<polygon fill="none" stroke="black" points="0.169592,-112.22 0.169592,-283.22 257.17,-283.22 257.17,-112.22 0.169592,-112.22"/>
</g>
<g id="clust2" class="cluster"><title>clusterC</title>
<polygon fill="none" stroke="black" points="8.32671,-120.418 8.32671,-220.418 137.327,-220.418 137.327,-120.418 8.32671,-120.418"/>
</g>
<g id="clust3" class="cluster"><title>clusterB</title>
<polygon fill="none" stroke="black" points="267.389,-45.3596 267.389,-141.36 369.389,-141.36 369.389,-45.3596 267.389,-45.3596"/>
</g>
<!-- e -->
<g id="node1" class="node"><title>e</title>
<ellipse fill="none" stroke="black" cx="291.792" cy="-18.3902" rx="27" ry="18"/>
<text text-anchor="middle" x="291.792" y="-14.6902" font-family="Times,serif" font-size="14.00">e</text>
</g>
<!-- __0:clusterB -->
<!-- e&#45;&#45;__0:clusterB -->
<g id="edge7" class="edge"><title>e&#45;&#45;__0:clusterB</title>
<path fill="none" stroke="black" d="M298.095,-36.1569C299.109,-39.0147 300.199,-42.0862 301.328,-45.2689"/>
</g>
<!-- a -->
<g id="node2" class="node"><title>a</title>
<ellipse fill="none" stroke="black" cx="156.576" cy="-257.555" rx="27" ry="18"/>
<text text-anchor="middle" x="156.576" y="-253.855" font-family="Times,serif" font-size="14.00">a</text>
</g>
<!-- b -->
<g id="node3" class="node"><title>b</title>
<ellipse fill="none" stroke="black" cx="222.032" cy="-247.775" rx="27" ry="18"/>
<text text-anchor="middle" x="222.032" y="-244.075" font-family="Times,serif" font-size="14.00">b</text>
</g>
<!-- a&#45;&#45;b -->
<g id="edge1" class="edge"><title>a&#45;&#45;b</title>
<path fill="none" stroke="black" d="M183.199,-253.577C187.305,-252.963 191.544,-252.33 195.644,-251.718"/>
</g>
<!-- C -->
<g id="node4" class="node"><title>C</title>
<ellipse fill="none" stroke="black" cx="102.618" cy="-146.774" rx="27" ry="18"/>
<text text-anchor="middle" x="102.618" y="-143.074" font-family="Times,serif" font-size="14.00">C</text>
</g>
<!-- D -->
<g id="node5" class="node"><title>D</title>
<ellipse fill="none" stroke="black" cx="43.334" cy="-194.814" rx="27" ry="18"/>
<text text-anchor="middle" x="43.334" y="-191.114" font-family="Times,serif" font-size="14.00">D</text>
</g>
<!-- C&#45;&#45;D -->
<g id="edge2" class="edge"><title>C&#45;&#45;D</title>
<path fill="none" stroke="black" d="M85.1514,-160.928C77.5007,-167.127 68.5403,-174.388 60.8805,-180.595"/>
</g>
<!-- d -->
<g id="node6" class="node"><title>d</title>
<ellipse fill="none" stroke="black" cx="302.661" cy="-115.643" rx="27" ry="18"/>
<text text-anchor="middle" x="302.661" y="-111.943" font-family="Times,serif" font-size="14.00">d</text>
</g>
<!-- f -->
<g id="node7" class="node"><title>f</title>
<ellipse fill="none" stroke="black" cx="333.96" cy="-71.6298" rx="27" ry="18"/>
<text text-anchor="middle" x="333.96" y="-67.9298" font-family="Times,serif" font-size="14.00">f</text>
</g>
<!-- d&#45;&#45;f -->
<g id="edge3" class="edge"><title>d&#45;&#45;f</title>
<path fill="none" stroke="black" d="M314.315,-99.2542C316.888,-95.637 319.614,-91.8027 322.191,-88.1792"/>
</g>
<!-- d&#45;&#45;D -->
<g id="edge4" class="edge"><title>d&#45;&#45;D</title>
<path fill="none" stroke="black" d="M277.796,-123.234C228.228,-138.367 117.63,-172.132 68.1241,-187.246"/>
</g>
<!-- __1:clusterC -->
<!-- __2:clusterB -->
<!-- __1:clusterC&#45;&#45;__2:clusterB -->
<g id="edge8" class="edge"><title>__1:clusterC&#45;&#45;__2:clusterB</title>
<path fill="none" stroke="black" d="M137.345,-150.172C177.844,-137.463 229.353,-121.3 267.066,-109.465"/>
</g>
</g>
</svg>
