<?xml version="1.0" encoding="UTF-8" standalone="no"?>
<!DOCTYPE svg PUBLIC "-//W3C//DTD SVG 1.1//EN"
 "http://www.w3.org/Graphics/SVG/1.1/DTD/svg11.dtd">
<!-- Generated by graphviz version 2.30.1 (20201013.1554)
 -->
<!-- Title: G Pages: 1 -->
<svg width="322pt" height="240pt"
 viewBox="0.00 0.00 322.00 240.00" xmlns="http://www.w3.org/2000/svg" xmlns:xlink="http://www.w3.org/1999/xlink">
<g id="graph0" class="graph" transform="scale(1 1) rotate(0) translate(4 236)">
<title>G</title>
<polygon fill="white" stroke="white" points="-4,5 -4,-236 319,-236 319,5 -4,5"/>
<!-- run -->
<g id="node1" class="node"><title>run</title>
<ellipse fill="none" stroke="black" cx="74.675" cy="-109.893" rx="27" ry="18"/>
<text text-anchor="middle" x="74.675" y="-106.193" font-family="Times,serif" font-size="14.00">run</text>
</g>
<!-- intr -->
<g id="node2" class="node"><title>intr</title>
<ellipse fill="none" stroke="black" cx="107.336" cy="-17.901" rx="27" ry="18"/>
<text text-anchor="middle" x="107.336" y="-14.201" font-family="Times,serif" font-size="14.00">intr</text>
</g>
<!-- run&#45;&#45;intr -->
<g id="edge1" class="edge"><title>run&#45;&#45;intr</title>
<path fill="none" stroke="black" d="M80.9723,-92.1564C86.7558,-75.8666 95.2805,-51.8561 101.058,-35.5836"/>
</g>
<!-- kernel -->
<g id="node4" class="node"><title>kernel</title>
<ellipse fill="none" stroke="black" cx="142.748" cy="-157.976" rx="32.4942" ry="18"/>
<text text-anchor="middle" x="142.748" y="-154.276" font-family="Times,serif" font-size="14.00">kernel</text>
</g>
<!-- run&#45;&#45;kernel -->
<g id="edge4" class="edge"><title>run&#45;&#45;kernel</title>
<path fill="none" stroke="black" d="M93.2763,-123.032C102.252,-129.372 113.044,-136.995 122.255,-143.501"/>
</g>
<!-- runbl -->
<g id="node3" class="node"><title>runbl</title>
<ellipse fill="none" stroke="black" cx="29.6738" cy="-64.8711" rx="29.4969" ry="18"/>
<text text-anchor="middle" x="29.6738" y="-61.1711" font-family="Times,serif" font-size="14.00">runbl</text>
</g>
<!-- intr&#45;&#45;runbl -->
<g id="edge2" class="edge"><title>intr&#45;&#45;runbl</title>
<path fill="none" stroke="black" d="M87.3359,-29.9969C76.1002,-36.7923 62.0892,-45.2662 50.6919,-52.1593"/>
</g>
<!-- runbl&#45;&#45;run -->
<g id="edge3" class="edge"><title>runbl&#45;&#45;run</title>
<path fill="none" stroke="black" d="M45.1607,-80.3652C49.8388,-85.0455 54.9662,-90.1754 59.616,-94.8273"/>
</g>
<!-- zombie -->
<g id="node5" class="node"><title>zombie</title>
<ellipse fill="none" stroke="black" cx="122.463" cy="-213.94" rx="37.0935" ry="18"/>
<text text-anchor="middle" x="122.463" y="-210.24" font-family="Times,serif" font-size="14.00">zombie</text>
</g>
<!-- kernel&#45;&#45;zombie -->
<g id="edge5" class="edge"><title>kernel&#45;&#45;zombie</title>
<path fill="none" stroke="black" d="M136.33,-175.683C133.962,-182.216 131.28,-189.616 128.909,-196.156"/>
</g>
<!-- sleep -->
<g id="node6" class="node"><title>sleep</title>
<ellipse fill="none" stroke="black" cx="221.993" cy="-195.696" rx="28.6953" ry="18"/>
<text text-anchor="middle" x="221.993" y="-191.996" font-family="Times,serif" font-size="14.00">sleep</text>
</g>
<!-- kernel&#45;&#45;sleep -->
<g id="edge6" class="edge"><title>kernel&#45;&#45;sleep</title>
<path fill="none" stroke="black" d="M167.822,-169.911C177.797,-174.659 189.202,-180.088 198.966,-184.735"/>
</g>
<!-- runmem -->
<g id="node7" class="node"><title>runmem</title>
<ellipse fill="none" stroke="black" cx="166.576" cy="-95.1642" rx="40.8928" ry="18"/>
<text text-anchor="middle" x="166.576" y="-91.4642" font-family="Times,serif" font-size="14.00">runmem</text>
</g>
<!-- kernel&#45;&#45;runmem -->
<g id="edge7" class="edge"><title>kernel&#45;&#45;runmem</title>
<path fill="none" stroke="black" d="M149.512,-140.145C152.704,-131.73 156.507,-121.706 159.712,-113.258"/>
</g>
<!-- swap -->
<g id="node8" class="node"><title>swap</title>
<ellipse fill="none" stroke="black" cx="284.969" cy="-129.824" rx="28.6953" ry="18"/>
<text text-anchor="middle" x="284.969" y="-126.124" font-family="Times,serif" font-size="14.00">swap</text>
</g>
<!-- sleep&#45;&#45;swap -->
<g id="edge8" class="edge"><title>sleep&#45;&#45;swap</title>
<path fill="none" stroke="black" d="M236.917,-180.085C246.956,-169.585 260.135,-155.8 270.152,-145.322"/>
</g>
<!-- sleep&#45;&#45;runmem -->
<g id="edge13" class="edge"><title>sleep&#45;&#45;runmem</title>
<path fill="none" stroke="black" d="M212.592,-178.642C202.525,-160.38 186.622,-131.531 176.396,-112.98"/>
</g>
<!-- runswap -->
<g id="node9" class="node"><title>runswap</title>
<ellipse fill="none" stroke="black" cx="261.414" cy="-82.5735" rx="40.0939" ry="18"/>
<text text-anchor="middle" x="261.414" y="-78.8735" font-family="Times,serif" font-size="14.00">runswap</text>
</g>
<!-- swap&#45;&#45;runswap -->
<g id="edge9" class="edge"><title>swap&#45;&#45;runswap</title>
<path fill="none" stroke="black" d="M276.332,-112.498C274.336,-108.494 272.21,-104.231 270.208,-100.214"/>
</g>
<!-- new -->
<g id="node10" class="node"><title>new</title>
<ellipse fill="none" stroke="black" cx="185.653" cy="-33.9144" rx="27" ry="18"/>
<text text-anchor="middle" x="185.653" y="-30.2144" font-family="Times,serif" font-size="14.00">new</text>
</g>
<!-- runswap&#45;&#45;new -->
<g id="edge10" class="edge"><title>runswap&#45;&#45;new</title>
<path fill="none" stroke="black" d="M238.272,-67.7098C227.828,-61.0021 215.614,-53.1571 205.583,-46.7149"/>
</g>
<!-- runswap&#45;&#45;runmem -->
<g id="edge11" class="edge"><title>runswap&#45;&#45;runmem</title>
<path fill="none" stroke="black" d="M222.566,-87.731C217.041,-88.4644 211.356,-89.2192 205.824,-89.9536"/>
</g>
<!-- new&#45;&#45;runmem -->
<g id="edge12" class="edge"><title>new&#45;&#45;runmem</title>
<path fill="none" stroke="black" d="M180.135,-51.6304C177.626,-59.6858 174.663,-69.1998 172.147,-77.2758"/>
</g>
</g>
</svg>
