<?xml version="1.0" encoding="UTF-8" standalone="no"?>
<!DOCTYPE svg PUBLIC "-//W3C//DTD SVG 1.1//EN"
 "http://www.w3.org/Graphics/SVG/1.1/DTD/svg11.dtd">
<!-- Generated by graphviz version 2.30.1 (20201013.1554)
 -->
<!-- Title: G Pages: 1 -->
<svg width="353pt" height="444pt"
 viewBox="0.00 0.00 353.08 443.60" xmlns="http://www.w3.org/2000/svg" xmlns:xlink="http://www.w3.org/1999/xlink">
<g id="graph0" class="graph" transform="scale(1 1) rotate(0) translate(4 439.603)">
<title>G</title>
<polygon fill="white" stroke="white" points="-4,5 -4,-439.603 350.079,-439.603 350.079,5 -4,5"/>
<text text-anchor="middle" x="172.539" y="-32" font-family="Times,serif" font-size="20.00">Entity Relation Diagram</text>
<text text-anchor="middle" x="172.539" y="-10" font-family="Times,serif" font-size="20.00">drawn by NEATO</text>
<!-- course -->
<g id="node1" class="node"><title>course</title>
<polygon fill="none" stroke="black" points="124.248,-296.686 70.2476,-296.686 70.2476,-260.686 124.248,-260.686 124.248,-296.686"/>
<text text-anchor="middle" x="97.2476" y="-274.986" font-family="Times,serif" font-size="14.00">course</text>
</g>
<!-- C&#45;I -->
<g id="node10" class="node"><title>C&#45;I</title>
<polygon fill="lightgrey" stroke="lightgrey" points="142.98,-367.848 110.638,-349.848 142.98,-331.848 175.322,-349.848 142.98,-367.848"/>
<text text-anchor="middle" x="142.98" y="-346.148" font-family="Times,serif" font-size="14.00">C&#45;I</text>
</g>
<!-- course&#45;&#45;C&#45;I -->
<g id="edge3" class="edge"><title>course&#45;&#45;C&#45;I</title>
<path fill="none" stroke="black" d="M109.025,-297.012C116.965,-309.366 127.258,-325.383 134.42,-336.528"/>
<text text-anchor="middle" x="118.223" y="-320.57" font-family="Times,serif" font-size="14.00">n</text>
</g>
<!-- institute -->
<g id="node2" class="node"><title>institute</title>
<polygon fill="none" stroke="black" points="255.366,-367.331 195.366,-367.331 195.366,-331.331 255.366,-331.331 255.366,-367.331"/>
<text text-anchor="middle" x="225.366" y="-345.631" font-family="Times,serif" font-size="14.00">institute</text>
</g>
<!-- name1 -->
<g id="node5" class="node"><title>name1</title>
<polygon fill="none" stroke="black" points="291.591,-435.603 237.591,-435.603 237.591,-399.603 291.591,-399.603 291.591,-435.603"/>
<text text-anchor="middle" x="264.591" y="-413.903" font-family="Times,serif" font-size="14.00">name1</text>
</g>
<!-- institute&#45;&#45;name1 -->
<g id="edge5" class="edge"><title>institute&#45;&#45;name1</title>
<path fill="none" stroke="black" d="M235.878,-367.627C241.506,-377.422 248.418,-389.454 254.051,-399.257"/>
</g>
<!-- S&#45;I -->
<g id="node12" class="node"><title>S&#45;I</title>
<polygon fill="lightgrey" stroke="lightgrey" points="261.731,-293.686 231.565,-275.686 261.731,-257.686 291.896,-275.686 261.731,-293.686"/>
<text text-anchor="middle" x="261.731" y="-271.986" font-family="Times,serif" font-size="14.00">S&#45;I</text>
</g>
<!-- institute&#45;&#45;S&#45;I -->
<g id="edge6" class="edge"><title>institute&#45;&#45;S&#45;I</title>
<path fill="none" stroke="black" d="M234.355,-331.127C240.665,-318.348 248.979,-301.51 254.782,-289.757"/>
<text text-anchor="middle" x="241.069" y="-314.242" font-family="Times,serif" font-size="14.00">1</text>
</g>
<!-- student -->
<g id="node3" class="node"><title>student</title>
<polygon fill="none" stroke="black" points="262.495,-213.413 206.495,-213.413 206.495,-177.413 262.495,-177.413 262.495,-213.413"/>
<text text-anchor="middle" x="234.495" y="-191.713" font-family="Times,serif" font-size="14.00">student</text>
</g>
<!-- grade -->
<g id="node8" class="node"><title>grade</title>
<ellipse fill="none" stroke="black" cx="278.181" cy="-127.59" rx="30.5947" ry="18"/>
<text text-anchor="middle" x="278.181" y="-123.89" font-family="Times,serif" font-size="14.00">grade</text>
</g>
<!-- student&#45;&#45;grade -->
<g id="edge8" class="edge"><title>student&#45;&#45;grade</title>
<path fill="none" stroke="black" d="M246.202,-177.238C252.672,-167.193 260.667,-154.781 267.044,-144.88"/>
</g>
<!-- name2 -->
<g id="node6" class="node"><title>name2</title>
<polygon fill="none" stroke="black" points="345.079,-211.311 291.079,-211.311 291.079,-175.311 345.079,-175.311 345.079,-211.311"/>
<text text-anchor="middle" x="318.079" y="-189.611" font-family="Times,serif" font-size="14.00">name2</text>
</g>
<!-- student&#45;&#45;name2 -->
<g id="edge9" class="edge"><title>student&#45;&#45;name2</title>
<path fill="none" stroke="black" d="M262.793,-194.701C271.886,-194.473 281.934,-194.22 290.942,-193.993"/>
</g>
<!-- number -->
<g id="node9" class="node"><title>number</title>
<ellipse fill="none" stroke="black" cx="202.603" cy="-118" rx="38.1938" ry="18"/>
<text text-anchor="middle" x="202.603" y="-114.3" font-family="Times,serif" font-size="14.00">number</text>
</g>
<!-- student&#45;&#45;number -->
<g id="edge10" class="edge"><title>student&#45;&#45;number</title>
<path fill="none" stroke="black" d="M226.937,-177.067C221.779,-164.548 214.985,-148.056 209.887,-135.681"/>
</g>
<!-- S&#45;C -->
<g id="node11" class="node"><title>S&#45;C</title>
<polygon fill="lightgrey" stroke="lightgrey" points="152.099,-233.322 117.243,-215.322 152.099,-197.322 186.955,-215.322 152.099,-233.322"/>
<text text-anchor="middle" x="152.099" y="-211.622" font-family="Times,serif" font-size="14.00">S&#45;C</text>
</g>
<!-- student&#45;&#45;S&#45;C -->
<g id="edge11" class="edge"><title>student&#45;&#45;S&#45;C</title>
<path fill="none" stroke="black" d="M206.139,-202.265C196.27,-204.649 185.309,-207.298 175.852,-209.583"/>
<text text-anchor="middle" x="196.995" y="-209.724" font-family="Times,serif" font-size="14.00">m</text>
</g>
<!-- name0 -->
<g id="node4" class="node"><title>name0</title>
<polygon fill="none" stroke="black" points="60.3192,-345.964 6.31917,-345.964 6.31917,-309.964 60.3192,-309.964 60.3192,-345.964"/>
<text text-anchor="middle" x="33.3192" y="-324.264" font-family="Times,serif" font-size="14.00">name0</text>
</g>
<!-- name0&#45;&#45;course -->
<g id="edge1" class="edge"><title>name0&#45;&#45;course</title>
<path fill="none" stroke="black" d="M56.7608,-309.894C62.3198,-305.609 68.2499,-301.038 73.8089,-296.753"/>
</g>
<!-- code -->
<g id="node7" class="node"><title>code</title>
<ellipse fill="none" stroke="black" cx="27.2976" cy="-236.09" rx="27.0966" ry="18"/>
<text text-anchor="middle" x="27.2976" y="-232.39" font-family="Times,serif" font-size="14.00">code</text>
</g>
<!-- code&#45;&#45;course -->
<g id="edge2" class="edge"><title>code&#45;&#45;course</title>
<path fill="none" stroke="black" d="M47.53,-248.41C54.5508,-252.685 62.5417,-257.551 70.0326,-262.113"/>
</g>
<!-- C&#45;I&#45;&#45;institute -->
<g id="edge4" class="edge"><title>C&#45;I&#45;&#45;institute</title>
<path fill="none" stroke="black" d="M175.069,-349.647C181.665,-349.605 188.589,-349.562 195.118,-349.521"/>
<text text-anchor="middle" x="181.593" y="-353.384" font-family="Times,serif" font-size="14.00">1</text>
</g>
<!-- S&#45;C&#45;&#45;course -->
<g id="edge12" class="edge"><title>S&#45;C&#45;&#45;course</title>
<path fill="none" stroke="black" d="M141.262,-227.841C133.144,-237.218 121.921,-250.183 112.84,-260.674"/>
<text text-anchor="middle" x="123.551" y="-248.057" font-family="Times,serif" font-size="14.00">n</text>
</g>
<!-- S&#45;I&#45;&#45;student -->
<g id="edge7" class="edge"><title>S&#45;I&#45;&#45;student</title>
<path fill="none" stroke="black" d="M256.608,-260.587C252.078,-247.235 245.459,-227.727 240.644,-213.536"/>
<text text-anchor="middle" x="245.126" y="-240.861" font-family="Times,serif" font-size="14.00">n</text>
</g>
</g>
</svg>
