<?xml version="1.0" encoding="UTF-8" standalone="no"?>
<!DOCTYPE svg PUBLIC "-//W3C//DTD SVG 1.1//EN"
 "http://www.w3.org/Graphics/SVG/1.1/DTD/svg11.dtd">
<!-- Generated by graphviz version 2.30.1 (20201013.1554)
 -->
<!-- Title: G Pages: 1 -->
<svg width="206pt" height="188pt"
 viewBox="0.00 0.00 206.00 188.00" xmlns="http://www.w3.org/2000/svg" xmlns:xlink="http://www.w3.org/1999/xlink">
<g id="graph0" class="graph" transform="scale(1 1) rotate(0) translate(4 184)">
<title>G</title>
<polygon fill="white" stroke="white" points="-4,5 -4,-184 203,-184 203,5 -4,5"/>
<!-- C -->
<g id="node1" class="node"><title>C</title>
<ellipse fill="none" stroke="black" cx="91" cy="-90" rx="27" ry="18"/>
<text text-anchor="middle" x="91" y="-86.3" font-family="Times,serif" font-size="14.00">C</text>
</g>
<!-- D -->
<g id="node5" class="node"><title>D</title>
<ellipse fill="none" stroke="black" cx="99" cy="-18" rx="27" ry="18"/>
<text text-anchor="middle" x="99" y="-14.3" font-family="Times,serif" font-size="14.00">D</text>
</g>
<!-- C&#45;&gt;D -->
<g id="edge3" class="edge"><title>C&#45;&gt;D</title>
<path fill="none" stroke="black" d="M92.9775,-71.6966C93.8591,-63.9827 94.9186,-54.7125 95.9014,-46.1124"/>
<polygon fill="black" stroke="black" points="99.387,-46.4371 97.0452,-36.1043 92.4323,-45.6422 99.387,-46.4371"/>
</g>
<!-- A -->
<g id="node2" class="node"><title>A</title>
<ellipse fill="none" stroke="black" cx="55" cy="-162" rx="27" ry="18"/>
<text text-anchor="middle" x="55" y="-158.3" font-family="Times,serif" font-size="14.00">A</text>
</g>
<!-- B -->
<g id="node4" class="node"><title>B</title>
<ellipse fill="none" stroke="black" cx="27" cy="-18" rx="27" ry="18"/>
<text text-anchor="middle" x="27" y="-14.3" font-family="Times,serif" font-size="14.00">B</text>
</g>
<!-- A&#45;&gt;B -->
<g id="edge1" class="edge"><title>A&#45;&gt;B</title>
<path fill="none" stroke="black" d="M51.6225,-143.871C46.8294,-119.564 38.0065,-74.8187 32.3266,-46.0132"/>
<polygon fill="black" stroke="black" points="35.758,-45.3232 30.3894,-36.1893 28.8902,-46.6775 35.758,-45.3232"/>
</g>
<!-- A&#45;&gt;C -->
<g id="edge2" class="edge"><title>A&#45;&gt;C</title>
<path fill="none" stroke="black" d="M63.3496,-144.765C67.7115,-136.283 73.1469,-125.714 78.0413,-116.197"/>
<polygon fill="black" stroke="black" points="81.2346,-117.641 82.6957,-107.147 75.0096,-114.439 81.2346,-117.641"/>
</g>
<!-- X -->
<g id="node3" class="node"><title>X</title>
<ellipse fill="none" stroke="black" cx="171" cy="-162" rx="27" ry="18"/>
<text text-anchor="middle" x="171" y="-158.3" font-family="Times,serif" font-size="14.00">X</text>
</g>
<!-- Y -->
<g id="node6" class="node"><title>Y</title>
<ellipse fill="none" stroke="black" cx="171" cy="-18" rx="27" ry="18"/>
<text text-anchor="middle" x="171" y="-14.3" font-family="Times,serif" font-size="14.00">Y</text>
</g>
<!-- X&#45;&gt;Y -->
<g id="edge4" class="edge"><title>X&#45;&gt;Y</title>
<path fill="none" stroke="black" d="M171,-143.871C171,-119.67 171,-75.2108 171,-46.3932"/>
<polygon fill="black" stroke="black" points="174.5,-46.1892 171,-36.1893 167.5,-46.1893 174.5,-46.1892"/>
</g>
</g>
</svg>
